M48
; DRILL file {KiCad 9.0.5} date 2026-01-13T02:28:26+0800
; FORMAT={-:-/ absolute / metric / decimal}
; #@! TF.CreationDate,2026-01-13T02:28:26+08:00
; #@! TF.GenerationSoftware,Kicad,Pcbnew,9.0.5
; #@! TF.FileFunction,Plated,1,2,PTH
FMAT,2
METRIC
; #@! TA.AperFunction,Plated,PTH,ComponentDrill
T1C0.800
; #@! TA.AperFunction,Plated,PTH,ViaDrill
T2C1.000
; #@! TA.AperFunction,Plated,PTH,ComponentDrill
T3C1.000
; #@! TA.AperFunction,Plated,PTH,ComponentDrill
T4C2.200
; #@! TA.AperFunction,Plated,PTH,ComponentDrill
T5C2.700
; #@! TA.AperFunction,Plated,PTH,ComponentDrill
T6C3.200
; #@! TA.AperFunction,Plated,PTH,ComponentDrill
T7C4.300
; #@! TA.AperFunction,Plated,PTH,ComponentDrill
T8C5.300
%
G90
G05
T1
X109.585Y-97.779
X109.585Y-107.939
T2
X144.06Y-111.32
T3
X78.425Y-97.779
X78.425Y-100.319
X78.425Y-102.859
X78.425Y-105.399
X78.425Y-107.939
X80.965Y-97.779
X80.965Y-100.319
X80.965Y-102.859
X80.965Y-105.399
X80.965Y-107.939
X83.505Y-97.779
X83.505Y-100.319
X83.505Y-102.859
X83.505Y-105.399
X83.505Y-107.939
X86.045Y-97.779
X86.045Y-100.319
X86.045Y-102.859
X86.045Y-105.399
X86.045Y-107.939
X88.585Y-97.779
X88.585Y-100.319
X88.585Y-102.859
X88.585Y-105.399
X88.585Y-107.939
X96.205Y-97.779
X96.205Y-100.319
X96.205Y-102.859
X96.205Y-105.399
X96.205Y-107.939
X98.745Y-97.779
X98.745Y-100.319
X98.745Y-102.859
X98.745Y-105.399
X98.745Y-107.939
X101.285Y-97.779
X101.285Y-100.319
X101.285Y-102.859
X101.285Y-105.399
X101.285Y-107.939
X103.825Y-97.779
X103.825Y-100.319
X103.825Y-102.859
X103.825Y-105.399
X103.825Y-107.939
X106.365Y-97.779
X106.365Y-100.319
X106.365Y-102.859
X106.365Y-105.399
X106.365Y-107.939
T4
X41.06Y-99.32
T5
X46.56Y-99.32
T6
X53.06Y-99.32
T7
X61.06Y-99.32
T8
X71.06Y-99.32
M30
