%TF.GenerationSoftware,KiCad,Pcbnew,8.0.4*%
%TF.CreationDate,2024-07-25T21:49:07+08:00*%
%TF.ProjectId,epd-pcb-ruler,6570642d-7063-4622-9d72-756c65722e6b,rev?*%
%TF.SameCoordinates,Original*%
%TF.FileFunction,Drillmap*%
%TF.FilePolarity,Positive*%
%FSLAX45Y45*%
G04 Gerber Fmt 4.5, Leading zero omitted, Abs format (unit mm)*
G04 Created by KiCad (PCBNEW 8.0.4) date 2024-07-25 21:49:07*
%MOMM*%
%LPD*%
G01*
G04 APERTURE LIST*
%ADD10C,0.050000*%
%ADD11C,0.200000*%
%ADD12C,0.140000*%
%ADD13C,0.100000*%
G04 APERTURE END LIST*
D10*
X12706000Y-11132000D02*
G75*
G02*
X16106000Y-11132000I1700000J0D01*
G01*
X12906000Y-11132000D02*
G75*
G02*
X15906000Y-11132000I1500000J0D01*
G01*
X3656000Y-8382000D02*
X24156000Y-8382000D01*
X24156000Y-11382000D01*
X3656000Y-11382000D01*
X3656000Y-8382000D01*
X16106000Y-11132000D02*
G75*
G02*
X15906000Y-11132000I-100000J0D01*
G01*
X12906000Y-11132000D02*
G75*
G02*
X12706000Y-11132000I-100000J0D01*
G01*
D11*
D12*
X9042500Y-9707950D02*
X9182500Y-9847950D01*
X9182500Y-9707950D02*
X9042500Y-9847950D01*
X9042500Y-9961950D02*
X9182500Y-10101950D01*
X9182500Y-9961950D02*
X9042500Y-10101950D01*
X9042500Y-10215950D02*
X9182500Y-10355950D01*
X9182500Y-10215950D02*
X9042500Y-10355950D01*
X9042500Y-10469950D02*
X9182500Y-10609950D01*
X9182500Y-10469950D02*
X9042500Y-10609950D01*
X9042500Y-10723950D02*
X9182500Y-10863950D01*
X9182500Y-10723950D02*
X9042500Y-10863950D01*
X9296500Y-9707950D02*
X9436500Y-9847950D01*
X9436500Y-9707950D02*
X9296500Y-9847950D01*
X9296500Y-9961950D02*
X9436500Y-10101950D01*
X9436500Y-9961950D02*
X9296500Y-10101950D01*
X9296500Y-10215950D02*
X9436500Y-10355950D01*
X9436500Y-10215950D02*
X9296500Y-10355950D01*
X9296500Y-10469950D02*
X9436500Y-10609950D01*
X9436500Y-10469950D02*
X9296500Y-10609950D01*
X9296500Y-10723950D02*
X9436500Y-10863950D01*
X9436500Y-10723950D02*
X9296500Y-10863950D01*
D11*
X23752429Y-9882000D02*
G75*
G02*
X23552429Y-9882000I-100000J0D01*
G01*
X23552429Y-9882000D02*
G75*
G02*
X23752429Y-9882000I100000J0D01*
G01*
D13*
X23552429Y-9582000D02*
X23552429Y-10182000D01*
X23752429Y-10182000D02*
G75*
G02*
X23552429Y-10182000I-100000J0D01*
G01*
X23752429Y-10182000D02*
X23752429Y-9582000D01*
X23752429Y-9582000D02*
G75*
G03*
X23552429Y-9582000I-100000J0D01*
G01*
D11*
X3914277Y-11695984D02*
X3914277Y-11495984D01*
X3914277Y-11495984D02*
X3961896Y-11495984D01*
X3961896Y-11495984D02*
X3990467Y-11505508D01*
X3990467Y-11505508D02*
X4009515Y-11524555D01*
X4009515Y-11524555D02*
X4019039Y-11543603D01*
X4019039Y-11543603D02*
X4028562Y-11581698D01*
X4028562Y-11581698D02*
X4028562Y-11610269D01*
X4028562Y-11610269D02*
X4019039Y-11648365D01*
X4019039Y-11648365D02*
X4009515Y-11667412D01*
X4009515Y-11667412D02*
X3990467Y-11686460D01*
X3990467Y-11686460D02*
X3961896Y-11695984D01*
X3961896Y-11695984D02*
X3914277Y-11695984D01*
X4114277Y-11695984D02*
X4114277Y-11562650D01*
X4114277Y-11600746D02*
X4123801Y-11581698D01*
X4123801Y-11581698D02*
X4133324Y-11572174D01*
X4133324Y-11572174D02*
X4152372Y-11562650D01*
X4152372Y-11562650D02*
X4171420Y-11562650D01*
X4238086Y-11695984D02*
X4238086Y-11562650D01*
X4238086Y-11495984D02*
X4228563Y-11505508D01*
X4228563Y-11505508D02*
X4238086Y-11515031D01*
X4238086Y-11515031D02*
X4247610Y-11505508D01*
X4247610Y-11505508D02*
X4238086Y-11495984D01*
X4238086Y-11495984D02*
X4238086Y-11515031D01*
X4361896Y-11695984D02*
X4342848Y-11686460D01*
X4342848Y-11686460D02*
X4333324Y-11667412D01*
X4333324Y-11667412D02*
X4333324Y-11495984D01*
X4466658Y-11695984D02*
X4447610Y-11686460D01*
X4447610Y-11686460D02*
X4438086Y-11667412D01*
X4438086Y-11667412D02*
X4438086Y-11495984D01*
X4695229Y-11695984D02*
X4695229Y-11495984D01*
X4695229Y-11495984D02*
X4761896Y-11638841D01*
X4761896Y-11638841D02*
X4828563Y-11495984D01*
X4828563Y-11495984D02*
X4828563Y-11695984D01*
X5009515Y-11695984D02*
X5009515Y-11591222D01*
X5009515Y-11591222D02*
X4999991Y-11572174D01*
X4999991Y-11572174D02*
X4980944Y-11562650D01*
X4980944Y-11562650D02*
X4942848Y-11562650D01*
X4942848Y-11562650D02*
X4923801Y-11572174D01*
X5009515Y-11686460D02*
X4990467Y-11695984D01*
X4990467Y-11695984D02*
X4942848Y-11695984D01*
X4942848Y-11695984D02*
X4923801Y-11686460D01*
X4923801Y-11686460D02*
X4914277Y-11667412D01*
X4914277Y-11667412D02*
X4914277Y-11648365D01*
X4914277Y-11648365D02*
X4923801Y-11629317D01*
X4923801Y-11629317D02*
X4942848Y-11619793D01*
X4942848Y-11619793D02*
X4990467Y-11619793D01*
X4990467Y-11619793D02*
X5009515Y-11610269D01*
X5104753Y-11562650D02*
X5104753Y-11762650D01*
X5104753Y-11572174D02*
X5123801Y-11562650D01*
X5123801Y-11562650D02*
X5161896Y-11562650D01*
X5161896Y-11562650D02*
X5180944Y-11572174D01*
X5180944Y-11572174D02*
X5190467Y-11581698D01*
X5190467Y-11581698D02*
X5199991Y-11600746D01*
X5199991Y-11600746D02*
X5199991Y-11657888D01*
X5199991Y-11657888D02*
X5190467Y-11676936D01*
X5190467Y-11676936D02*
X5180944Y-11686460D01*
X5180944Y-11686460D02*
X5161896Y-11695984D01*
X5161896Y-11695984D02*
X5123801Y-11695984D01*
X5123801Y-11695984D02*
X5104753Y-11686460D01*
X5285705Y-11676936D02*
X5295229Y-11686460D01*
X5295229Y-11686460D02*
X5285705Y-11695984D01*
X5285705Y-11695984D02*
X5276182Y-11686460D01*
X5276182Y-11686460D02*
X5285705Y-11676936D01*
X5285705Y-11676936D02*
X5285705Y-11695984D01*
X5285705Y-11572174D02*
X5295229Y-11581698D01*
X5295229Y-11581698D02*
X5285705Y-11591222D01*
X5285705Y-11591222D02*
X5276182Y-11581698D01*
X5276182Y-11581698D02*
X5285705Y-11572174D01*
X5285705Y-11572174D02*
X5285705Y-11591222D01*
D12*
X3513500Y-11954500D02*
X3653500Y-12094500D01*
X3653500Y-11954500D02*
X3513500Y-12094500D01*
D11*
X4019039Y-12115984D02*
X3904753Y-12115984D01*
X3961896Y-12115984D02*
X3961896Y-11915984D01*
X3961896Y-11915984D02*
X3942848Y-11944555D01*
X3942848Y-11944555D02*
X3923801Y-11963603D01*
X3923801Y-11963603D02*
X3904753Y-11973127D01*
X4104753Y-12096936D02*
X4114277Y-12106460D01*
X4114277Y-12106460D02*
X4104753Y-12115984D01*
X4104753Y-12115984D02*
X4095229Y-12106460D01*
X4095229Y-12106460D02*
X4104753Y-12096936D01*
X4104753Y-12096936D02*
X4104753Y-12115984D01*
X4285705Y-11982650D02*
X4285705Y-12115984D01*
X4238086Y-11906460D02*
X4190467Y-12049317D01*
X4190467Y-12049317D02*
X4314277Y-12049317D01*
X4428563Y-11915984D02*
X4447610Y-11915984D01*
X4447610Y-11915984D02*
X4466658Y-11925508D01*
X4466658Y-11925508D02*
X4476182Y-11935031D01*
X4476182Y-11935031D02*
X4485705Y-11954079D01*
X4485705Y-11954079D02*
X4495229Y-11992174D01*
X4495229Y-11992174D02*
X4495229Y-12039793D01*
X4495229Y-12039793D02*
X4485705Y-12077888D01*
X4485705Y-12077888D02*
X4476182Y-12096936D01*
X4476182Y-12096936D02*
X4466658Y-12106460D01*
X4466658Y-12106460D02*
X4447610Y-12115984D01*
X4447610Y-12115984D02*
X4428563Y-12115984D01*
X4428563Y-12115984D02*
X4409515Y-12106460D01*
X4409515Y-12106460D02*
X4399991Y-12096936D01*
X4399991Y-12096936D02*
X4390467Y-12077888D01*
X4390467Y-12077888D02*
X4380944Y-12039793D01*
X4380944Y-12039793D02*
X4380944Y-11992174D01*
X4380944Y-11992174D02*
X4390467Y-11954079D01*
X4390467Y-11954079D02*
X4399991Y-11935031D01*
X4399991Y-11935031D02*
X4409515Y-11925508D01*
X4409515Y-11925508D02*
X4428563Y-11915984D01*
X4619039Y-11915984D02*
X4638086Y-11915984D01*
X4638086Y-11915984D02*
X4657134Y-11925508D01*
X4657134Y-11925508D02*
X4666658Y-11935031D01*
X4666658Y-11935031D02*
X4676182Y-11954079D01*
X4676182Y-11954079D02*
X4685705Y-11992174D01*
X4685705Y-11992174D02*
X4685705Y-12039793D01*
X4685705Y-12039793D02*
X4676182Y-12077888D01*
X4676182Y-12077888D02*
X4666658Y-12096936D01*
X4666658Y-12096936D02*
X4657134Y-12106460D01*
X4657134Y-12106460D02*
X4638086Y-12115984D01*
X4638086Y-12115984D02*
X4619039Y-12115984D01*
X4619039Y-12115984D02*
X4599991Y-12106460D01*
X4599991Y-12106460D02*
X4590467Y-12096936D01*
X4590467Y-12096936D02*
X4580944Y-12077888D01*
X4580944Y-12077888D02*
X4571420Y-12039793D01*
X4571420Y-12039793D02*
X4571420Y-11992174D01*
X4571420Y-11992174D02*
X4580944Y-11954079D01*
X4580944Y-11954079D02*
X4590467Y-11935031D01*
X4590467Y-11935031D02*
X4599991Y-11925508D01*
X4599991Y-11925508D02*
X4619039Y-11915984D01*
X4771420Y-12115984D02*
X4771420Y-11982650D01*
X4771420Y-12001698D02*
X4780944Y-11992174D01*
X4780944Y-11992174D02*
X4799991Y-11982650D01*
X4799991Y-11982650D02*
X4828563Y-11982650D01*
X4828563Y-11982650D02*
X4847610Y-11992174D01*
X4847610Y-11992174D02*
X4857134Y-12011222D01*
X4857134Y-12011222D02*
X4857134Y-12115984D01*
X4857134Y-12011222D02*
X4866658Y-11992174D01*
X4866658Y-11992174D02*
X4885705Y-11982650D01*
X4885705Y-11982650D02*
X4914277Y-11982650D01*
X4914277Y-11982650D02*
X4933325Y-11992174D01*
X4933325Y-11992174D02*
X4942848Y-12011222D01*
X4942848Y-12011222D02*
X4942848Y-12115984D01*
X5038086Y-12115984D02*
X5038086Y-11982650D01*
X5038086Y-12001698D02*
X5047610Y-11992174D01*
X5047610Y-11992174D02*
X5066658Y-11982650D01*
X5066658Y-11982650D02*
X5095229Y-11982650D01*
X5095229Y-11982650D02*
X5114277Y-11992174D01*
X5114277Y-11992174D02*
X5123801Y-12011222D01*
X5123801Y-12011222D02*
X5123801Y-12115984D01*
X5123801Y-12011222D02*
X5133325Y-11992174D01*
X5133325Y-11992174D02*
X5152372Y-11982650D01*
X5152372Y-11982650D02*
X5180944Y-11982650D01*
X5180944Y-11982650D02*
X5199991Y-11992174D01*
X5199991Y-11992174D02*
X5209515Y-12011222D01*
X5209515Y-12011222D02*
X5209515Y-12115984D01*
X5599991Y-11906460D02*
X5428563Y-12163603D01*
X5857134Y-11915984D02*
X5876182Y-11915984D01*
X5876182Y-11915984D02*
X5895229Y-11925508D01*
X5895229Y-11925508D02*
X5904753Y-11935031D01*
X5904753Y-11935031D02*
X5914277Y-11954079D01*
X5914277Y-11954079D02*
X5923801Y-11992174D01*
X5923801Y-11992174D02*
X5923801Y-12039793D01*
X5923801Y-12039793D02*
X5914277Y-12077888D01*
X5914277Y-12077888D02*
X5904753Y-12096936D01*
X5904753Y-12096936D02*
X5895229Y-12106460D01*
X5895229Y-12106460D02*
X5876182Y-12115984D01*
X5876182Y-12115984D02*
X5857134Y-12115984D01*
X5857134Y-12115984D02*
X5838086Y-12106460D01*
X5838086Y-12106460D02*
X5828563Y-12096936D01*
X5828563Y-12096936D02*
X5819039Y-12077888D01*
X5819039Y-12077888D02*
X5809515Y-12039793D01*
X5809515Y-12039793D02*
X5809515Y-11992174D01*
X5809515Y-11992174D02*
X5819039Y-11954079D01*
X5819039Y-11954079D02*
X5828563Y-11935031D01*
X5828563Y-11935031D02*
X5838086Y-11925508D01*
X5838086Y-11925508D02*
X5857134Y-11915984D01*
X6009515Y-12096936D02*
X6019039Y-12106460D01*
X6019039Y-12106460D02*
X6009515Y-12115984D01*
X6009515Y-12115984D02*
X5999991Y-12106460D01*
X5999991Y-12106460D02*
X6009515Y-12096936D01*
X6009515Y-12096936D02*
X6009515Y-12115984D01*
X6142848Y-11915984D02*
X6161896Y-11915984D01*
X6161896Y-11915984D02*
X6180944Y-11925508D01*
X6180944Y-11925508D02*
X6190467Y-11935031D01*
X6190467Y-11935031D02*
X6199991Y-11954079D01*
X6199991Y-11954079D02*
X6209515Y-11992174D01*
X6209515Y-11992174D02*
X6209515Y-12039793D01*
X6209515Y-12039793D02*
X6199991Y-12077888D01*
X6199991Y-12077888D02*
X6190467Y-12096936D01*
X6190467Y-12096936D02*
X6180944Y-12106460D01*
X6180944Y-12106460D02*
X6161896Y-12115984D01*
X6161896Y-12115984D02*
X6142848Y-12115984D01*
X6142848Y-12115984D02*
X6123801Y-12106460D01*
X6123801Y-12106460D02*
X6114277Y-12096936D01*
X6114277Y-12096936D02*
X6104753Y-12077888D01*
X6104753Y-12077888D02*
X6095229Y-12039793D01*
X6095229Y-12039793D02*
X6095229Y-11992174D01*
X6095229Y-11992174D02*
X6104753Y-11954079D01*
X6104753Y-11954079D02*
X6114277Y-11935031D01*
X6114277Y-11935031D02*
X6123801Y-11925508D01*
X6123801Y-11925508D02*
X6142848Y-11915984D01*
X6390467Y-11915984D02*
X6295229Y-11915984D01*
X6295229Y-11915984D02*
X6285706Y-12011222D01*
X6285706Y-12011222D02*
X6295229Y-12001698D01*
X6295229Y-12001698D02*
X6314277Y-11992174D01*
X6314277Y-11992174D02*
X6361896Y-11992174D01*
X6361896Y-11992174D02*
X6380944Y-12001698D01*
X6380944Y-12001698D02*
X6390467Y-12011222D01*
X6390467Y-12011222D02*
X6399991Y-12030269D01*
X6399991Y-12030269D02*
X6399991Y-12077888D01*
X6399991Y-12077888D02*
X6390467Y-12096936D01*
X6390467Y-12096936D02*
X6380944Y-12106460D01*
X6380944Y-12106460D02*
X6361896Y-12115984D01*
X6361896Y-12115984D02*
X6314277Y-12115984D01*
X6314277Y-12115984D02*
X6295229Y-12106460D01*
X6295229Y-12106460D02*
X6285706Y-12096936D01*
X6580944Y-11915984D02*
X6485706Y-11915984D01*
X6485706Y-11915984D02*
X6476182Y-12011222D01*
X6476182Y-12011222D02*
X6485706Y-12001698D01*
X6485706Y-12001698D02*
X6504753Y-11992174D01*
X6504753Y-11992174D02*
X6552372Y-11992174D01*
X6552372Y-11992174D02*
X6571420Y-12001698D01*
X6571420Y-12001698D02*
X6580944Y-12011222D01*
X6580944Y-12011222D02*
X6590467Y-12030269D01*
X6590467Y-12030269D02*
X6590467Y-12077888D01*
X6590467Y-12077888D02*
X6580944Y-12096936D01*
X6580944Y-12096936D02*
X6571420Y-12106460D01*
X6571420Y-12106460D02*
X6552372Y-12115984D01*
X6552372Y-12115984D02*
X6504753Y-12115984D01*
X6504753Y-12115984D02*
X6485706Y-12106460D01*
X6485706Y-12106460D02*
X6476182Y-12096936D01*
X6780944Y-12115984D02*
X6666658Y-12115984D01*
X6723801Y-12115984D02*
X6723801Y-11915984D01*
X6723801Y-11915984D02*
X6704753Y-11944555D01*
X6704753Y-11944555D02*
X6685706Y-11963603D01*
X6685706Y-11963603D02*
X6666658Y-11973127D01*
X6857134Y-11915984D02*
X6857134Y-11954079D01*
X6933325Y-11915984D02*
X6933325Y-11954079D01*
X7228563Y-12192174D02*
X7219039Y-12182650D01*
X7219039Y-12182650D02*
X7199991Y-12154079D01*
X7199991Y-12154079D02*
X7190468Y-12135031D01*
X7190468Y-12135031D02*
X7180944Y-12106460D01*
X7180944Y-12106460D02*
X7171420Y-12058841D01*
X7171420Y-12058841D02*
X7171420Y-12020746D01*
X7171420Y-12020746D02*
X7180944Y-11973127D01*
X7180944Y-11973127D02*
X7190468Y-11944555D01*
X7190468Y-11944555D02*
X7199991Y-11925508D01*
X7199991Y-11925508D02*
X7219039Y-11896936D01*
X7219039Y-11896936D02*
X7228563Y-11887412D01*
X7409515Y-12115984D02*
X7295229Y-12115984D01*
X7352372Y-12115984D02*
X7352372Y-11915984D01*
X7352372Y-11915984D02*
X7333325Y-11944555D01*
X7333325Y-11944555D02*
X7314277Y-11963603D01*
X7314277Y-11963603D02*
X7295229Y-11973127D01*
X7533325Y-11915984D02*
X7552372Y-11915984D01*
X7552372Y-11915984D02*
X7571420Y-11925508D01*
X7571420Y-11925508D02*
X7580944Y-11935031D01*
X7580944Y-11935031D02*
X7590468Y-11954079D01*
X7590468Y-11954079D02*
X7599991Y-11992174D01*
X7599991Y-11992174D02*
X7599991Y-12039793D01*
X7599991Y-12039793D02*
X7590468Y-12077888D01*
X7590468Y-12077888D02*
X7580944Y-12096936D01*
X7580944Y-12096936D02*
X7571420Y-12106460D01*
X7571420Y-12106460D02*
X7552372Y-12115984D01*
X7552372Y-12115984D02*
X7533325Y-12115984D01*
X7533325Y-12115984D02*
X7514277Y-12106460D01*
X7514277Y-12106460D02*
X7504753Y-12096936D01*
X7504753Y-12096936D02*
X7495229Y-12077888D01*
X7495229Y-12077888D02*
X7485706Y-12039793D01*
X7485706Y-12039793D02*
X7485706Y-11992174D01*
X7485706Y-11992174D02*
X7495229Y-11954079D01*
X7495229Y-11954079D02*
X7504753Y-11935031D01*
X7504753Y-11935031D02*
X7514277Y-11925508D01*
X7514277Y-11925508D02*
X7533325Y-11915984D01*
X7838087Y-12115984D02*
X7838087Y-11915984D01*
X7923801Y-12115984D02*
X7923801Y-12011222D01*
X7923801Y-12011222D02*
X7914277Y-11992174D01*
X7914277Y-11992174D02*
X7895230Y-11982650D01*
X7895230Y-11982650D02*
X7866658Y-11982650D01*
X7866658Y-11982650D02*
X7847610Y-11992174D01*
X7847610Y-11992174D02*
X7838087Y-12001698D01*
X8047610Y-12115984D02*
X8028563Y-12106460D01*
X8028563Y-12106460D02*
X8019039Y-12096936D01*
X8019039Y-12096936D02*
X8009515Y-12077888D01*
X8009515Y-12077888D02*
X8009515Y-12020746D01*
X8009515Y-12020746D02*
X8019039Y-12001698D01*
X8019039Y-12001698D02*
X8028563Y-11992174D01*
X8028563Y-11992174D02*
X8047610Y-11982650D01*
X8047610Y-11982650D02*
X8076182Y-11982650D01*
X8076182Y-11982650D02*
X8095230Y-11992174D01*
X8095230Y-11992174D02*
X8104753Y-12001698D01*
X8104753Y-12001698D02*
X8114277Y-12020746D01*
X8114277Y-12020746D02*
X8114277Y-12077888D01*
X8114277Y-12077888D02*
X8104753Y-12096936D01*
X8104753Y-12096936D02*
X8095230Y-12106460D01*
X8095230Y-12106460D02*
X8076182Y-12115984D01*
X8076182Y-12115984D02*
X8047610Y-12115984D01*
X8228563Y-12115984D02*
X8209515Y-12106460D01*
X8209515Y-12106460D02*
X8199991Y-12087412D01*
X8199991Y-12087412D02*
X8199991Y-11915984D01*
X8380944Y-12106460D02*
X8361896Y-12115984D01*
X8361896Y-12115984D02*
X8323801Y-12115984D01*
X8323801Y-12115984D02*
X8304753Y-12106460D01*
X8304753Y-12106460D02*
X8295230Y-12087412D01*
X8295230Y-12087412D02*
X8295230Y-12011222D01*
X8295230Y-12011222D02*
X8304753Y-11992174D01*
X8304753Y-11992174D02*
X8323801Y-11982650D01*
X8323801Y-11982650D02*
X8361896Y-11982650D01*
X8361896Y-11982650D02*
X8380944Y-11992174D01*
X8380944Y-11992174D02*
X8390468Y-12011222D01*
X8390468Y-12011222D02*
X8390468Y-12030269D01*
X8390468Y-12030269D02*
X8295230Y-12049317D01*
X8466658Y-12106460D02*
X8485706Y-12115984D01*
X8485706Y-12115984D02*
X8523801Y-12115984D01*
X8523801Y-12115984D02*
X8542849Y-12106460D01*
X8542849Y-12106460D02*
X8552373Y-12087412D01*
X8552373Y-12087412D02*
X8552373Y-12077888D01*
X8552373Y-12077888D02*
X8542849Y-12058841D01*
X8542849Y-12058841D02*
X8523801Y-12049317D01*
X8523801Y-12049317D02*
X8495230Y-12049317D01*
X8495230Y-12049317D02*
X8476182Y-12039793D01*
X8476182Y-12039793D02*
X8466658Y-12020746D01*
X8466658Y-12020746D02*
X8466658Y-12011222D01*
X8466658Y-12011222D02*
X8476182Y-11992174D01*
X8476182Y-11992174D02*
X8495230Y-11982650D01*
X8495230Y-11982650D02*
X8523801Y-11982650D01*
X8523801Y-11982650D02*
X8542849Y-11992174D01*
X8619039Y-12192174D02*
X8628563Y-12182650D01*
X8628563Y-12182650D02*
X8647611Y-12154079D01*
X8647611Y-12154079D02*
X8657134Y-12135031D01*
X8657134Y-12135031D02*
X8666658Y-12106460D01*
X8666658Y-12106460D02*
X8676182Y-12058841D01*
X8676182Y-12058841D02*
X8676182Y-12020746D01*
X8676182Y-12020746D02*
X8666658Y-11973127D01*
X8666658Y-11973127D02*
X8657134Y-11944555D01*
X8657134Y-11944555D02*
X8647611Y-11925508D01*
X8647611Y-11925508D02*
X8628563Y-11896936D01*
X8628563Y-11896936D02*
X8619039Y-11887412D01*
X8980944Y-12192174D02*
X8971420Y-12182650D01*
X8971420Y-12182650D02*
X8952373Y-12154079D01*
X8952373Y-12154079D02*
X8942849Y-12135031D01*
X8942849Y-12135031D02*
X8933325Y-12106460D01*
X8933325Y-12106460D02*
X8923801Y-12058841D01*
X8923801Y-12058841D02*
X8923801Y-12020746D01*
X8923801Y-12020746D02*
X8933325Y-11973127D01*
X8933325Y-11973127D02*
X8942849Y-11944555D01*
X8942849Y-11944555D02*
X8952373Y-11925508D01*
X8952373Y-11925508D02*
X8971420Y-11896936D01*
X8971420Y-11896936D02*
X8980944Y-11887412D01*
X9057134Y-11982650D02*
X9057134Y-12115984D01*
X9057134Y-12001698D02*
X9066658Y-11992174D01*
X9066658Y-11992174D02*
X9085706Y-11982650D01*
X9085706Y-11982650D02*
X9114277Y-11982650D01*
X9114277Y-11982650D02*
X9133325Y-11992174D01*
X9133325Y-11992174D02*
X9142849Y-12011222D01*
X9142849Y-12011222D02*
X9142849Y-12115984D01*
X9266658Y-12115984D02*
X9247611Y-12106460D01*
X9247611Y-12106460D02*
X9238087Y-12096936D01*
X9238087Y-12096936D02*
X9228563Y-12077888D01*
X9228563Y-12077888D02*
X9228563Y-12020746D01*
X9228563Y-12020746D02*
X9238087Y-12001698D01*
X9238087Y-12001698D02*
X9247611Y-11992174D01*
X9247611Y-11992174D02*
X9266658Y-11982650D01*
X9266658Y-11982650D02*
X9295230Y-11982650D01*
X9295230Y-11982650D02*
X9314277Y-11992174D01*
X9314277Y-11992174D02*
X9323801Y-12001698D01*
X9323801Y-12001698D02*
X9333325Y-12020746D01*
X9333325Y-12020746D02*
X9333325Y-12077888D01*
X9333325Y-12077888D02*
X9323801Y-12096936D01*
X9323801Y-12096936D02*
X9314277Y-12106460D01*
X9314277Y-12106460D02*
X9295230Y-12115984D01*
X9295230Y-12115984D02*
X9266658Y-12115984D01*
X9390468Y-11982650D02*
X9466658Y-11982650D01*
X9419039Y-11915984D02*
X9419039Y-12087412D01*
X9419039Y-12087412D02*
X9428563Y-12106460D01*
X9428563Y-12106460D02*
X9447611Y-12115984D01*
X9447611Y-12115984D02*
X9466658Y-12115984D01*
X9685706Y-11982650D02*
X9685706Y-12182650D01*
X9685706Y-11992174D02*
X9704754Y-11982650D01*
X9704754Y-11982650D02*
X9742849Y-11982650D01*
X9742849Y-11982650D02*
X9761896Y-11992174D01*
X9761896Y-11992174D02*
X9771420Y-12001698D01*
X9771420Y-12001698D02*
X9780944Y-12020746D01*
X9780944Y-12020746D02*
X9780944Y-12077888D01*
X9780944Y-12077888D02*
X9771420Y-12096936D01*
X9771420Y-12096936D02*
X9761896Y-12106460D01*
X9761896Y-12106460D02*
X9742849Y-12115984D01*
X9742849Y-12115984D02*
X9704754Y-12115984D01*
X9704754Y-12115984D02*
X9685706Y-12106460D01*
X9895230Y-12115984D02*
X9876182Y-12106460D01*
X9876182Y-12106460D02*
X9866658Y-12087412D01*
X9866658Y-12087412D02*
X9866658Y-11915984D01*
X10057135Y-12115984D02*
X10057135Y-12011222D01*
X10057135Y-12011222D02*
X10047611Y-11992174D01*
X10047611Y-11992174D02*
X10028563Y-11982650D01*
X10028563Y-11982650D02*
X9990468Y-11982650D01*
X9990468Y-11982650D02*
X9971420Y-11992174D01*
X10057135Y-12106460D02*
X10038087Y-12115984D01*
X10038087Y-12115984D02*
X9990468Y-12115984D01*
X9990468Y-12115984D02*
X9971420Y-12106460D01*
X9971420Y-12106460D02*
X9961896Y-12087412D01*
X9961896Y-12087412D02*
X9961896Y-12068365D01*
X9961896Y-12068365D02*
X9971420Y-12049317D01*
X9971420Y-12049317D02*
X9990468Y-12039793D01*
X9990468Y-12039793D02*
X10038087Y-12039793D01*
X10038087Y-12039793D02*
X10057135Y-12030269D01*
X10123801Y-11982650D02*
X10199992Y-11982650D01*
X10152373Y-11915984D02*
X10152373Y-12087412D01*
X10152373Y-12087412D02*
X10161896Y-12106460D01*
X10161896Y-12106460D02*
X10180944Y-12115984D01*
X10180944Y-12115984D02*
X10199992Y-12115984D01*
X10342849Y-12106460D02*
X10323801Y-12115984D01*
X10323801Y-12115984D02*
X10285706Y-12115984D01*
X10285706Y-12115984D02*
X10266658Y-12106460D01*
X10266658Y-12106460D02*
X10257135Y-12087412D01*
X10257135Y-12087412D02*
X10257135Y-12011222D01*
X10257135Y-12011222D02*
X10266658Y-11992174D01*
X10266658Y-11992174D02*
X10285706Y-11982650D01*
X10285706Y-11982650D02*
X10323801Y-11982650D01*
X10323801Y-11982650D02*
X10342849Y-11992174D01*
X10342849Y-11992174D02*
X10352373Y-12011222D01*
X10352373Y-12011222D02*
X10352373Y-12030269D01*
X10352373Y-12030269D02*
X10257135Y-12049317D01*
X10523801Y-12115984D02*
X10523801Y-11915984D01*
X10523801Y-12106460D02*
X10504754Y-12115984D01*
X10504754Y-12115984D02*
X10466658Y-12115984D01*
X10466658Y-12115984D02*
X10447611Y-12106460D01*
X10447611Y-12106460D02*
X10438087Y-12096936D01*
X10438087Y-12096936D02*
X10428563Y-12077888D01*
X10428563Y-12077888D02*
X10428563Y-12020746D01*
X10428563Y-12020746D02*
X10438087Y-12001698D01*
X10438087Y-12001698D02*
X10447611Y-11992174D01*
X10447611Y-11992174D02*
X10466658Y-11982650D01*
X10466658Y-11982650D02*
X10504754Y-11982650D01*
X10504754Y-11982650D02*
X10523801Y-11992174D01*
X10599992Y-12192174D02*
X10609516Y-12182650D01*
X10609516Y-12182650D02*
X10628563Y-12154079D01*
X10628563Y-12154079D02*
X10638087Y-12135031D01*
X10638087Y-12135031D02*
X10647611Y-12106460D01*
X10647611Y-12106460D02*
X10657135Y-12058841D01*
X10657135Y-12058841D02*
X10657135Y-12020746D01*
X10657135Y-12020746D02*
X10647611Y-11973127D01*
X10647611Y-11973127D02*
X10638087Y-11944555D01*
X10638087Y-11944555D02*
X10628563Y-11925508D01*
X10628563Y-11925508D02*
X10609516Y-11896936D01*
X10609516Y-11896936D02*
X10599992Y-11887412D01*
X3653500Y-12288500D02*
G75*
G02*
X3453500Y-12288500I-100000J0D01*
G01*
X3453500Y-12288500D02*
G75*
G02*
X3653500Y-12288500I100000J0D01*
G01*
X3904753Y-12199031D02*
X3914277Y-12189508D01*
X3914277Y-12189508D02*
X3933324Y-12179984D01*
X3933324Y-12179984D02*
X3980943Y-12179984D01*
X3980943Y-12179984D02*
X3999991Y-12189508D01*
X3999991Y-12189508D02*
X4009515Y-12199031D01*
X4009515Y-12199031D02*
X4019039Y-12218079D01*
X4019039Y-12218079D02*
X4019039Y-12237127D01*
X4019039Y-12237127D02*
X4009515Y-12265698D01*
X4009515Y-12265698D02*
X3895229Y-12379984D01*
X3895229Y-12379984D02*
X4019039Y-12379984D01*
X4104753Y-12360936D02*
X4114277Y-12370460D01*
X4114277Y-12370460D02*
X4104753Y-12379984D01*
X4104753Y-12379984D02*
X4095229Y-12370460D01*
X4095229Y-12370460D02*
X4104753Y-12360936D01*
X4104753Y-12360936D02*
X4104753Y-12379984D01*
X4238086Y-12179984D02*
X4257134Y-12179984D01*
X4257134Y-12179984D02*
X4276182Y-12189508D01*
X4276182Y-12189508D02*
X4285705Y-12199031D01*
X4285705Y-12199031D02*
X4295229Y-12218079D01*
X4295229Y-12218079D02*
X4304753Y-12256174D01*
X4304753Y-12256174D02*
X4304753Y-12303793D01*
X4304753Y-12303793D02*
X4295229Y-12341888D01*
X4295229Y-12341888D02*
X4285705Y-12360936D01*
X4285705Y-12360936D02*
X4276182Y-12370460D01*
X4276182Y-12370460D02*
X4257134Y-12379984D01*
X4257134Y-12379984D02*
X4238086Y-12379984D01*
X4238086Y-12379984D02*
X4219039Y-12370460D01*
X4219039Y-12370460D02*
X4209515Y-12360936D01*
X4209515Y-12360936D02*
X4199991Y-12341888D01*
X4199991Y-12341888D02*
X4190467Y-12303793D01*
X4190467Y-12303793D02*
X4190467Y-12256174D01*
X4190467Y-12256174D02*
X4199991Y-12218079D01*
X4199991Y-12218079D02*
X4209515Y-12199031D01*
X4209515Y-12199031D02*
X4219039Y-12189508D01*
X4219039Y-12189508D02*
X4238086Y-12179984D01*
X4428563Y-12179984D02*
X4447610Y-12179984D01*
X4447610Y-12179984D02*
X4466658Y-12189508D01*
X4466658Y-12189508D02*
X4476182Y-12199031D01*
X4476182Y-12199031D02*
X4485705Y-12218079D01*
X4485705Y-12218079D02*
X4495229Y-12256174D01*
X4495229Y-12256174D02*
X4495229Y-12303793D01*
X4495229Y-12303793D02*
X4485705Y-12341888D01*
X4485705Y-12341888D02*
X4476182Y-12360936D01*
X4476182Y-12360936D02*
X4466658Y-12370460D01*
X4466658Y-12370460D02*
X4447610Y-12379984D01*
X4447610Y-12379984D02*
X4428563Y-12379984D01*
X4428563Y-12379984D02*
X4409515Y-12370460D01*
X4409515Y-12370460D02*
X4399991Y-12360936D01*
X4399991Y-12360936D02*
X4390467Y-12341888D01*
X4390467Y-12341888D02*
X4380944Y-12303793D01*
X4380944Y-12303793D02*
X4380944Y-12256174D01*
X4380944Y-12256174D02*
X4390467Y-12218079D01*
X4390467Y-12218079D02*
X4399991Y-12199031D01*
X4399991Y-12199031D02*
X4409515Y-12189508D01*
X4409515Y-12189508D02*
X4428563Y-12179984D01*
X4619039Y-12179984D02*
X4638086Y-12179984D01*
X4638086Y-12179984D02*
X4657134Y-12189508D01*
X4657134Y-12189508D02*
X4666658Y-12199031D01*
X4666658Y-12199031D02*
X4676182Y-12218079D01*
X4676182Y-12218079D02*
X4685705Y-12256174D01*
X4685705Y-12256174D02*
X4685705Y-12303793D01*
X4685705Y-12303793D02*
X4676182Y-12341888D01*
X4676182Y-12341888D02*
X4666658Y-12360936D01*
X4666658Y-12360936D02*
X4657134Y-12370460D01*
X4657134Y-12370460D02*
X4638086Y-12379984D01*
X4638086Y-12379984D02*
X4619039Y-12379984D01*
X4619039Y-12379984D02*
X4599991Y-12370460D01*
X4599991Y-12370460D02*
X4590467Y-12360936D01*
X4590467Y-12360936D02*
X4580944Y-12341888D01*
X4580944Y-12341888D02*
X4571420Y-12303793D01*
X4571420Y-12303793D02*
X4571420Y-12256174D01*
X4571420Y-12256174D02*
X4580944Y-12218079D01*
X4580944Y-12218079D02*
X4590467Y-12199031D01*
X4590467Y-12199031D02*
X4599991Y-12189508D01*
X4599991Y-12189508D02*
X4619039Y-12179984D01*
X4771420Y-12379984D02*
X4771420Y-12246650D01*
X4771420Y-12265698D02*
X4780944Y-12256174D01*
X4780944Y-12256174D02*
X4799991Y-12246650D01*
X4799991Y-12246650D02*
X4828563Y-12246650D01*
X4828563Y-12246650D02*
X4847610Y-12256174D01*
X4847610Y-12256174D02*
X4857134Y-12275222D01*
X4857134Y-12275222D02*
X4857134Y-12379984D01*
X4857134Y-12275222D02*
X4866658Y-12256174D01*
X4866658Y-12256174D02*
X4885705Y-12246650D01*
X4885705Y-12246650D02*
X4914277Y-12246650D01*
X4914277Y-12246650D02*
X4933325Y-12256174D01*
X4933325Y-12256174D02*
X4942848Y-12275222D01*
X4942848Y-12275222D02*
X4942848Y-12379984D01*
X5038086Y-12379984D02*
X5038086Y-12246650D01*
X5038086Y-12265698D02*
X5047610Y-12256174D01*
X5047610Y-12256174D02*
X5066658Y-12246650D01*
X5066658Y-12246650D02*
X5095229Y-12246650D01*
X5095229Y-12246650D02*
X5114277Y-12256174D01*
X5114277Y-12256174D02*
X5123801Y-12275222D01*
X5123801Y-12275222D02*
X5123801Y-12379984D01*
X5123801Y-12275222D02*
X5133325Y-12256174D01*
X5133325Y-12256174D02*
X5152372Y-12246650D01*
X5152372Y-12246650D02*
X5180944Y-12246650D01*
X5180944Y-12246650D02*
X5199991Y-12256174D01*
X5199991Y-12256174D02*
X5209515Y-12275222D01*
X5209515Y-12275222D02*
X5209515Y-12379984D01*
X5599991Y-12170460D02*
X5428563Y-12427603D01*
X5857134Y-12179984D02*
X5876182Y-12179984D01*
X5876182Y-12179984D02*
X5895229Y-12189508D01*
X5895229Y-12189508D02*
X5904753Y-12199031D01*
X5904753Y-12199031D02*
X5914277Y-12218079D01*
X5914277Y-12218079D02*
X5923801Y-12256174D01*
X5923801Y-12256174D02*
X5923801Y-12303793D01*
X5923801Y-12303793D02*
X5914277Y-12341888D01*
X5914277Y-12341888D02*
X5904753Y-12360936D01*
X5904753Y-12360936D02*
X5895229Y-12370460D01*
X5895229Y-12370460D02*
X5876182Y-12379984D01*
X5876182Y-12379984D02*
X5857134Y-12379984D01*
X5857134Y-12379984D02*
X5838086Y-12370460D01*
X5838086Y-12370460D02*
X5828563Y-12360936D01*
X5828563Y-12360936D02*
X5819039Y-12341888D01*
X5819039Y-12341888D02*
X5809515Y-12303793D01*
X5809515Y-12303793D02*
X5809515Y-12256174D01*
X5809515Y-12256174D02*
X5819039Y-12218079D01*
X5819039Y-12218079D02*
X5828563Y-12199031D01*
X5828563Y-12199031D02*
X5838086Y-12189508D01*
X5838086Y-12189508D02*
X5857134Y-12179984D01*
X6009515Y-12360936D02*
X6019039Y-12370460D01*
X6019039Y-12370460D02*
X6009515Y-12379984D01*
X6009515Y-12379984D02*
X5999991Y-12370460D01*
X5999991Y-12370460D02*
X6009515Y-12360936D01*
X6009515Y-12360936D02*
X6009515Y-12379984D01*
X6142848Y-12179984D02*
X6161896Y-12179984D01*
X6161896Y-12179984D02*
X6180944Y-12189508D01*
X6180944Y-12189508D02*
X6190467Y-12199031D01*
X6190467Y-12199031D02*
X6199991Y-12218079D01*
X6199991Y-12218079D02*
X6209515Y-12256174D01*
X6209515Y-12256174D02*
X6209515Y-12303793D01*
X6209515Y-12303793D02*
X6199991Y-12341888D01*
X6199991Y-12341888D02*
X6190467Y-12360936D01*
X6190467Y-12360936D02*
X6180944Y-12370460D01*
X6180944Y-12370460D02*
X6161896Y-12379984D01*
X6161896Y-12379984D02*
X6142848Y-12379984D01*
X6142848Y-12379984D02*
X6123801Y-12370460D01*
X6123801Y-12370460D02*
X6114277Y-12360936D01*
X6114277Y-12360936D02*
X6104753Y-12341888D01*
X6104753Y-12341888D02*
X6095229Y-12303793D01*
X6095229Y-12303793D02*
X6095229Y-12256174D01*
X6095229Y-12256174D02*
X6104753Y-12218079D01*
X6104753Y-12218079D02*
X6114277Y-12199031D01*
X6114277Y-12199031D02*
X6123801Y-12189508D01*
X6123801Y-12189508D02*
X6142848Y-12179984D01*
X6276182Y-12179984D02*
X6409515Y-12179984D01*
X6409515Y-12179984D02*
X6323801Y-12379984D01*
X6514277Y-12265698D02*
X6495229Y-12256174D01*
X6495229Y-12256174D02*
X6485706Y-12246650D01*
X6485706Y-12246650D02*
X6476182Y-12227603D01*
X6476182Y-12227603D02*
X6476182Y-12218079D01*
X6476182Y-12218079D02*
X6485706Y-12199031D01*
X6485706Y-12199031D02*
X6495229Y-12189508D01*
X6495229Y-12189508D02*
X6514277Y-12179984D01*
X6514277Y-12179984D02*
X6552372Y-12179984D01*
X6552372Y-12179984D02*
X6571420Y-12189508D01*
X6571420Y-12189508D02*
X6580944Y-12199031D01*
X6580944Y-12199031D02*
X6590467Y-12218079D01*
X6590467Y-12218079D02*
X6590467Y-12227603D01*
X6590467Y-12227603D02*
X6580944Y-12246650D01*
X6580944Y-12246650D02*
X6571420Y-12256174D01*
X6571420Y-12256174D02*
X6552372Y-12265698D01*
X6552372Y-12265698D02*
X6514277Y-12265698D01*
X6514277Y-12265698D02*
X6495229Y-12275222D01*
X6495229Y-12275222D02*
X6485706Y-12284746D01*
X6485706Y-12284746D02*
X6476182Y-12303793D01*
X6476182Y-12303793D02*
X6476182Y-12341888D01*
X6476182Y-12341888D02*
X6485706Y-12360936D01*
X6485706Y-12360936D02*
X6495229Y-12370460D01*
X6495229Y-12370460D02*
X6514277Y-12379984D01*
X6514277Y-12379984D02*
X6552372Y-12379984D01*
X6552372Y-12379984D02*
X6571420Y-12370460D01*
X6571420Y-12370460D02*
X6580944Y-12360936D01*
X6580944Y-12360936D02*
X6590467Y-12341888D01*
X6590467Y-12341888D02*
X6590467Y-12303793D01*
X6590467Y-12303793D02*
X6580944Y-12284746D01*
X6580944Y-12284746D02*
X6571420Y-12275222D01*
X6571420Y-12275222D02*
X6552372Y-12265698D01*
X6657134Y-12179984D02*
X6790467Y-12179984D01*
X6790467Y-12179984D02*
X6704753Y-12379984D01*
X6857134Y-12179984D02*
X6857134Y-12218079D01*
X6933325Y-12179984D02*
X6933325Y-12218079D01*
X7228563Y-12456174D02*
X7219039Y-12446650D01*
X7219039Y-12446650D02*
X7199991Y-12418079D01*
X7199991Y-12418079D02*
X7190468Y-12399031D01*
X7190468Y-12399031D02*
X7180944Y-12370460D01*
X7180944Y-12370460D02*
X7171420Y-12322841D01*
X7171420Y-12322841D02*
X7171420Y-12284746D01*
X7171420Y-12284746D02*
X7180944Y-12237127D01*
X7180944Y-12237127D02*
X7190468Y-12208555D01*
X7190468Y-12208555D02*
X7199991Y-12189508D01*
X7199991Y-12189508D02*
X7219039Y-12160936D01*
X7219039Y-12160936D02*
X7228563Y-12151412D01*
X7409515Y-12379984D02*
X7295229Y-12379984D01*
X7352372Y-12379984D02*
X7352372Y-12179984D01*
X7352372Y-12179984D02*
X7333325Y-12208555D01*
X7333325Y-12208555D02*
X7314277Y-12227603D01*
X7314277Y-12227603D02*
X7295229Y-12237127D01*
X7638087Y-12370460D02*
X7657134Y-12379984D01*
X7657134Y-12379984D02*
X7695229Y-12379984D01*
X7695229Y-12379984D02*
X7714277Y-12370460D01*
X7714277Y-12370460D02*
X7723801Y-12351412D01*
X7723801Y-12351412D02*
X7723801Y-12341888D01*
X7723801Y-12341888D02*
X7714277Y-12322841D01*
X7714277Y-12322841D02*
X7695229Y-12313317D01*
X7695229Y-12313317D02*
X7666658Y-12313317D01*
X7666658Y-12313317D02*
X7647610Y-12303793D01*
X7647610Y-12303793D02*
X7638087Y-12284746D01*
X7638087Y-12284746D02*
X7638087Y-12275222D01*
X7638087Y-12275222D02*
X7647610Y-12256174D01*
X7647610Y-12256174D02*
X7666658Y-12246650D01*
X7666658Y-12246650D02*
X7695229Y-12246650D01*
X7695229Y-12246650D02*
X7714277Y-12256174D01*
X7838087Y-12379984D02*
X7819039Y-12370460D01*
X7819039Y-12370460D02*
X7809515Y-12351412D01*
X7809515Y-12351412D02*
X7809515Y-12179984D01*
X7942849Y-12379984D02*
X7923801Y-12370460D01*
X7923801Y-12370460D02*
X7914277Y-12360936D01*
X7914277Y-12360936D02*
X7904753Y-12341888D01*
X7904753Y-12341888D02*
X7904753Y-12284746D01*
X7904753Y-12284746D02*
X7914277Y-12265698D01*
X7914277Y-12265698D02*
X7923801Y-12256174D01*
X7923801Y-12256174D02*
X7942849Y-12246650D01*
X7942849Y-12246650D02*
X7971420Y-12246650D01*
X7971420Y-12246650D02*
X7990468Y-12256174D01*
X7990468Y-12256174D02*
X7999991Y-12265698D01*
X7999991Y-12265698D02*
X8009515Y-12284746D01*
X8009515Y-12284746D02*
X8009515Y-12341888D01*
X8009515Y-12341888D02*
X7999991Y-12360936D01*
X7999991Y-12360936D02*
X7990468Y-12370460D01*
X7990468Y-12370460D02*
X7971420Y-12379984D01*
X7971420Y-12379984D02*
X7942849Y-12379984D01*
X8066658Y-12246650D02*
X8142849Y-12246650D01*
X8095230Y-12179984D02*
X8095230Y-12351412D01*
X8095230Y-12351412D02*
X8104753Y-12370460D01*
X8104753Y-12370460D02*
X8123801Y-12379984D01*
X8123801Y-12379984D02*
X8142849Y-12379984D01*
X8190468Y-12456174D02*
X8199991Y-12446650D01*
X8199991Y-12446650D02*
X8219039Y-12418079D01*
X8219039Y-12418079D02*
X8228563Y-12399031D01*
X8228563Y-12399031D02*
X8238087Y-12370460D01*
X8238087Y-12370460D02*
X8247610Y-12322841D01*
X8247610Y-12322841D02*
X8247610Y-12284746D01*
X8247610Y-12284746D02*
X8238087Y-12237127D01*
X8238087Y-12237127D02*
X8228563Y-12208555D01*
X8228563Y-12208555D02*
X8219039Y-12189508D01*
X8219039Y-12189508D02*
X8199991Y-12160936D01*
X8199991Y-12160936D02*
X8190468Y-12151412D01*
X8552373Y-12456174D02*
X8542849Y-12446650D01*
X8542849Y-12446650D02*
X8523801Y-12418079D01*
X8523801Y-12418079D02*
X8514277Y-12399031D01*
X8514277Y-12399031D02*
X8504753Y-12370460D01*
X8504753Y-12370460D02*
X8495230Y-12322841D01*
X8495230Y-12322841D02*
X8495230Y-12284746D01*
X8495230Y-12284746D02*
X8504753Y-12237127D01*
X8504753Y-12237127D02*
X8514277Y-12208555D01*
X8514277Y-12208555D02*
X8523801Y-12189508D01*
X8523801Y-12189508D02*
X8542849Y-12160936D01*
X8542849Y-12160936D02*
X8552373Y-12151412D01*
X8628563Y-12246650D02*
X8628563Y-12379984D01*
X8628563Y-12265698D02*
X8638087Y-12256174D01*
X8638087Y-12256174D02*
X8657134Y-12246650D01*
X8657134Y-12246650D02*
X8685706Y-12246650D01*
X8685706Y-12246650D02*
X8704753Y-12256174D01*
X8704753Y-12256174D02*
X8714277Y-12275222D01*
X8714277Y-12275222D02*
X8714277Y-12379984D01*
X8838087Y-12379984D02*
X8819039Y-12370460D01*
X8819039Y-12370460D02*
X8809515Y-12360936D01*
X8809515Y-12360936D02*
X8799992Y-12341888D01*
X8799992Y-12341888D02*
X8799992Y-12284746D01*
X8799992Y-12284746D02*
X8809515Y-12265698D01*
X8809515Y-12265698D02*
X8819039Y-12256174D01*
X8819039Y-12256174D02*
X8838087Y-12246650D01*
X8838087Y-12246650D02*
X8866658Y-12246650D01*
X8866658Y-12246650D02*
X8885706Y-12256174D01*
X8885706Y-12256174D02*
X8895230Y-12265698D01*
X8895230Y-12265698D02*
X8904753Y-12284746D01*
X8904753Y-12284746D02*
X8904753Y-12341888D01*
X8904753Y-12341888D02*
X8895230Y-12360936D01*
X8895230Y-12360936D02*
X8885706Y-12370460D01*
X8885706Y-12370460D02*
X8866658Y-12379984D01*
X8866658Y-12379984D02*
X8838087Y-12379984D01*
X8961896Y-12246650D02*
X9038087Y-12246650D01*
X8990468Y-12179984D02*
X8990468Y-12351412D01*
X8990468Y-12351412D02*
X8999992Y-12370460D01*
X8999992Y-12370460D02*
X9019039Y-12379984D01*
X9019039Y-12379984D02*
X9038087Y-12379984D01*
X9257134Y-12246650D02*
X9257134Y-12446650D01*
X9257134Y-12256174D02*
X9276182Y-12246650D01*
X9276182Y-12246650D02*
X9314277Y-12246650D01*
X9314277Y-12246650D02*
X9333325Y-12256174D01*
X9333325Y-12256174D02*
X9342849Y-12265698D01*
X9342849Y-12265698D02*
X9352373Y-12284746D01*
X9352373Y-12284746D02*
X9352373Y-12341888D01*
X9352373Y-12341888D02*
X9342849Y-12360936D01*
X9342849Y-12360936D02*
X9333325Y-12370460D01*
X9333325Y-12370460D02*
X9314277Y-12379984D01*
X9314277Y-12379984D02*
X9276182Y-12379984D01*
X9276182Y-12379984D02*
X9257134Y-12370460D01*
X9466658Y-12379984D02*
X9447611Y-12370460D01*
X9447611Y-12370460D02*
X9438087Y-12351412D01*
X9438087Y-12351412D02*
X9438087Y-12179984D01*
X9628563Y-12379984D02*
X9628563Y-12275222D01*
X9628563Y-12275222D02*
X9619039Y-12256174D01*
X9619039Y-12256174D02*
X9599992Y-12246650D01*
X9599992Y-12246650D02*
X9561896Y-12246650D01*
X9561896Y-12246650D02*
X9542849Y-12256174D01*
X9628563Y-12370460D02*
X9609515Y-12379984D01*
X9609515Y-12379984D02*
X9561896Y-12379984D01*
X9561896Y-12379984D02*
X9542849Y-12370460D01*
X9542849Y-12370460D02*
X9533325Y-12351412D01*
X9533325Y-12351412D02*
X9533325Y-12332365D01*
X9533325Y-12332365D02*
X9542849Y-12313317D01*
X9542849Y-12313317D02*
X9561896Y-12303793D01*
X9561896Y-12303793D02*
X9609515Y-12303793D01*
X9609515Y-12303793D02*
X9628563Y-12294269D01*
X9695230Y-12246650D02*
X9771420Y-12246650D01*
X9723801Y-12179984D02*
X9723801Y-12351412D01*
X9723801Y-12351412D02*
X9733325Y-12370460D01*
X9733325Y-12370460D02*
X9752373Y-12379984D01*
X9752373Y-12379984D02*
X9771420Y-12379984D01*
X9914277Y-12370460D02*
X9895230Y-12379984D01*
X9895230Y-12379984D02*
X9857134Y-12379984D01*
X9857134Y-12379984D02*
X9838087Y-12370460D01*
X9838087Y-12370460D02*
X9828563Y-12351412D01*
X9828563Y-12351412D02*
X9828563Y-12275222D01*
X9828563Y-12275222D02*
X9838087Y-12256174D01*
X9838087Y-12256174D02*
X9857134Y-12246650D01*
X9857134Y-12246650D02*
X9895230Y-12246650D01*
X9895230Y-12246650D02*
X9914277Y-12256174D01*
X9914277Y-12256174D02*
X9923801Y-12275222D01*
X9923801Y-12275222D02*
X9923801Y-12294269D01*
X9923801Y-12294269D02*
X9828563Y-12313317D01*
X10095230Y-12379984D02*
X10095230Y-12179984D01*
X10095230Y-12370460D02*
X10076182Y-12379984D01*
X10076182Y-12379984D02*
X10038087Y-12379984D01*
X10038087Y-12379984D02*
X10019039Y-12370460D01*
X10019039Y-12370460D02*
X10009515Y-12360936D01*
X10009515Y-12360936D02*
X9999992Y-12341888D01*
X9999992Y-12341888D02*
X9999992Y-12284746D01*
X9999992Y-12284746D02*
X10009515Y-12265698D01*
X10009515Y-12265698D02*
X10019039Y-12256174D01*
X10019039Y-12256174D02*
X10038087Y-12246650D01*
X10038087Y-12246650D02*
X10076182Y-12246650D01*
X10076182Y-12246650D02*
X10095230Y-12256174D01*
X10171420Y-12456174D02*
X10180944Y-12446650D01*
X10180944Y-12446650D02*
X10199992Y-12418079D01*
X10199992Y-12418079D02*
X10209515Y-12399031D01*
X10209515Y-12399031D02*
X10219039Y-12370460D01*
X10219039Y-12370460D02*
X10228563Y-12322841D01*
X10228563Y-12322841D02*
X10228563Y-12284746D01*
X10228563Y-12284746D02*
X10219039Y-12237127D01*
X10219039Y-12237127D02*
X10209515Y-12208555D01*
X10209515Y-12208555D02*
X10199992Y-12189508D01*
X10199992Y-12189508D02*
X10180944Y-12160936D01*
X10180944Y-12160936D02*
X10171420Y-12151412D01*
M02*
