G04 #@! TF.GenerationSoftware,KiCad,Pcbnew,8.0.4*
G04 #@! TF.CreationDate,2024-07-25T21:49:05+08:00*
G04 #@! TF.ProjectId,epd-pcb-ruler,6570642d-7063-4622-9d72-756c65722e6b,rev?*
G04 #@! TF.SameCoordinates,Original*
G04 #@! TF.FileFunction,Copper,L2,Bot*
G04 #@! TF.FilePolarity,Positive*
%FSLAX46Y46*%
G04 Gerber Fmt 4.6, Leading zero omitted, Abs format (unit mm)*
G04 Created by KiCad (PCBNEW 8.0.4) date 2024-07-25 21:49:05*
%MOMM*%
%LPD*%
G01*
G04 APERTURE LIST*
G04 Aperture macros list*
%AMRoundRect*
0 Rectangle with rounded corners*
0 $1 Rounding radius*
0 $2 $3 $4 $5 $6 $7 $8 $9 X,Y pos of 4 corners*
0 Add a 4 corners polygon primitive as box body*
4,1,4,$2,$3,$4,$5,$6,$7,$8,$9,$2,$3,0*
0 Add four circle primitives for the rounded corners*
1,1,$1+$1,$2,$3*
1,1,$1+$1,$4,$5*
1,1,$1+$1,$6,$7*
1,1,$1+$1,$8,$9*
0 Add four rect primitives between the rounded corners*
20,1,$1+$1,$2,$3,$4,$5,0*
20,1,$1+$1,$4,$5,$6,$7,0*
20,1,$1+$1,$6,$7,$8,$9,0*
20,1,$1+$1,$8,$9,$2,$3,0*%
G04 Aperture macros list end*
G04 #@! TA.AperFunction,ComponentPad*
%ADD10C,1.400000*%
G04 #@! TD*
G04 #@! TA.AperFunction,WasherPad*
%ADD11RoundRect,2.000000X-0.000010X-3.000000X0.000010X-3.000000X0.000010X3.000000X-0.000010X3.000000X0*%
G04 #@! TD*
G04 #@! TA.AperFunction,ComponentPad*
%ADD12C,9.200000*%
G04 #@! TD*
G04 #@! TA.AperFunction,ComponentPad*
%ADD13C,3.800000*%
G04 #@! TD*
G04 #@! TA.AperFunction,ComponentPad*
%ADD14C,1.600000*%
G04 #@! TD*
G04 #@! TA.AperFunction,ComponentPad*
%ADD15O,1.600000X1.600000*%
G04 #@! TD*
G04 #@! TA.AperFunction,ComponentPad*
%ADD16C,5.600000*%
G04 #@! TD*
G04 #@! TA.AperFunction,ComponentPad*
%ADD17C,4.700000*%
G04 #@! TD*
G04 #@! TA.AperFunction,ComponentPad*
%ADD18C,7.500000*%
G04 #@! TD*
G04 #@! TA.AperFunction,ViaPad*
%ADD19C,1.700000*%
G04 #@! TD*
G04 APERTURE END LIST*
D10*
X78425000Y-97779500D03*
X78425000Y-100319500D03*
X78425000Y-102859500D03*
X78425000Y-105399500D03*
X78425000Y-107939500D03*
X80965000Y-97779500D03*
X80965000Y-100319500D03*
X80965000Y-102859500D03*
X80965000Y-105399500D03*
X80965000Y-107939500D03*
X83505000Y-97779500D03*
X83505000Y-100319500D03*
X83505000Y-102859500D03*
X83505000Y-105399500D03*
X83505000Y-107939500D03*
X86045000Y-97779500D03*
X86045000Y-100319500D03*
X86045000Y-102859500D03*
X86045000Y-105399500D03*
X86045000Y-107939500D03*
X88585000Y-97779500D03*
X88585000Y-100319500D03*
X88585000Y-102859500D03*
X88585000Y-105399500D03*
X88585000Y-107939500D03*
X96205000Y-97779500D03*
X96205000Y-100319500D03*
X96205000Y-102859500D03*
X96205000Y-105399500D03*
X96205000Y-107939500D03*
X98745000Y-97779500D03*
X98745000Y-100319500D03*
X98745000Y-102859500D03*
X98745000Y-105399500D03*
X98745000Y-107939500D03*
X101285000Y-97779500D03*
X101285000Y-100319500D03*
X101285000Y-102859500D03*
X101285000Y-105399500D03*
X101285000Y-107939500D03*
X103825000Y-97779500D03*
X103825000Y-100319500D03*
X103825000Y-102859500D03*
X103825000Y-105399500D03*
X103825000Y-107939500D03*
X106365000Y-97779500D03*
X106365000Y-100319500D03*
X106365000Y-102859500D03*
X106365000Y-105399500D03*
X106365000Y-107939500D03*
D11*
X236524286Y-98820000D03*
D12*
X71060000Y-99320000D03*
D13*
X41060000Y-99320000D03*
D14*
X109585000Y-107939500D03*
D15*
X109585000Y-97779500D03*
D16*
X53060000Y-99320000D03*
D17*
X46560000Y-99320000D03*
D18*
X61060000Y-99320000D03*
D19*
X144060000Y-111320000D03*
G04 #@! TA.AperFunction,NonConductor*
G36*
X241503039Y-83839685D02*
G01*
X241548794Y-83892489D01*
X241560000Y-83944000D01*
X241560000Y-113696000D01*
X241540315Y-113763039D01*
X241487511Y-113808794D01*
X241436000Y-113820000D01*
X36684000Y-113820000D01*
X36616961Y-113800315D01*
X36571206Y-113747511D01*
X36560000Y-113696000D01*
X36560000Y-111320001D01*
X127060000Y-111320001D01*
X127062407Y-111418252D01*
X127062408Y-111418261D01*
X127100742Y-111610979D01*
X127100744Y-111610987D01*
X127175943Y-111792533D01*
X127175948Y-111792543D01*
X127285118Y-111955927D01*
X127285121Y-111955931D01*
X127424068Y-112094878D01*
X127424072Y-112094881D01*
X127587456Y-112204051D01*
X127587460Y-112204053D01*
X127587463Y-112204055D01*
X127769013Y-112279256D01*
X127961741Y-112317592D01*
X127961744Y-112317593D01*
X128158254Y-112317593D01*
X128158256Y-112317593D01*
X128158257Y-112317592D01*
X128350987Y-112279256D01*
X128532537Y-112204055D01*
X128695928Y-112094881D01*
X128834881Y-111955928D01*
X128944055Y-111792537D01*
X129019256Y-111610987D01*
X129057593Y-111418254D01*
X129060000Y-111320000D01*
X129060000Y-111319999D01*
X142704341Y-111319999D01*
X142704341Y-111320000D01*
X142724936Y-111555403D01*
X142724938Y-111555413D01*
X142786094Y-111783655D01*
X142786096Y-111783659D01*
X142786097Y-111783663D01*
X142790238Y-111792543D01*
X142885965Y-111997830D01*
X142885967Y-111997834D01*
X142953919Y-112094878D01*
X143021505Y-112191401D01*
X143188599Y-112358495D01*
X143285384Y-112426265D01*
X143382165Y-112494032D01*
X143382167Y-112494033D01*
X143382170Y-112494035D01*
X143596337Y-112593903D01*
X143824592Y-112655063D01*
X144012918Y-112671539D01*
X144059999Y-112675659D01*
X144060000Y-112675659D01*
X144060001Y-112675659D01*
X144099234Y-112672226D01*
X144295408Y-112655063D01*
X144523663Y-112593903D01*
X144737830Y-112494035D01*
X144931401Y-112358495D01*
X145098495Y-112191401D01*
X145234035Y-111997830D01*
X145333903Y-111783663D01*
X145395063Y-111555408D01*
X145415659Y-111320000D01*
X145395063Y-111084592D01*
X145333903Y-110856337D01*
X145234035Y-110642171D01*
X145098495Y-110448599D01*
X145098494Y-110448597D01*
X144931402Y-110281506D01*
X144931395Y-110281501D01*
X144737834Y-110145967D01*
X144737830Y-110145965D01*
X144737828Y-110145964D01*
X144523663Y-110046097D01*
X144523659Y-110046096D01*
X144523655Y-110046094D01*
X144295413Y-109984938D01*
X144295403Y-109984936D01*
X144060001Y-109964341D01*
X144059999Y-109964341D01*
X143824596Y-109984936D01*
X143824586Y-109984938D01*
X143596344Y-110046094D01*
X143596335Y-110046098D01*
X143382171Y-110145964D01*
X143382169Y-110145965D01*
X143188597Y-110281505D01*
X143021505Y-110448597D01*
X142885965Y-110642169D01*
X142885964Y-110642171D01*
X142786098Y-110856335D01*
X142786094Y-110856344D01*
X142724938Y-111084586D01*
X142724936Y-111084596D01*
X142704341Y-111319999D01*
X129060000Y-111319999D01*
X129062468Y-110936488D01*
X129062626Y-110930985D01*
X129102094Y-110165332D01*
X129102582Y-110159026D01*
X129181367Y-109396849D01*
X129182179Y-109390579D01*
X129300098Y-108633457D01*
X129301231Y-108627243D01*
X129457967Y-107877204D01*
X129459419Y-107871049D01*
X129654553Y-107130098D01*
X129656324Y-107124010D01*
X129889347Y-106394068D01*
X129891432Y-106388075D01*
X130161714Y-105671118D01*
X130164118Y-105665210D01*
X130280241Y-105399499D01*
X130470939Y-104963143D01*
X130473631Y-104957392D01*
X130816202Y-104272019D01*
X130819187Y-104266413D01*
X131196578Y-103599600D01*
X131199862Y-103594132D01*
X131611079Y-102947630D01*
X131614625Y-102942362D01*
X132058571Y-102317898D01*
X132062403Y-102312791D01*
X132381991Y-101909000D01*
X132537916Y-101711993D01*
X132541973Y-101707130D01*
X133047818Y-101131572D01*
X133052083Y-101126963D01*
X133586874Y-100578221D01*
X133591443Y-100573769D01*
X133626809Y-100541035D01*
X134153746Y-100053308D01*
X134158515Y-100049118D01*
X134746885Y-99558277D01*
X134751841Y-99554355D01*
X135364726Y-99094435D01*
X135369859Y-99090786D01*
X136005610Y-98663025D01*
X136010924Y-98659645D01*
X136667847Y-98265182D01*
X136673341Y-98262072D01*
X137349691Y-97901954D01*
X137355344Y-97899128D01*
X138049322Y-97574311D01*
X138055134Y-97571771D01*
X138764908Y-97283112D01*
X138770813Y-97280886D01*
X139494542Y-97029136D01*
X139500545Y-97027219D01*
X140236258Y-96813064D01*
X140242390Y-96811449D01*
X140988112Y-96635461D01*
X140994343Y-96634158D01*
X141748130Y-96496794D01*
X141754403Y-96495816D01*
X142514304Y-96397432D01*
X142520589Y-96396783D01*
X143284537Y-96337648D01*
X143290844Y-96337322D01*
X144056816Y-96317595D01*
X144063184Y-96317595D01*
X144829153Y-96337322D01*
X144835464Y-96337648D01*
X145599406Y-96396783D01*
X145605699Y-96397433D01*
X146365590Y-96495816D01*
X146371875Y-96496795D01*
X147047312Y-96619882D01*
X147125646Y-96634157D01*
X147131895Y-96635462D01*
X147877599Y-96811447D01*
X147883751Y-96813067D01*
X148619443Y-97027216D01*
X148625468Y-97029139D01*
X149349173Y-97280881D01*
X149355103Y-97283117D01*
X150047485Y-97564703D01*
X150064845Y-97571763D01*
X150070691Y-97574318D01*
X150764639Y-97899121D01*
X150770323Y-97901962D01*
X151446641Y-98262063D01*
X151452168Y-98265191D01*
X152109057Y-98659634D01*
X152114407Y-98663037D01*
X152750113Y-99090768D01*
X152755290Y-99094448D01*
X153368139Y-99554341D01*
X153373130Y-99558291D01*
X153961470Y-100049106D01*
X153966266Y-100053321D01*
X154528556Y-100573769D01*
X154533129Y-100578226D01*
X154719763Y-100769728D01*
X155067897Y-101126943D01*
X155072200Y-101131593D01*
X155576266Y-101705127D01*
X155578001Y-101707101D01*
X155582092Y-101712005D01*
X156057596Y-102312791D01*
X156061428Y-102317898D01*
X156505374Y-102942362D01*
X156508939Y-102947660D01*
X156920137Y-103594132D01*
X156923424Y-103599606D01*
X157300803Y-104266398D01*
X157303804Y-104272034D01*
X157646360Y-104957376D01*
X157649067Y-104963160D01*
X157955881Y-105665210D01*
X157958287Y-105671125D01*
X158228560Y-106388056D01*
X158230658Y-106394087D01*
X158463668Y-107123989D01*
X158465452Y-107130120D01*
X158660572Y-107871019D01*
X158662039Y-107877234D01*
X158818761Y-108627209D01*
X158819906Y-108633490D01*
X158937815Y-109390547D01*
X158938635Y-109396880D01*
X159017414Y-110158995D01*
X159017907Y-110165362D01*
X159057371Y-110930944D01*
X159057532Y-110936529D01*
X159059999Y-111319965D01*
X159062407Y-111418252D01*
X159062408Y-111418261D01*
X159100742Y-111610979D01*
X159100744Y-111610987D01*
X159175943Y-111792533D01*
X159175948Y-111792543D01*
X159285118Y-111955927D01*
X159285121Y-111955931D01*
X159424068Y-112094878D01*
X159424072Y-112094881D01*
X159587456Y-112204051D01*
X159587460Y-112204053D01*
X159587463Y-112204055D01*
X159769013Y-112279256D01*
X159961741Y-112317592D01*
X159961744Y-112317593D01*
X160158254Y-112317593D01*
X160158256Y-112317593D01*
X160158257Y-112317592D01*
X160350987Y-112279256D01*
X160532537Y-112204055D01*
X160695928Y-112094881D01*
X160834881Y-111955928D01*
X160944055Y-111792537D01*
X161019256Y-111610987D01*
X161057593Y-111418254D01*
X161060000Y-111320000D01*
X161057518Y-110909156D01*
X161017820Y-110088429D01*
X160938515Y-109270577D01*
X160819790Y-108457512D01*
X160661922Y-107651133D01*
X160465280Y-106853322D01*
X160315086Y-106349999D01*
X160230328Y-106065963D01*
X160230325Y-106065956D01*
X160230322Y-106065944D01*
X159957597Y-105290837D01*
X159647743Y-104529811D01*
X159627165Y-104485527D01*
X159301490Y-103784659D01*
X159301489Y-103784658D01*
X159301483Y-103784644D01*
X158919626Y-103057076D01*
X158861030Y-102957447D01*
X158503081Y-102348834D01*
X158503072Y-102348820D01*
X158503064Y-102348806D01*
X158052769Y-101661489D01*
X158052768Y-101661487D01*
X158052756Y-101661470D01*
X157569808Y-100996750D01*
X157569784Y-100996719D01*
X157493340Y-100901537D01*
X157055265Y-100356082D01*
X157055246Y-100356060D01*
X156510399Y-99741055D01*
X156510379Y-99741034D01*
X156483588Y-99713588D01*
X156328132Y-99554328D01*
X155936443Y-99153056D01*
X155936435Y-99153048D01*
X155334735Y-98593462D01*
X155334724Y-98593452D01*
X154774886Y-98121125D01*
X154706703Y-98063600D01*
X154706700Y-98063598D01*
X154706696Y-98063594D01*
X154297569Y-97750968D01*
X154053808Y-97564703D01*
X153377573Y-97097931D01*
X153003414Y-96865525D01*
X152679583Y-96664379D01*
X151961441Y-96265045D01*
X151464784Y-96019500D01*
X151224865Y-95900885D01*
X151224854Y-95900880D01*
X151224841Y-95900874D01*
X150798500Y-95715155D01*
X234023786Y-95715155D01*
X234023786Y-101924844D01*
X234029960Y-102055780D01*
X234029960Y-102055785D01*
X234079179Y-102366543D01*
X234079181Y-102366551D01*
X234166960Y-102668684D01*
X234291918Y-102957447D01*
X234291919Y-102957448D01*
X234452082Y-103228268D01*
X234452087Y-103228274D01*
X234452088Y-103228276D01*
X234452088Y-103228277D01*
X234644923Y-103476879D01*
X234867406Y-103699362D01*
X235116008Y-103892197D01*
X235116012Y-103892199D01*
X235116018Y-103892204D01*
X235386838Y-104052367D01*
X235675597Y-104177324D01*
X235729705Y-104193043D01*
X235977734Y-104265104D01*
X235977742Y-104265106D01*
X236288503Y-104314325D01*
X236419442Y-104320500D01*
X236419446Y-104320500D01*
X236629130Y-104320500D01*
X236703950Y-104316971D01*
X236760069Y-104314325D01*
X236760071Y-104314325D01*
X237070829Y-104265106D01*
X237070837Y-104265104D01*
X237221903Y-104221214D01*
X237372975Y-104177324D01*
X237661734Y-104052367D01*
X237932554Y-103892204D01*
X238177992Y-103701823D01*
X238181165Y-103699362D01*
X238181166Y-103699362D01*
X238403648Y-103476880D01*
X238403648Y-103476879D01*
X238596483Y-103228277D01*
X238596490Y-103228268D01*
X238756653Y-102957448D01*
X238881610Y-102668689D01*
X238952707Y-102423972D01*
X238969390Y-102366551D01*
X238969392Y-102366543D01*
X239018611Y-102055785D01*
X239018611Y-102055780D01*
X239020432Y-102017178D01*
X239023578Y-101950452D01*
X239024786Y-101924844D01*
X239024786Y-95715155D01*
X239018611Y-95584219D01*
X239018611Y-95584214D01*
X238969392Y-95273456D01*
X238969390Y-95273448D01*
X238881611Y-94971315D01*
X238881610Y-94971311D01*
X238756653Y-94682552D01*
X238596490Y-94411732D01*
X238596483Y-94411722D01*
X238403648Y-94163120D01*
X238181165Y-93940637D01*
X237932563Y-93747802D01*
X237932557Y-93747798D01*
X237932554Y-93747796D01*
X237763631Y-93647894D01*
X237661733Y-93587632D01*
X237372970Y-93462674D01*
X237070837Y-93374895D01*
X237070829Y-93374893D01*
X236760068Y-93325674D01*
X236629130Y-93319500D01*
X236629126Y-93319500D01*
X236419446Y-93319500D01*
X236419442Y-93319500D01*
X236288505Y-93325674D01*
X236288500Y-93325674D01*
X235977742Y-93374893D01*
X235977734Y-93374895D01*
X235675601Y-93462674D01*
X235386838Y-93587632D01*
X235225380Y-93683119D01*
X235116018Y-93747796D01*
X235116014Y-93747798D01*
X235116009Y-93747802D01*
X235116008Y-93747802D01*
X234867406Y-93940637D01*
X234867406Y-93940638D01*
X234644924Y-94163120D01*
X234644923Y-94163120D01*
X234452088Y-94411722D01*
X234452088Y-94411723D01*
X234452084Y-94411728D01*
X234452082Y-94411732D01*
X234417819Y-94469668D01*
X234291918Y-94682552D01*
X234166960Y-94971315D01*
X234079181Y-95273448D01*
X234079179Y-95273456D01*
X234029960Y-95584214D01*
X234029960Y-95584219D01*
X234023786Y-95715155D01*
X150798500Y-95715155D01*
X150471558Y-95572735D01*
X149703265Y-95281360D01*
X149703264Y-95281359D01*
X149703257Y-95281357D01*
X149703244Y-95281353D01*
X149703236Y-95281350D01*
X148921796Y-95027445D01*
X148921791Y-95027443D01*
X148921786Y-95027442D01*
X148128960Y-94811579D01*
X147817401Y-94742727D01*
X147326619Y-94634269D01*
X146516697Y-94495939D01*
X146516693Y-94495938D01*
X146516673Y-94495935D01*
X146300349Y-94469668D01*
X145700972Y-94396890D01*
X144881462Y-94337373D01*
X144881440Y-94337372D01*
X144060000Y-94317518D01*
X143238559Y-94337372D01*
X143238537Y-94337373D01*
X142419027Y-94396890D01*
X141678143Y-94486850D01*
X141603327Y-94495935D01*
X141603311Y-94495937D01*
X141603302Y-94495939D01*
X140793380Y-94634269D01*
X139991040Y-94811579D01*
X139198203Y-95027445D01*
X138416763Y-95281350D01*
X138416734Y-95281360D01*
X137648441Y-95572735D01*
X136895158Y-95900874D01*
X136895145Y-95900880D01*
X136158558Y-96265045D01*
X135440416Y-96664379D01*
X134742424Y-97097933D01*
X134066197Y-97564699D01*
X133413303Y-98063594D01*
X133413293Y-98063603D01*
X132785275Y-98593452D01*
X132785264Y-98593462D01*
X132183564Y-99153048D01*
X132183556Y-99153056D01*
X131609620Y-99741034D01*
X131609600Y-99741055D01*
X131064753Y-100356060D01*
X131064738Y-100356078D01*
X131064735Y-100356082D01*
X130934000Y-100518863D01*
X130550215Y-100996719D01*
X130550191Y-100996750D01*
X130067243Y-101661470D01*
X130067228Y-101661492D01*
X129616927Y-102348820D01*
X129616918Y-102348834D01*
X129200384Y-103057057D01*
X128818509Y-103784659D01*
X128472263Y-104529795D01*
X128472255Y-104529813D01*
X128162408Y-105290824D01*
X128162403Y-105290837D01*
X128030678Y-105665210D01*
X127889671Y-106065963D01*
X127654728Y-106853292D01*
X127654721Y-106853318D01*
X127458076Y-107651141D01*
X127300213Y-108457494D01*
X127300211Y-108457504D01*
X127283172Y-108574191D01*
X127185225Y-109244968D01*
X127181485Y-109270579D01*
X127102182Y-110088402D01*
X127102178Y-110088457D01*
X127062482Y-110909145D01*
X127060000Y-111320001D01*
X36560000Y-111320001D01*
X36560000Y-99319994D01*
X38654754Y-99319994D01*
X38654754Y-99320005D01*
X38673718Y-99621446D01*
X38673719Y-99621453D01*
X38730320Y-99918164D01*
X38823659Y-100205431D01*
X38823661Y-100205436D01*
X38952265Y-100478732D01*
X38952268Y-100478738D01*
X39114111Y-100733763D01*
X39114114Y-100733767D01*
X39114115Y-100733768D01*
X39272653Y-100925408D01*
X39306652Y-100966505D01*
X39526836Y-101173272D01*
X39526846Y-101173280D01*
X39771193Y-101350808D01*
X39771198Y-101350810D01*
X39771205Y-101350816D01*
X40035896Y-101496332D01*
X40035901Y-101496334D01*
X40035903Y-101496335D01*
X40035904Y-101496336D01*
X40316734Y-101607524D01*
X40316737Y-101607525D01*
X40414259Y-101632564D01*
X40609302Y-101682642D01*
X40739356Y-101699072D01*
X40908963Y-101720499D01*
X40908969Y-101720499D01*
X40908973Y-101720500D01*
X40908975Y-101720500D01*
X41211025Y-101720500D01*
X41211027Y-101720500D01*
X41211032Y-101720499D01*
X41211036Y-101720499D01*
X41332714Y-101705127D01*
X41510698Y-101682642D01*
X41803262Y-101607525D01*
X41839731Y-101593086D01*
X42084095Y-101496336D01*
X42084096Y-101496335D01*
X42084094Y-101496335D01*
X42084104Y-101496332D01*
X42348795Y-101350816D01*
X42593162Y-101173274D01*
X42813349Y-100966504D01*
X43005885Y-100733768D01*
X43167733Y-100478736D01*
X43296341Y-100205430D01*
X43389681Y-99918160D01*
X43446280Y-99621457D01*
X43450503Y-99554341D01*
X43461046Y-99386763D01*
X43484602Y-99321914D01*
X43680528Y-99321914D01*
X43705737Y-99367154D01*
X43708591Y-99387339D01*
X43723976Y-99651484D01*
X43723977Y-99651495D01*
X43781631Y-99978467D01*
X43781634Y-99978481D01*
X43876866Y-100296580D01*
X44008379Y-100601461D01*
X44008385Y-100601474D01*
X44174406Y-100889031D01*
X44372678Y-101155356D01*
X44372683Y-101155362D01*
X44372690Y-101155371D01*
X44600553Y-101396893D01*
X44747267Y-101520000D01*
X44854912Y-101610325D01*
X44854920Y-101610331D01*
X45132330Y-101792787D01*
X45132334Y-101792789D01*
X45429061Y-101941811D01*
X45741082Y-102055377D01*
X45741088Y-102055378D01*
X45741090Y-102055379D01*
X46064161Y-102131949D01*
X46064168Y-102131950D01*
X46064177Y-102131952D01*
X46393977Y-102170500D01*
X46393984Y-102170500D01*
X46726016Y-102170500D01*
X46726023Y-102170500D01*
X47055823Y-102131952D01*
X47055832Y-102131949D01*
X47055838Y-102131949D01*
X47377133Y-102055800D01*
X47378918Y-102055377D01*
X47690939Y-101941811D01*
X47987666Y-101792789D01*
X48204320Y-101650293D01*
X48265079Y-101610331D01*
X48265079Y-101610330D01*
X48265085Y-101610327D01*
X48519447Y-101396893D01*
X48747310Y-101155371D01*
X48945594Y-100889030D01*
X49111617Y-100601470D01*
X49243133Y-100296581D01*
X49338365Y-99978485D01*
X49396024Y-99651484D01*
X49415220Y-99321914D01*
X49415331Y-99320003D01*
X49415331Y-99320000D01*
X49754652Y-99320000D01*
X49772624Y-99651484D01*
X49774028Y-99677368D01*
X49774029Y-99677385D01*
X49831926Y-100030539D01*
X49831932Y-100030565D01*
X49927672Y-100375392D01*
X49927674Y-100375399D01*
X50060142Y-100707870D01*
X50060151Y-100707888D01*
X50227784Y-101024077D01*
X50227787Y-101024082D01*
X50227789Y-101024085D01*
X50402405Y-101281625D01*
X50428634Y-101320309D01*
X50428641Y-101320319D01*
X50595233Y-101516446D01*
X50660332Y-101593086D01*
X50920163Y-101839211D01*
X51205081Y-102055800D01*
X51511747Y-102240315D01*
X51511749Y-102240316D01*
X51511751Y-102240317D01*
X51511755Y-102240319D01*
X51746248Y-102348806D01*
X51836565Y-102390591D01*
X52175726Y-102504868D01*
X52525254Y-102581805D01*
X52881052Y-102620500D01*
X52881058Y-102620500D01*
X53238942Y-102620500D01*
X53238948Y-102620500D01*
X53594746Y-102581805D01*
X53944274Y-102504868D01*
X54283435Y-102390591D01*
X54608253Y-102240315D01*
X54914919Y-102055800D01*
X55199837Y-101839211D01*
X55459668Y-101593086D01*
X55691365Y-101320311D01*
X55892211Y-101024085D01*
X56059853Y-100707880D01*
X56192324Y-100375403D01*
X56288071Y-100030552D01*
X56314513Y-99869262D01*
X56345970Y-99677385D01*
X56345970Y-99677382D01*
X56345972Y-99677371D01*
X56365348Y-99320000D01*
X56804680Y-99320000D01*
X56823948Y-99724498D01*
X56881579Y-100125326D01*
X56977050Y-100518863D01*
X56977053Y-100518874D01*
X57109492Y-100901533D01*
X57109494Y-100901537D01*
X57277717Y-101269892D01*
X57277725Y-101269908D01*
X57480200Y-101620606D01*
X57480206Y-101620614D01*
X57715083Y-101950452D01*
X57715092Y-101950462D01*
X57715093Y-101950464D01*
X57980280Y-102256507D01*
X58273358Y-102535956D01*
X58591672Y-102786281D01*
X58932340Y-103005215D01*
X59292276Y-103190775D01*
X59292281Y-103190777D01*
X59292283Y-103190778D01*
X59479444Y-103265706D01*
X59668221Y-103341281D01*
X60056770Y-103455369D01*
X60454405Y-103532007D01*
X60857524Y-103570500D01*
X60857530Y-103570500D01*
X61262470Y-103570500D01*
X61262476Y-103570500D01*
X61665595Y-103532007D01*
X62063230Y-103455369D01*
X62451779Y-103341281D01*
X62827724Y-103190775D01*
X63187660Y-103005215D01*
X63528328Y-102786281D01*
X63846642Y-102535956D01*
X64139720Y-102256507D01*
X64404907Y-101950464D01*
X64408425Y-101945525D01*
X64639793Y-101620614D01*
X64639799Y-101620606D01*
X64639800Y-101620603D01*
X64639803Y-101620600D01*
X64842279Y-101269900D01*
X65010503Y-100901543D01*
X65010505Y-100901536D01*
X65010507Y-100901533D01*
X65142946Y-100518874D01*
X65142946Y-100518871D01*
X65142950Y-100518862D01*
X65238421Y-100125325D01*
X65296052Y-99724494D01*
X65315320Y-99320000D01*
X65954641Y-99320000D01*
X65974067Y-99764959D01*
X66032201Y-100206523D01*
X66032202Y-100206532D01*
X66128603Y-100641369D01*
X66262533Y-101066139D01*
X66262538Y-101066152D01*
X66432974Y-101477622D01*
X66638623Y-101872670D01*
X66638627Y-101872676D01*
X66638629Y-101872680D01*
X66688183Y-101950464D01*
X66877937Y-102248318D01*
X67149062Y-102601655D01*
X67149066Y-102601660D01*
X67449965Y-102930033D01*
X67449966Y-102930034D01*
X67778339Y-103230933D01*
X67778344Y-103230937D01*
X68131681Y-103502062D01*
X68131686Y-103502065D01*
X68507320Y-103741371D01*
X68507330Y-103741376D01*
X68507329Y-103741376D01*
X68902377Y-103947025D01*
X69078381Y-104019928D01*
X69313864Y-104117468D01*
X69738636Y-104251398D01*
X70173464Y-104347797D01*
X70615039Y-104405932D01*
X71060000Y-104425359D01*
X71504961Y-104405932D01*
X71946536Y-104347797D01*
X72381364Y-104251398D01*
X72806136Y-104117468D01*
X73217618Y-103947027D01*
X73612680Y-103741371D01*
X73988314Y-103502065D01*
X74341662Y-103230932D01*
X74670034Y-102930034D01*
X74970932Y-102601662D01*
X75242065Y-102248314D01*
X75481371Y-101872680D01*
X75664964Y-101520000D01*
X75687025Y-101477622D01*
X75688578Y-101473873D01*
X75857468Y-101066136D01*
X75991398Y-100641364D01*
X76087797Y-100206536D01*
X76145932Y-99764961D01*
X76165359Y-99320000D01*
X76145932Y-98875039D01*
X76087797Y-98433464D01*
X75991398Y-97998636D01*
X75922304Y-97779499D01*
X77219357Y-97779499D01*
X77219357Y-97779500D01*
X77239884Y-98001035D01*
X77239885Y-98001037D01*
X77300769Y-98215023D01*
X77300775Y-98215038D01*
X77399938Y-98414183D01*
X77399943Y-98414191D01*
X77534020Y-98591738D01*
X77698437Y-98741623D01*
X77698439Y-98741625D01*
X77887595Y-98858745D01*
X77887596Y-98858745D01*
X77887599Y-98858747D01*
X78081524Y-98933874D01*
X78136924Y-98976446D01*
X78160515Y-99042213D01*
X78144804Y-99110293D01*
X78094780Y-99159072D01*
X78081533Y-99165122D01*
X77933488Y-99222475D01*
X77887601Y-99240252D01*
X77887595Y-99240254D01*
X77698439Y-99357374D01*
X77698437Y-99357376D01*
X77534020Y-99507261D01*
X77399943Y-99684808D01*
X77399938Y-99684816D01*
X77300775Y-99883961D01*
X77300769Y-99883976D01*
X77239885Y-100097962D01*
X77239884Y-100097964D01*
X77219357Y-100319499D01*
X77219357Y-100319500D01*
X77239884Y-100541035D01*
X77239885Y-100541037D01*
X77300769Y-100755023D01*
X77300775Y-100755038D01*
X77399938Y-100954183D01*
X77399943Y-100954191D01*
X77534020Y-101131738D01*
X77698437Y-101281623D01*
X77698439Y-101281625D01*
X77887595Y-101398745D01*
X77887596Y-101398745D01*
X77887599Y-101398747D01*
X78081524Y-101473874D01*
X78136924Y-101516446D01*
X78160515Y-101582213D01*
X78144804Y-101650293D01*
X78094780Y-101699072D01*
X78081533Y-101705122D01*
X77933488Y-101762475D01*
X77887601Y-101780252D01*
X77887595Y-101780254D01*
X77698439Y-101897374D01*
X77698437Y-101897376D01*
X77534020Y-102047261D01*
X77399943Y-102224808D01*
X77399938Y-102224816D01*
X77300775Y-102423961D01*
X77300769Y-102423976D01*
X77239885Y-102637962D01*
X77239884Y-102637964D01*
X77219357Y-102859499D01*
X77219357Y-102859500D01*
X77239884Y-103081035D01*
X77239885Y-103081037D01*
X77300769Y-103295023D01*
X77300775Y-103295038D01*
X77399938Y-103494183D01*
X77399943Y-103494191D01*
X77534020Y-103671738D01*
X77698437Y-103821623D01*
X77698439Y-103821625D01*
X77887595Y-103938745D01*
X77887596Y-103938745D01*
X77887599Y-103938747D01*
X78081524Y-104013874D01*
X78136924Y-104056446D01*
X78160515Y-104122213D01*
X78144804Y-104190293D01*
X78094780Y-104239072D01*
X78081533Y-104245122D01*
X77933488Y-104302475D01*
X77887601Y-104320252D01*
X77887595Y-104320254D01*
X77698439Y-104437374D01*
X77698437Y-104437376D01*
X77534020Y-104587261D01*
X77399943Y-104764808D01*
X77399938Y-104764816D01*
X77300775Y-104963961D01*
X77300769Y-104963976D01*
X77239885Y-105177962D01*
X77239884Y-105177964D01*
X77219357Y-105399499D01*
X77219357Y-105399500D01*
X77239884Y-105621035D01*
X77239885Y-105621037D01*
X77300769Y-105835023D01*
X77300775Y-105835038D01*
X77399938Y-106034183D01*
X77399943Y-106034191D01*
X77534020Y-106211738D01*
X77698437Y-106361623D01*
X77698439Y-106361625D01*
X77887595Y-106478745D01*
X77887596Y-106478745D01*
X77887599Y-106478747D01*
X78081524Y-106553874D01*
X78136924Y-106596446D01*
X78160515Y-106662213D01*
X78144804Y-106730293D01*
X78094780Y-106779072D01*
X78081533Y-106785122D01*
X77933488Y-106842475D01*
X77887601Y-106860252D01*
X77887595Y-106860254D01*
X77698439Y-106977374D01*
X77698437Y-106977376D01*
X77534020Y-107127261D01*
X77399943Y-107304808D01*
X77399938Y-107304816D01*
X77300775Y-107503961D01*
X77300769Y-107503976D01*
X77239885Y-107717962D01*
X77239884Y-107717964D01*
X77219357Y-107939499D01*
X77219357Y-107939500D01*
X77239884Y-108161035D01*
X77239885Y-108161037D01*
X77300769Y-108375023D01*
X77300775Y-108375038D01*
X77399938Y-108574183D01*
X77399943Y-108574191D01*
X77534020Y-108751738D01*
X77698437Y-108901623D01*
X77698439Y-108901625D01*
X77887595Y-109018745D01*
X77887596Y-109018745D01*
X77887599Y-109018747D01*
X78095060Y-109099118D01*
X78313757Y-109140000D01*
X78313759Y-109140000D01*
X78536241Y-109140000D01*
X78536243Y-109140000D01*
X78754940Y-109099118D01*
X78962401Y-109018747D01*
X79151562Y-108901624D01*
X79315981Y-108751736D01*
X79450058Y-108574189D01*
X79549229Y-108375028D01*
X79575734Y-108281871D01*
X79613013Y-108222778D01*
X79676323Y-108193221D01*
X79745562Y-108202583D01*
X79798749Y-108247893D01*
X79814266Y-108281872D01*
X79840769Y-108375023D01*
X79840775Y-108375038D01*
X79939938Y-108574183D01*
X79939943Y-108574191D01*
X80074020Y-108751738D01*
X80238437Y-108901623D01*
X80238439Y-108901625D01*
X80427595Y-109018745D01*
X80427596Y-109018745D01*
X80427599Y-109018747D01*
X80635060Y-109099118D01*
X80853757Y-109140000D01*
X80853759Y-109140000D01*
X81076241Y-109140000D01*
X81076243Y-109140000D01*
X81294940Y-109099118D01*
X81502401Y-109018747D01*
X81691562Y-108901624D01*
X81855981Y-108751736D01*
X81990058Y-108574189D01*
X82089229Y-108375028D01*
X82115734Y-108281871D01*
X82153013Y-108222778D01*
X82216323Y-108193221D01*
X82285562Y-108202583D01*
X82338749Y-108247893D01*
X82354266Y-108281872D01*
X82380769Y-108375023D01*
X82380775Y-108375038D01*
X82479938Y-108574183D01*
X82479943Y-108574191D01*
X82614020Y-108751738D01*
X82778437Y-108901623D01*
X82778439Y-108901625D01*
X82967595Y-109018745D01*
X82967596Y-109018745D01*
X82967599Y-109018747D01*
X83175060Y-109099118D01*
X83393757Y-109140000D01*
X83393759Y-109140000D01*
X83616241Y-109140000D01*
X83616243Y-109140000D01*
X83834940Y-109099118D01*
X84042401Y-109018747D01*
X84231562Y-108901624D01*
X84395981Y-108751736D01*
X84530058Y-108574189D01*
X84629229Y-108375028D01*
X84655734Y-108281871D01*
X84693013Y-108222778D01*
X84756323Y-108193221D01*
X84825562Y-108202583D01*
X84878749Y-108247893D01*
X84894266Y-108281872D01*
X84920769Y-108375023D01*
X84920775Y-108375038D01*
X85019938Y-108574183D01*
X85019943Y-108574191D01*
X85154020Y-108751738D01*
X85318437Y-108901623D01*
X85318439Y-108901625D01*
X85507595Y-109018745D01*
X85507596Y-109018745D01*
X85507599Y-109018747D01*
X85715060Y-109099118D01*
X85933757Y-109140000D01*
X85933759Y-109140000D01*
X86156241Y-109140000D01*
X86156243Y-109140000D01*
X86374940Y-109099118D01*
X86582401Y-109018747D01*
X86771562Y-108901624D01*
X86935981Y-108751736D01*
X87070058Y-108574189D01*
X87169229Y-108375028D01*
X87195734Y-108281871D01*
X87233013Y-108222778D01*
X87296323Y-108193221D01*
X87365562Y-108202583D01*
X87418749Y-108247893D01*
X87434266Y-108281872D01*
X87460769Y-108375023D01*
X87460775Y-108375038D01*
X87559938Y-108574183D01*
X87559943Y-108574191D01*
X87694020Y-108751738D01*
X87858437Y-108901623D01*
X87858439Y-108901625D01*
X88047595Y-109018745D01*
X88047596Y-109018745D01*
X88047599Y-109018747D01*
X88255060Y-109099118D01*
X88473757Y-109140000D01*
X88473759Y-109140000D01*
X88696241Y-109140000D01*
X88696243Y-109140000D01*
X88914940Y-109099118D01*
X89122401Y-109018747D01*
X89311562Y-108901624D01*
X89475981Y-108751736D01*
X89610058Y-108574189D01*
X89709229Y-108375028D01*
X89770115Y-108161036D01*
X89790643Y-107939500D01*
X89781968Y-107845879D01*
X90174500Y-107845879D01*
X90174500Y-108033120D01*
X90211025Y-108216743D01*
X90211027Y-108216751D01*
X90282676Y-108389728D01*
X90282681Y-108389737D01*
X90386697Y-108545407D01*
X90386700Y-108545411D01*
X90519088Y-108677799D01*
X90519092Y-108677802D01*
X90674762Y-108781818D01*
X90674768Y-108781821D01*
X90674769Y-108781822D01*
X90847749Y-108853473D01*
X91031379Y-108889999D01*
X91031383Y-108890000D01*
X91031384Y-108890000D01*
X91218617Y-108890000D01*
X91218618Y-108889999D01*
X91402251Y-108853473D01*
X91575231Y-108781822D01*
X91730908Y-108677802D01*
X91863302Y-108545408D01*
X91967322Y-108389731D01*
X92038973Y-108216751D01*
X92075500Y-108033116D01*
X92075500Y-107845884D01*
X92075499Y-107845879D01*
X92714500Y-107845879D01*
X92714500Y-108033120D01*
X92751025Y-108216743D01*
X92751027Y-108216751D01*
X92822676Y-108389728D01*
X92822681Y-108389737D01*
X92926697Y-108545407D01*
X92926700Y-108545411D01*
X93059088Y-108677799D01*
X93059092Y-108677802D01*
X93214762Y-108781818D01*
X93214768Y-108781821D01*
X93214769Y-108781822D01*
X93387749Y-108853473D01*
X93571379Y-108889999D01*
X93571383Y-108890000D01*
X93571384Y-108890000D01*
X93758617Y-108890000D01*
X93758618Y-108889999D01*
X93942251Y-108853473D01*
X94115231Y-108781822D01*
X94270908Y-108677802D01*
X94403302Y-108545408D01*
X94507322Y-108389731D01*
X94578973Y-108216751D01*
X94615500Y-108033116D01*
X94615500Y-107845884D01*
X94578973Y-107662249D01*
X94507322Y-107489269D01*
X94507321Y-107489268D01*
X94507318Y-107489262D01*
X94403302Y-107333592D01*
X94403299Y-107333588D01*
X94270911Y-107201200D01*
X94270907Y-107201197D01*
X94115237Y-107097181D01*
X94115228Y-107097176D01*
X93942251Y-107025527D01*
X93942243Y-107025525D01*
X93758620Y-106989000D01*
X93758616Y-106989000D01*
X93571384Y-106989000D01*
X93571379Y-106989000D01*
X93387756Y-107025525D01*
X93387748Y-107025527D01*
X93214771Y-107097176D01*
X93214762Y-107097181D01*
X93059092Y-107201197D01*
X93059088Y-107201200D01*
X92926700Y-107333588D01*
X92926697Y-107333592D01*
X92822681Y-107489262D01*
X92822676Y-107489271D01*
X92751027Y-107662248D01*
X92751025Y-107662256D01*
X92714500Y-107845879D01*
X92075499Y-107845879D01*
X92038973Y-107662249D01*
X91967322Y-107489269D01*
X91967321Y-107489268D01*
X91967318Y-107489262D01*
X91863302Y-107333592D01*
X91863299Y-107333588D01*
X91730911Y-107201200D01*
X91730907Y-107201197D01*
X91575237Y-107097181D01*
X91575228Y-107097176D01*
X91402251Y-107025527D01*
X91402243Y-107025525D01*
X91218620Y-106989000D01*
X91218616Y-106989000D01*
X91031384Y-106989000D01*
X91031379Y-106989000D01*
X90847756Y-107025525D01*
X90847748Y-107025527D01*
X90674771Y-107097176D01*
X90674762Y-107097181D01*
X90519092Y-107201197D01*
X90519088Y-107201200D01*
X90386700Y-107333588D01*
X90386697Y-107333592D01*
X90282681Y-107489262D01*
X90282676Y-107489271D01*
X90211027Y-107662248D01*
X90211025Y-107662256D01*
X90174500Y-107845879D01*
X89781968Y-107845879D01*
X89770115Y-107717964D01*
X89709229Y-107503972D01*
X89709224Y-107503961D01*
X89610061Y-107304816D01*
X89610056Y-107304808D01*
X89475979Y-107127261D01*
X89311562Y-106977376D01*
X89311560Y-106977374D01*
X89122404Y-106860254D01*
X89122395Y-106860250D01*
X89028956Y-106824052D01*
X88928475Y-106785125D01*
X88873075Y-106742554D01*
X88849484Y-106676788D01*
X88865195Y-106608707D01*
X88915219Y-106559928D01*
X88928466Y-106553877D01*
X89122401Y-106478747D01*
X89311562Y-106361624D01*
X89475981Y-106211736D01*
X89610058Y-106034189D01*
X89709229Y-105835028D01*
X89770115Y-105621036D01*
X89790643Y-105399500D01*
X89781968Y-105305879D01*
X90174500Y-105305879D01*
X90174500Y-105493120D01*
X90211025Y-105676743D01*
X90211027Y-105676751D01*
X90282676Y-105849728D01*
X90282681Y-105849737D01*
X90386697Y-106005407D01*
X90386700Y-106005411D01*
X90519088Y-106137799D01*
X90519092Y-106137802D01*
X90674762Y-106241818D01*
X90674768Y-106241821D01*
X90674769Y-106241822D01*
X90847749Y-106313473D01*
X91031379Y-106349999D01*
X91031383Y-106350000D01*
X91031384Y-106350000D01*
X91218617Y-106350000D01*
X91218618Y-106349999D01*
X91402251Y-106313473D01*
X91575231Y-106241822D01*
X91730908Y-106137802D01*
X91863302Y-106005408D01*
X91967322Y-105849731D01*
X92038973Y-105676751D01*
X92075500Y-105493116D01*
X92075500Y-105305884D01*
X92075499Y-105305879D01*
X92714500Y-105305879D01*
X92714500Y-105493120D01*
X92751025Y-105676743D01*
X92751027Y-105676751D01*
X92822676Y-105849728D01*
X92822681Y-105849737D01*
X92926697Y-106005407D01*
X92926700Y-106005411D01*
X93059088Y-106137799D01*
X93059092Y-106137802D01*
X93214762Y-106241818D01*
X93214768Y-106241821D01*
X93214769Y-106241822D01*
X93387749Y-106313473D01*
X93571379Y-106349999D01*
X93571383Y-106350000D01*
X93571384Y-106350000D01*
X93758617Y-106350000D01*
X93758618Y-106349999D01*
X93942251Y-106313473D01*
X94115231Y-106241822D01*
X94270908Y-106137802D01*
X94403302Y-106005408D01*
X94507322Y-105849731D01*
X94578973Y-105676751D01*
X94615500Y-105493116D01*
X94615500Y-105305884D01*
X94578973Y-105122249D01*
X94507322Y-104949269D01*
X94507321Y-104949268D01*
X94507318Y-104949262D01*
X94403302Y-104793592D01*
X94403299Y-104793588D01*
X94270911Y-104661200D01*
X94270907Y-104661197D01*
X94115237Y-104557181D01*
X94115228Y-104557176D01*
X93942251Y-104485527D01*
X93942243Y-104485525D01*
X93758620Y-104449000D01*
X93758616Y-104449000D01*
X93571384Y-104449000D01*
X93571379Y-104449000D01*
X93387756Y-104485525D01*
X93387748Y-104485527D01*
X93214771Y-104557176D01*
X93214762Y-104557181D01*
X93059092Y-104661197D01*
X93059088Y-104661200D01*
X92926700Y-104793588D01*
X92926697Y-104793592D01*
X92822681Y-104949262D01*
X92822676Y-104949271D01*
X92751027Y-105122248D01*
X92751025Y-105122256D01*
X92714500Y-105305879D01*
X92075499Y-105305879D01*
X92038973Y-105122249D01*
X91967322Y-104949269D01*
X91967321Y-104949268D01*
X91967318Y-104949262D01*
X91863302Y-104793592D01*
X91863299Y-104793588D01*
X91730911Y-104661200D01*
X91730907Y-104661197D01*
X91575237Y-104557181D01*
X91575228Y-104557176D01*
X91402251Y-104485527D01*
X91402243Y-104485525D01*
X91218620Y-104449000D01*
X91218616Y-104449000D01*
X91031384Y-104449000D01*
X91031379Y-104449000D01*
X90847756Y-104485525D01*
X90847748Y-104485527D01*
X90674771Y-104557176D01*
X90674762Y-104557181D01*
X90519092Y-104661197D01*
X90519088Y-104661200D01*
X90386700Y-104793588D01*
X90386697Y-104793592D01*
X90282681Y-104949262D01*
X90282676Y-104949271D01*
X90211027Y-105122248D01*
X90211025Y-105122256D01*
X90174500Y-105305879D01*
X89781968Y-105305879D01*
X89770115Y-105177964D01*
X89709229Y-104963972D01*
X89708825Y-104963160D01*
X89610061Y-104764816D01*
X89610056Y-104764808D01*
X89475979Y-104587261D01*
X89311562Y-104437376D01*
X89311560Y-104437374D01*
X89122404Y-104320254D01*
X89122395Y-104320250D01*
X89028956Y-104284052D01*
X88928475Y-104245125D01*
X88873075Y-104202554D01*
X88849484Y-104136788D01*
X88865195Y-104068707D01*
X88915219Y-104019928D01*
X88928466Y-104013877D01*
X89122401Y-103938747D01*
X89311562Y-103821624D01*
X89475981Y-103671736D01*
X89610058Y-103494189D01*
X89709229Y-103295028D01*
X89770115Y-103081036D01*
X89790643Y-102859500D01*
X89781968Y-102765879D01*
X90174500Y-102765879D01*
X90174500Y-102953120D01*
X90211025Y-103136743D01*
X90211027Y-103136751D01*
X90282676Y-103309728D01*
X90282681Y-103309737D01*
X90386697Y-103465407D01*
X90386700Y-103465411D01*
X90519088Y-103597799D01*
X90519092Y-103597802D01*
X90674762Y-103701818D01*
X90674768Y-103701821D01*
X90674769Y-103701822D01*
X90847749Y-103773473D01*
X91031379Y-103809999D01*
X91031383Y-103810000D01*
X91031384Y-103810000D01*
X91218617Y-103810000D01*
X91218618Y-103809999D01*
X91402251Y-103773473D01*
X91575231Y-103701822D01*
X91730908Y-103597802D01*
X91863302Y-103465408D01*
X91967322Y-103309731D01*
X92038973Y-103136751D01*
X92075500Y-102953116D01*
X92075500Y-102765884D01*
X92075499Y-102765879D01*
X92714500Y-102765879D01*
X92714500Y-102953120D01*
X92751025Y-103136743D01*
X92751027Y-103136751D01*
X92822676Y-103309728D01*
X92822681Y-103309737D01*
X92926697Y-103465407D01*
X92926700Y-103465411D01*
X93059088Y-103597799D01*
X93059092Y-103597802D01*
X93214762Y-103701818D01*
X93214768Y-103701821D01*
X93214769Y-103701822D01*
X93387749Y-103773473D01*
X93571379Y-103809999D01*
X93571383Y-103810000D01*
X93571384Y-103810000D01*
X93758617Y-103810000D01*
X93758618Y-103809999D01*
X93942251Y-103773473D01*
X94115231Y-103701822D01*
X94270908Y-103597802D01*
X94403302Y-103465408D01*
X94507322Y-103309731D01*
X94578973Y-103136751D01*
X94615500Y-102953116D01*
X94615500Y-102765884D01*
X94578973Y-102582249D01*
X94507322Y-102409269D01*
X94507321Y-102409268D01*
X94507318Y-102409262D01*
X94403302Y-102253592D01*
X94403299Y-102253588D01*
X94270911Y-102121200D01*
X94270907Y-102121197D01*
X94115237Y-102017181D01*
X94115228Y-102017176D01*
X93942251Y-101945527D01*
X93942243Y-101945525D01*
X93758620Y-101909000D01*
X93758616Y-101909000D01*
X93571384Y-101909000D01*
X93571379Y-101909000D01*
X93387756Y-101945525D01*
X93387748Y-101945527D01*
X93214771Y-102017176D01*
X93214762Y-102017181D01*
X93059092Y-102121197D01*
X93059088Y-102121200D01*
X92926700Y-102253588D01*
X92926697Y-102253592D01*
X92822681Y-102409262D01*
X92822676Y-102409271D01*
X92751027Y-102582248D01*
X92751025Y-102582256D01*
X92714500Y-102765879D01*
X92075499Y-102765879D01*
X92038973Y-102582249D01*
X91967322Y-102409269D01*
X91967321Y-102409268D01*
X91967318Y-102409262D01*
X91863302Y-102253592D01*
X91863299Y-102253588D01*
X91730911Y-102121200D01*
X91730907Y-102121197D01*
X91575237Y-102017181D01*
X91575228Y-102017176D01*
X91402251Y-101945527D01*
X91402243Y-101945525D01*
X91218620Y-101909000D01*
X91218616Y-101909000D01*
X91031384Y-101909000D01*
X91031379Y-101909000D01*
X90847756Y-101945525D01*
X90847748Y-101945527D01*
X90674771Y-102017176D01*
X90674762Y-102017181D01*
X90519092Y-102121197D01*
X90519088Y-102121200D01*
X90386700Y-102253588D01*
X90386697Y-102253592D01*
X90282681Y-102409262D01*
X90282676Y-102409271D01*
X90211027Y-102582248D01*
X90211025Y-102582256D01*
X90174500Y-102765879D01*
X89781968Y-102765879D01*
X89770115Y-102637964D01*
X89709229Y-102423972D01*
X89701908Y-102409269D01*
X89610061Y-102224816D01*
X89610056Y-102224808D01*
X89475979Y-102047261D01*
X89311562Y-101897376D01*
X89311560Y-101897374D01*
X89122404Y-101780254D01*
X89122395Y-101780250D01*
X89028956Y-101744052D01*
X88928475Y-101705125D01*
X88873075Y-101662554D01*
X88849484Y-101596788D01*
X88865195Y-101528707D01*
X88915219Y-101479928D01*
X88928466Y-101473877D01*
X89122401Y-101398747D01*
X89311562Y-101281624D01*
X89475981Y-101131736D01*
X89610058Y-100954189D01*
X89709229Y-100755028D01*
X89770115Y-100541036D01*
X89790643Y-100319500D01*
X89781968Y-100225879D01*
X90174500Y-100225879D01*
X90174500Y-100413120D01*
X90211025Y-100596743D01*
X90211027Y-100596751D01*
X90282676Y-100769728D01*
X90282681Y-100769737D01*
X90386697Y-100925407D01*
X90386700Y-100925411D01*
X90519088Y-101057799D01*
X90519092Y-101057802D01*
X90674762Y-101161818D01*
X90674771Y-101161823D01*
X90702416Y-101173274D01*
X90847749Y-101233473D01*
X91031379Y-101269999D01*
X91031383Y-101270000D01*
X91031384Y-101270000D01*
X91218617Y-101270000D01*
X91218618Y-101269999D01*
X91402251Y-101233473D01*
X91575231Y-101161822D01*
X91730908Y-101057802D01*
X91863302Y-100925408D01*
X91967322Y-100769731D01*
X92038973Y-100596751D01*
X92075500Y-100413116D01*
X92075500Y-100225884D01*
X92075499Y-100225879D01*
X92714500Y-100225879D01*
X92714500Y-100413120D01*
X92751025Y-100596743D01*
X92751027Y-100596751D01*
X92822676Y-100769728D01*
X92822681Y-100769737D01*
X92926697Y-100925407D01*
X92926700Y-100925411D01*
X93059088Y-101057799D01*
X93059092Y-101057802D01*
X93214762Y-101161818D01*
X93214771Y-101161823D01*
X93242416Y-101173274D01*
X93387749Y-101233473D01*
X93571379Y-101269999D01*
X93571383Y-101270000D01*
X93571384Y-101270000D01*
X93758617Y-101270000D01*
X93758618Y-101269999D01*
X93942251Y-101233473D01*
X94115231Y-101161822D01*
X94270908Y-101057802D01*
X94403302Y-100925408D01*
X94507322Y-100769731D01*
X94578973Y-100596751D01*
X94615500Y-100413116D01*
X94615500Y-100225884D01*
X94578973Y-100042249D01*
X94507322Y-99869269D01*
X94507321Y-99869268D01*
X94507318Y-99869262D01*
X94403302Y-99713592D01*
X94403299Y-99713588D01*
X94270911Y-99581200D01*
X94270907Y-99581197D01*
X94115237Y-99477181D01*
X94115228Y-99477176D01*
X93942251Y-99405527D01*
X93942243Y-99405525D01*
X93758620Y-99369000D01*
X93758616Y-99369000D01*
X93571384Y-99369000D01*
X93571379Y-99369000D01*
X93387756Y-99405525D01*
X93387748Y-99405527D01*
X93214771Y-99477176D01*
X93214762Y-99477181D01*
X93059092Y-99581197D01*
X93059088Y-99581200D01*
X92926700Y-99713588D01*
X92926697Y-99713592D01*
X92822681Y-99869262D01*
X92822676Y-99869271D01*
X92751027Y-100042248D01*
X92751025Y-100042256D01*
X92714500Y-100225879D01*
X92075499Y-100225879D01*
X92038973Y-100042249D01*
X91967322Y-99869269D01*
X91967321Y-99869268D01*
X91967318Y-99869262D01*
X91863302Y-99713592D01*
X91863299Y-99713588D01*
X91730911Y-99581200D01*
X91730907Y-99581197D01*
X91575237Y-99477181D01*
X91575228Y-99477176D01*
X91402251Y-99405527D01*
X91402243Y-99405525D01*
X91218620Y-99369000D01*
X91218616Y-99369000D01*
X91031384Y-99369000D01*
X91031379Y-99369000D01*
X90847756Y-99405525D01*
X90847748Y-99405527D01*
X90674771Y-99477176D01*
X90674762Y-99477181D01*
X90519092Y-99581197D01*
X90519088Y-99581200D01*
X90386700Y-99713588D01*
X90386697Y-99713592D01*
X90282681Y-99869262D01*
X90282676Y-99869271D01*
X90211027Y-100042248D01*
X90211025Y-100042256D01*
X90174500Y-100225879D01*
X89781968Y-100225879D01*
X89770115Y-100097964D01*
X89709229Y-99883972D01*
X89701908Y-99869269D01*
X89610061Y-99684816D01*
X89610056Y-99684808D01*
X89475979Y-99507261D01*
X89311562Y-99357376D01*
X89311560Y-99357374D01*
X89122404Y-99240254D01*
X89122395Y-99240250D01*
X89028956Y-99204052D01*
X88928475Y-99165125D01*
X88873075Y-99122554D01*
X88849484Y-99056788D01*
X88865195Y-98988707D01*
X88915219Y-98939928D01*
X88928466Y-98933877D01*
X89122401Y-98858747D01*
X89311562Y-98741624D01*
X89475981Y-98591736D01*
X89610058Y-98414189D01*
X89709229Y-98215028D01*
X89770115Y-98001036D01*
X89790643Y-97779500D01*
X89781968Y-97685879D01*
X90174500Y-97685879D01*
X90174500Y-97873120D01*
X90211025Y-98056743D01*
X90211027Y-98056751D01*
X90282676Y-98229728D01*
X90282681Y-98229737D01*
X90386697Y-98385407D01*
X90386700Y-98385411D01*
X90519088Y-98517799D01*
X90519092Y-98517802D01*
X90674762Y-98621818D01*
X90674768Y-98621821D01*
X90674769Y-98621822D01*
X90847749Y-98693473D01*
X90990361Y-98721840D01*
X91031379Y-98729999D01*
X91031383Y-98730000D01*
X91031384Y-98730000D01*
X91218617Y-98730000D01*
X91218618Y-98729999D01*
X91402251Y-98693473D01*
X91575231Y-98621822D01*
X91730908Y-98517802D01*
X91863302Y-98385408D01*
X91967322Y-98229731D01*
X92038973Y-98056751D01*
X92075500Y-97873116D01*
X92075500Y-97685884D01*
X92075499Y-97685879D01*
X92714500Y-97685879D01*
X92714500Y-97873120D01*
X92751025Y-98056743D01*
X92751027Y-98056751D01*
X92822676Y-98229728D01*
X92822681Y-98229737D01*
X92926697Y-98385407D01*
X92926700Y-98385411D01*
X93059088Y-98517799D01*
X93059092Y-98517802D01*
X93214762Y-98621818D01*
X93214768Y-98621821D01*
X93214769Y-98621822D01*
X93387749Y-98693473D01*
X93530361Y-98721840D01*
X93571379Y-98729999D01*
X93571383Y-98730000D01*
X93571384Y-98730000D01*
X93758617Y-98730000D01*
X93758618Y-98729999D01*
X93942251Y-98693473D01*
X94115231Y-98621822D01*
X94270908Y-98517802D01*
X94403302Y-98385408D01*
X94507322Y-98229731D01*
X94578973Y-98056751D01*
X94615500Y-97873116D01*
X94615500Y-97779499D01*
X94999357Y-97779499D01*
X94999357Y-97779500D01*
X95019884Y-98001035D01*
X95019885Y-98001037D01*
X95080769Y-98215023D01*
X95080775Y-98215038D01*
X95179938Y-98414183D01*
X95179943Y-98414191D01*
X95314020Y-98591738D01*
X95478437Y-98741623D01*
X95478439Y-98741625D01*
X95667595Y-98858745D01*
X95667596Y-98858745D01*
X95667599Y-98858747D01*
X95861524Y-98933874D01*
X95916924Y-98976446D01*
X95940515Y-99042213D01*
X95924804Y-99110293D01*
X95874780Y-99159072D01*
X95861533Y-99165122D01*
X95713488Y-99222475D01*
X95667601Y-99240252D01*
X95667595Y-99240254D01*
X95478439Y-99357374D01*
X95478437Y-99357376D01*
X95314020Y-99507261D01*
X95179943Y-99684808D01*
X95179938Y-99684816D01*
X95080775Y-99883961D01*
X95080769Y-99883976D01*
X95019885Y-100097962D01*
X95019884Y-100097964D01*
X94999357Y-100319499D01*
X94999357Y-100319500D01*
X95019884Y-100541035D01*
X95019885Y-100541037D01*
X95080769Y-100755023D01*
X95080775Y-100755038D01*
X95179938Y-100954183D01*
X95179943Y-100954191D01*
X95314020Y-101131738D01*
X95478437Y-101281623D01*
X95478439Y-101281625D01*
X95667595Y-101398745D01*
X95667596Y-101398745D01*
X95667599Y-101398747D01*
X95861524Y-101473874D01*
X95916924Y-101516446D01*
X95940515Y-101582213D01*
X95924804Y-101650293D01*
X95874780Y-101699072D01*
X95861533Y-101705122D01*
X95713488Y-101762475D01*
X95667601Y-101780252D01*
X95667595Y-101780254D01*
X95478439Y-101897374D01*
X95478437Y-101897376D01*
X95314020Y-102047261D01*
X95179943Y-102224808D01*
X95179938Y-102224816D01*
X95080775Y-102423961D01*
X95080769Y-102423976D01*
X95019885Y-102637962D01*
X95019884Y-102637964D01*
X94999357Y-102859499D01*
X94999357Y-102859500D01*
X95019884Y-103081035D01*
X95019885Y-103081037D01*
X95080769Y-103295023D01*
X95080775Y-103295038D01*
X95179938Y-103494183D01*
X95179943Y-103494191D01*
X95314020Y-103671738D01*
X95478437Y-103821623D01*
X95478439Y-103821625D01*
X95667595Y-103938745D01*
X95667596Y-103938745D01*
X95667599Y-103938747D01*
X95861524Y-104013874D01*
X95916924Y-104056446D01*
X95940515Y-104122213D01*
X95924804Y-104190293D01*
X95874780Y-104239072D01*
X95861533Y-104245122D01*
X95713488Y-104302475D01*
X95667601Y-104320252D01*
X95667595Y-104320254D01*
X95478439Y-104437374D01*
X95478437Y-104437376D01*
X95314020Y-104587261D01*
X95179943Y-104764808D01*
X95179938Y-104764816D01*
X95080775Y-104963961D01*
X95080769Y-104963976D01*
X95019885Y-105177962D01*
X95019884Y-105177964D01*
X94999357Y-105399499D01*
X94999357Y-105399500D01*
X95019884Y-105621035D01*
X95019885Y-105621037D01*
X95080769Y-105835023D01*
X95080775Y-105835038D01*
X95179938Y-106034183D01*
X95179943Y-106034191D01*
X95314020Y-106211738D01*
X95478437Y-106361623D01*
X95478439Y-106361625D01*
X95667595Y-106478745D01*
X95667596Y-106478745D01*
X95667599Y-106478747D01*
X95861524Y-106553874D01*
X95916924Y-106596446D01*
X95940515Y-106662213D01*
X95924804Y-106730293D01*
X95874780Y-106779072D01*
X95861533Y-106785122D01*
X95713488Y-106842475D01*
X95667601Y-106860252D01*
X95667595Y-106860254D01*
X95478439Y-106977374D01*
X95478437Y-106977376D01*
X95314020Y-107127261D01*
X95179943Y-107304808D01*
X95179938Y-107304816D01*
X95080775Y-107503961D01*
X95080769Y-107503976D01*
X95019885Y-107717962D01*
X95019884Y-107717964D01*
X94999357Y-107939499D01*
X94999357Y-107939500D01*
X95019884Y-108161035D01*
X95019885Y-108161037D01*
X95080769Y-108375023D01*
X95080775Y-108375038D01*
X95179938Y-108574183D01*
X95179943Y-108574191D01*
X95314020Y-108751738D01*
X95478437Y-108901623D01*
X95478439Y-108901625D01*
X95667595Y-109018745D01*
X95667596Y-109018745D01*
X95667599Y-109018747D01*
X95875060Y-109099118D01*
X96093757Y-109140000D01*
X96093759Y-109140000D01*
X96316241Y-109140000D01*
X96316243Y-109140000D01*
X96534940Y-109099118D01*
X96742401Y-109018747D01*
X96931562Y-108901624D01*
X97095981Y-108751736D01*
X97230058Y-108574189D01*
X97329229Y-108375028D01*
X97355734Y-108281871D01*
X97393013Y-108222778D01*
X97456323Y-108193221D01*
X97525562Y-108202583D01*
X97578749Y-108247893D01*
X97594266Y-108281872D01*
X97620769Y-108375023D01*
X97620775Y-108375038D01*
X97719938Y-108574183D01*
X97719943Y-108574191D01*
X97854020Y-108751738D01*
X98018437Y-108901623D01*
X98018439Y-108901625D01*
X98207595Y-109018745D01*
X98207596Y-109018745D01*
X98207599Y-109018747D01*
X98415060Y-109099118D01*
X98633757Y-109140000D01*
X98633759Y-109140000D01*
X98856241Y-109140000D01*
X98856243Y-109140000D01*
X99074940Y-109099118D01*
X99282401Y-109018747D01*
X99471562Y-108901624D01*
X99635981Y-108751736D01*
X99770058Y-108574189D01*
X99869229Y-108375028D01*
X99895734Y-108281871D01*
X99933013Y-108222778D01*
X99996323Y-108193221D01*
X100065562Y-108202583D01*
X100118749Y-108247893D01*
X100134266Y-108281872D01*
X100160769Y-108375023D01*
X100160775Y-108375038D01*
X100259938Y-108574183D01*
X100259943Y-108574191D01*
X100394020Y-108751738D01*
X100558437Y-108901623D01*
X100558439Y-108901625D01*
X100747595Y-109018745D01*
X100747596Y-109018745D01*
X100747599Y-109018747D01*
X100955060Y-109099118D01*
X101173757Y-109140000D01*
X101173759Y-109140000D01*
X101396241Y-109140000D01*
X101396243Y-109140000D01*
X101614940Y-109099118D01*
X101822401Y-109018747D01*
X102011562Y-108901624D01*
X102175981Y-108751736D01*
X102310058Y-108574189D01*
X102409229Y-108375028D01*
X102435734Y-108281871D01*
X102473013Y-108222778D01*
X102536323Y-108193221D01*
X102605562Y-108202583D01*
X102658749Y-108247893D01*
X102674266Y-108281872D01*
X102700769Y-108375023D01*
X102700775Y-108375038D01*
X102799938Y-108574183D01*
X102799943Y-108574191D01*
X102934020Y-108751738D01*
X103098437Y-108901623D01*
X103098439Y-108901625D01*
X103287595Y-109018745D01*
X103287596Y-109018745D01*
X103287599Y-109018747D01*
X103495060Y-109099118D01*
X103713757Y-109140000D01*
X103713759Y-109140000D01*
X103936241Y-109140000D01*
X103936243Y-109140000D01*
X104154940Y-109099118D01*
X104362401Y-109018747D01*
X104551562Y-108901624D01*
X104715981Y-108751736D01*
X104850058Y-108574189D01*
X104949229Y-108375028D01*
X104975734Y-108281871D01*
X105013013Y-108222778D01*
X105076323Y-108193221D01*
X105145562Y-108202583D01*
X105198749Y-108247893D01*
X105214266Y-108281872D01*
X105240769Y-108375023D01*
X105240775Y-108375038D01*
X105339938Y-108574183D01*
X105339943Y-108574191D01*
X105474020Y-108751738D01*
X105638437Y-108901623D01*
X105638439Y-108901625D01*
X105827595Y-109018745D01*
X105827596Y-109018745D01*
X105827599Y-109018747D01*
X106035060Y-109099118D01*
X106253757Y-109140000D01*
X106253759Y-109140000D01*
X106476241Y-109140000D01*
X106476243Y-109140000D01*
X106694940Y-109099118D01*
X106902401Y-109018747D01*
X107091562Y-108901624D01*
X107255981Y-108751736D01*
X107390058Y-108574189D01*
X107489229Y-108375028D01*
X107550115Y-108161036D01*
X107570643Y-107939500D01*
X107570643Y-107939498D01*
X108279532Y-107939498D01*
X108279532Y-107939501D01*
X108299364Y-108166186D01*
X108299366Y-108166197D01*
X108358258Y-108385988D01*
X108358261Y-108385997D01*
X108454431Y-108592232D01*
X108454432Y-108592234D01*
X108584954Y-108778641D01*
X108745858Y-108939545D01*
X108745861Y-108939547D01*
X108932266Y-109070068D01*
X109138504Y-109166239D01*
X109358308Y-109225135D01*
X109520230Y-109239301D01*
X109584998Y-109244968D01*
X109585000Y-109244968D01*
X109585002Y-109244968D01*
X109641673Y-109240009D01*
X109811692Y-109225135D01*
X110031496Y-109166239D01*
X110237734Y-109070068D01*
X110424139Y-108939547D01*
X110585047Y-108778639D01*
X110715568Y-108592234D01*
X110811739Y-108385996D01*
X110870635Y-108166192D01*
X110890468Y-107939500D01*
X110870635Y-107712808D01*
X110811739Y-107493004D01*
X110715568Y-107286766D01*
X110585047Y-107100361D01*
X110585045Y-107100358D01*
X110424141Y-106939454D01*
X110237734Y-106808932D01*
X110237732Y-106808931D01*
X110031497Y-106712761D01*
X110031488Y-106712758D01*
X109811697Y-106653866D01*
X109811693Y-106653865D01*
X109811692Y-106653865D01*
X109811691Y-106653864D01*
X109811686Y-106653864D01*
X109585002Y-106634032D01*
X109584998Y-106634032D01*
X109358313Y-106653864D01*
X109358302Y-106653866D01*
X109138511Y-106712758D01*
X109138502Y-106712761D01*
X108932267Y-106808931D01*
X108932265Y-106808932D01*
X108745858Y-106939454D01*
X108584954Y-107100358D01*
X108454432Y-107286765D01*
X108454431Y-107286767D01*
X108358261Y-107493002D01*
X108358258Y-107493011D01*
X108299366Y-107712802D01*
X108299364Y-107712813D01*
X108279532Y-107939498D01*
X107570643Y-107939498D01*
X107550115Y-107717964D01*
X107489229Y-107503972D01*
X107489224Y-107503961D01*
X107390061Y-107304816D01*
X107390056Y-107304808D01*
X107255979Y-107127261D01*
X107091562Y-106977376D01*
X107091560Y-106977374D01*
X106902404Y-106860254D01*
X106902395Y-106860250D01*
X106808956Y-106824052D01*
X106708475Y-106785125D01*
X106653075Y-106742554D01*
X106629484Y-106676788D01*
X106645195Y-106608707D01*
X106695219Y-106559928D01*
X106708466Y-106553877D01*
X106902401Y-106478747D01*
X107091562Y-106361624D01*
X107255981Y-106211736D01*
X107390058Y-106034189D01*
X107489229Y-105835028D01*
X107550115Y-105621036D01*
X107570643Y-105399500D01*
X107550115Y-105177964D01*
X107489229Y-104963972D01*
X107488825Y-104963160D01*
X107390061Y-104764816D01*
X107390056Y-104764808D01*
X107255979Y-104587261D01*
X107091562Y-104437376D01*
X107091560Y-104437374D01*
X106902404Y-104320254D01*
X106902395Y-104320250D01*
X106808956Y-104284052D01*
X106708475Y-104245125D01*
X106653075Y-104202554D01*
X106629484Y-104136788D01*
X106645195Y-104068707D01*
X106695219Y-104019928D01*
X106708466Y-104013877D01*
X106902401Y-103938747D01*
X107091562Y-103821624D01*
X107255981Y-103671736D01*
X107390058Y-103494189D01*
X107489229Y-103295028D01*
X107550115Y-103081036D01*
X107570643Y-102859500D01*
X107550115Y-102637964D01*
X107489229Y-102423972D01*
X107481908Y-102409269D01*
X107390061Y-102224816D01*
X107390056Y-102224808D01*
X107255979Y-102047261D01*
X107091562Y-101897376D01*
X107091560Y-101897374D01*
X106902404Y-101780254D01*
X106902395Y-101780250D01*
X106808956Y-101744052D01*
X106708475Y-101705125D01*
X106653075Y-101662554D01*
X106629484Y-101596788D01*
X106645195Y-101528707D01*
X106695219Y-101479928D01*
X106708466Y-101473877D01*
X106902401Y-101398747D01*
X107091562Y-101281624D01*
X107255981Y-101131736D01*
X107390058Y-100954189D01*
X107489229Y-100755028D01*
X107550115Y-100541036D01*
X107570643Y-100319500D01*
X107550115Y-100097964D01*
X107489229Y-99883972D01*
X107481908Y-99869269D01*
X107390061Y-99684816D01*
X107390056Y-99684808D01*
X107255979Y-99507261D01*
X107091562Y-99357376D01*
X107091560Y-99357374D01*
X106902404Y-99240254D01*
X106902395Y-99240250D01*
X106808956Y-99204052D01*
X106708475Y-99165125D01*
X106653075Y-99122554D01*
X106629484Y-99056788D01*
X106645195Y-98988707D01*
X106695219Y-98939928D01*
X106708466Y-98933877D01*
X106902401Y-98858747D01*
X107091562Y-98741624D01*
X107255981Y-98591736D01*
X107390058Y-98414189D01*
X107489229Y-98215028D01*
X107550115Y-98001036D01*
X107570643Y-97779500D01*
X107570643Y-97779498D01*
X108279532Y-97779498D01*
X108279532Y-97779501D01*
X108299364Y-98006186D01*
X108299366Y-98006197D01*
X108358258Y-98225988D01*
X108358261Y-98225997D01*
X108454431Y-98432232D01*
X108454432Y-98432234D01*
X108584954Y-98618641D01*
X108745858Y-98779545D01*
X108745861Y-98779547D01*
X108932266Y-98910068D01*
X109138504Y-99006239D01*
X109358308Y-99065135D01*
X109520230Y-99079301D01*
X109584998Y-99084968D01*
X109585000Y-99084968D01*
X109585002Y-99084968D01*
X109641673Y-99080009D01*
X109811692Y-99065135D01*
X110031496Y-99006239D01*
X110237734Y-98910068D01*
X110424139Y-98779547D01*
X110585047Y-98618639D01*
X110715568Y-98432234D01*
X110811739Y-98225996D01*
X110870635Y-98006192D01*
X110890468Y-97779500D01*
X110870635Y-97552808D01*
X110811739Y-97333004D01*
X110715568Y-97126766D01*
X110585047Y-96940361D01*
X110585045Y-96940358D01*
X110424141Y-96779454D01*
X110237734Y-96648932D01*
X110237732Y-96648931D01*
X110031497Y-96552761D01*
X110031488Y-96552758D01*
X109811697Y-96493866D01*
X109811693Y-96493865D01*
X109811692Y-96493865D01*
X109811691Y-96493864D01*
X109811686Y-96493864D01*
X109585002Y-96474032D01*
X109584998Y-96474032D01*
X109358313Y-96493864D01*
X109358302Y-96493866D01*
X109138511Y-96552758D01*
X109138502Y-96552761D01*
X108932267Y-96648931D01*
X108932265Y-96648932D01*
X108745858Y-96779454D01*
X108584954Y-96940358D01*
X108454432Y-97126765D01*
X108454431Y-97126767D01*
X108358261Y-97333002D01*
X108358258Y-97333011D01*
X108299366Y-97552802D01*
X108299364Y-97552813D01*
X108279532Y-97779498D01*
X107570643Y-97779498D01*
X107550115Y-97557964D01*
X107489229Y-97343972D01*
X107489224Y-97343961D01*
X107390061Y-97144816D01*
X107390056Y-97144808D01*
X107255979Y-96967261D01*
X107091562Y-96817376D01*
X107091560Y-96817374D01*
X106902404Y-96700254D01*
X106902398Y-96700252D01*
X106694940Y-96619882D01*
X106476243Y-96579000D01*
X106253757Y-96579000D01*
X106035060Y-96619882D01*
X105920200Y-96664379D01*
X105827601Y-96700252D01*
X105827595Y-96700254D01*
X105638439Y-96817374D01*
X105638437Y-96817376D01*
X105474020Y-96967261D01*
X105339943Y-97144808D01*
X105339938Y-97144816D01*
X105240775Y-97343961D01*
X105240769Y-97343976D01*
X105214266Y-97437127D01*
X105176987Y-97496221D01*
X105113677Y-97525778D01*
X105044438Y-97516416D01*
X104991251Y-97471106D01*
X104975734Y-97437127D01*
X104949230Y-97343976D01*
X104949229Y-97343972D01*
X104949224Y-97343961D01*
X104850061Y-97144816D01*
X104850056Y-97144808D01*
X104715979Y-96967261D01*
X104551562Y-96817376D01*
X104551560Y-96817374D01*
X104362404Y-96700254D01*
X104362398Y-96700252D01*
X104154940Y-96619882D01*
X103936243Y-96579000D01*
X103713757Y-96579000D01*
X103495060Y-96619882D01*
X103380200Y-96664379D01*
X103287601Y-96700252D01*
X103287595Y-96700254D01*
X103098439Y-96817374D01*
X103098437Y-96817376D01*
X102934020Y-96967261D01*
X102799943Y-97144808D01*
X102799938Y-97144816D01*
X102700775Y-97343961D01*
X102700769Y-97343976D01*
X102674266Y-97437127D01*
X102636987Y-97496221D01*
X102573677Y-97525778D01*
X102504438Y-97516416D01*
X102451251Y-97471106D01*
X102435734Y-97437127D01*
X102409230Y-97343976D01*
X102409229Y-97343972D01*
X102409224Y-97343961D01*
X102310061Y-97144816D01*
X102310056Y-97144808D01*
X102175979Y-96967261D01*
X102011562Y-96817376D01*
X102011560Y-96817374D01*
X101822404Y-96700254D01*
X101822398Y-96700252D01*
X101614940Y-96619882D01*
X101396243Y-96579000D01*
X101173757Y-96579000D01*
X100955060Y-96619882D01*
X100840200Y-96664379D01*
X100747601Y-96700252D01*
X100747595Y-96700254D01*
X100558439Y-96817374D01*
X100558437Y-96817376D01*
X100394020Y-96967261D01*
X100259943Y-97144808D01*
X100259938Y-97144816D01*
X100160775Y-97343961D01*
X100160769Y-97343976D01*
X100134266Y-97437127D01*
X100096987Y-97496221D01*
X100033677Y-97525778D01*
X99964438Y-97516416D01*
X99911251Y-97471106D01*
X99895734Y-97437127D01*
X99869230Y-97343976D01*
X99869229Y-97343972D01*
X99869224Y-97343961D01*
X99770061Y-97144816D01*
X99770056Y-97144808D01*
X99635979Y-96967261D01*
X99471562Y-96817376D01*
X99471560Y-96817374D01*
X99282404Y-96700254D01*
X99282398Y-96700252D01*
X99074940Y-96619882D01*
X98856243Y-96579000D01*
X98633757Y-96579000D01*
X98415060Y-96619882D01*
X98300200Y-96664379D01*
X98207601Y-96700252D01*
X98207595Y-96700254D01*
X98018439Y-96817374D01*
X98018437Y-96817376D01*
X97854020Y-96967261D01*
X97719943Y-97144808D01*
X97719938Y-97144816D01*
X97620775Y-97343961D01*
X97620769Y-97343976D01*
X97594266Y-97437127D01*
X97556987Y-97496221D01*
X97493677Y-97525778D01*
X97424438Y-97516416D01*
X97371251Y-97471106D01*
X97355734Y-97437127D01*
X97329230Y-97343976D01*
X97329229Y-97343972D01*
X97329224Y-97343961D01*
X97230061Y-97144816D01*
X97230056Y-97144808D01*
X97095979Y-96967261D01*
X96931562Y-96817376D01*
X96931560Y-96817374D01*
X96742404Y-96700254D01*
X96742398Y-96700252D01*
X96534940Y-96619882D01*
X96316243Y-96579000D01*
X96093757Y-96579000D01*
X95875060Y-96619882D01*
X95760200Y-96664379D01*
X95667601Y-96700252D01*
X95667595Y-96700254D01*
X95478439Y-96817374D01*
X95478437Y-96817376D01*
X95314020Y-96967261D01*
X95179943Y-97144808D01*
X95179938Y-97144816D01*
X95080775Y-97343961D01*
X95080769Y-97343976D01*
X95019885Y-97557962D01*
X95019884Y-97557964D01*
X94999357Y-97779499D01*
X94615500Y-97779499D01*
X94615500Y-97685884D01*
X94578973Y-97502249D01*
X94507322Y-97329269D01*
X94507321Y-97329268D01*
X94507318Y-97329262D01*
X94403302Y-97173592D01*
X94403299Y-97173588D01*
X94270911Y-97041200D01*
X94270907Y-97041197D01*
X94115237Y-96937181D01*
X94115228Y-96937176D01*
X93942251Y-96865527D01*
X93942243Y-96865525D01*
X93758620Y-96829000D01*
X93758616Y-96829000D01*
X93571384Y-96829000D01*
X93571379Y-96829000D01*
X93387756Y-96865525D01*
X93387748Y-96865527D01*
X93214771Y-96937176D01*
X93214762Y-96937181D01*
X93059092Y-97041197D01*
X93059088Y-97041200D01*
X92926700Y-97173588D01*
X92926697Y-97173592D01*
X92822681Y-97329262D01*
X92822676Y-97329271D01*
X92751027Y-97502248D01*
X92751025Y-97502256D01*
X92714500Y-97685879D01*
X92075499Y-97685879D01*
X92038973Y-97502249D01*
X91967322Y-97329269D01*
X91967321Y-97329268D01*
X91967318Y-97329262D01*
X91863302Y-97173592D01*
X91863299Y-97173588D01*
X91730911Y-97041200D01*
X91730907Y-97041197D01*
X91575237Y-96937181D01*
X91575228Y-96937176D01*
X91402251Y-96865527D01*
X91402243Y-96865525D01*
X91218620Y-96829000D01*
X91218616Y-96829000D01*
X91031384Y-96829000D01*
X91031379Y-96829000D01*
X90847756Y-96865525D01*
X90847748Y-96865527D01*
X90674771Y-96937176D01*
X90674762Y-96937181D01*
X90519092Y-97041197D01*
X90519088Y-97041200D01*
X90386700Y-97173588D01*
X90386697Y-97173592D01*
X90282681Y-97329262D01*
X90282676Y-97329271D01*
X90211027Y-97502248D01*
X90211025Y-97502256D01*
X90174500Y-97685879D01*
X89781968Y-97685879D01*
X89770115Y-97557964D01*
X89709229Y-97343972D01*
X89709224Y-97343961D01*
X89610061Y-97144816D01*
X89610056Y-97144808D01*
X89475979Y-96967261D01*
X89311562Y-96817376D01*
X89311560Y-96817374D01*
X89122404Y-96700254D01*
X89122398Y-96700252D01*
X88914940Y-96619882D01*
X88696243Y-96579000D01*
X88473757Y-96579000D01*
X88255060Y-96619882D01*
X88140200Y-96664379D01*
X88047601Y-96700252D01*
X88047595Y-96700254D01*
X87858439Y-96817374D01*
X87858437Y-96817376D01*
X87694020Y-96967261D01*
X87559943Y-97144808D01*
X87559938Y-97144816D01*
X87460775Y-97343961D01*
X87460769Y-97343976D01*
X87434266Y-97437127D01*
X87396987Y-97496221D01*
X87333677Y-97525778D01*
X87264438Y-97516416D01*
X87211251Y-97471106D01*
X87195734Y-97437127D01*
X87169230Y-97343976D01*
X87169229Y-97343972D01*
X87169224Y-97343961D01*
X87070061Y-97144816D01*
X87070056Y-97144808D01*
X86935979Y-96967261D01*
X86771562Y-96817376D01*
X86771560Y-96817374D01*
X86582404Y-96700254D01*
X86582398Y-96700252D01*
X86374940Y-96619882D01*
X86156243Y-96579000D01*
X85933757Y-96579000D01*
X85715060Y-96619882D01*
X85600200Y-96664379D01*
X85507601Y-96700252D01*
X85507595Y-96700254D01*
X85318439Y-96817374D01*
X85318437Y-96817376D01*
X85154020Y-96967261D01*
X85019943Y-97144808D01*
X85019938Y-97144816D01*
X84920775Y-97343961D01*
X84920769Y-97343976D01*
X84894266Y-97437127D01*
X84856987Y-97496221D01*
X84793677Y-97525778D01*
X84724438Y-97516416D01*
X84671251Y-97471106D01*
X84655734Y-97437127D01*
X84629230Y-97343976D01*
X84629229Y-97343972D01*
X84629224Y-97343961D01*
X84530061Y-97144816D01*
X84530056Y-97144808D01*
X84395979Y-96967261D01*
X84231562Y-96817376D01*
X84231560Y-96817374D01*
X84042404Y-96700254D01*
X84042398Y-96700252D01*
X83834940Y-96619882D01*
X83616243Y-96579000D01*
X83393757Y-96579000D01*
X83175060Y-96619882D01*
X83060200Y-96664379D01*
X82967601Y-96700252D01*
X82967595Y-96700254D01*
X82778439Y-96817374D01*
X82778437Y-96817376D01*
X82614020Y-96967261D01*
X82479943Y-97144808D01*
X82479938Y-97144816D01*
X82380775Y-97343961D01*
X82380769Y-97343976D01*
X82354266Y-97437127D01*
X82316987Y-97496221D01*
X82253677Y-97525778D01*
X82184438Y-97516416D01*
X82131251Y-97471106D01*
X82115734Y-97437127D01*
X82089230Y-97343976D01*
X82089229Y-97343972D01*
X82089224Y-97343961D01*
X81990061Y-97144816D01*
X81990056Y-97144808D01*
X81855979Y-96967261D01*
X81691562Y-96817376D01*
X81691560Y-96817374D01*
X81502404Y-96700254D01*
X81502398Y-96700252D01*
X81294940Y-96619882D01*
X81076243Y-96579000D01*
X80853757Y-96579000D01*
X80635060Y-96619882D01*
X80520200Y-96664379D01*
X80427601Y-96700252D01*
X80427595Y-96700254D01*
X80238439Y-96817374D01*
X80238437Y-96817376D01*
X80074020Y-96967261D01*
X79939943Y-97144808D01*
X79939938Y-97144816D01*
X79840775Y-97343961D01*
X79840769Y-97343976D01*
X79814266Y-97437127D01*
X79776987Y-97496221D01*
X79713677Y-97525778D01*
X79644438Y-97516416D01*
X79591251Y-97471106D01*
X79575734Y-97437127D01*
X79549230Y-97343976D01*
X79549229Y-97343972D01*
X79549224Y-97343961D01*
X79450061Y-97144816D01*
X79450056Y-97144808D01*
X79315979Y-96967261D01*
X79151562Y-96817376D01*
X79151560Y-96817374D01*
X78962404Y-96700254D01*
X78962398Y-96700252D01*
X78754940Y-96619882D01*
X78536243Y-96579000D01*
X78313757Y-96579000D01*
X78095060Y-96619882D01*
X77980200Y-96664379D01*
X77887601Y-96700252D01*
X77887595Y-96700254D01*
X77698439Y-96817374D01*
X77698437Y-96817376D01*
X77534020Y-96967261D01*
X77399943Y-97144808D01*
X77399938Y-97144816D01*
X77300775Y-97343961D01*
X77300769Y-97343976D01*
X77239885Y-97557962D01*
X77239884Y-97557964D01*
X77219357Y-97779499D01*
X75922304Y-97779499D01*
X75857468Y-97573864D01*
X75687027Y-97162382D01*
X75687025Y-97162377D01*
X75481376Y-96767330D01*
X75481374Y-96767327D01*
X75481371Y-96767321D01*
X75242065Y-96391686D01*
X75242062Y-96391681D01*
X74970937Y-96038344D01*
X74970933Y-96038339D01*
X74670034Y-95709966D01*
X74670033Y-95709965D01*
X74341660Y-95409066D01*
X74341655Y-95409062D01*
X73988318Y-95137937D01*
X73814875Y-95027442D01*
X73612680Y-94898629D01*
X73612671Y-94898624D01*
X73612669Y-94898623D01*
X73612670Y-94898623D01*
X73217622Y-94692974D01*
X72806152Y-94522538D01*
X72806139Y-94522533D01*
X72381369Y-94388603D01*
X71946532Y-94292202D01*
X71946523Y-94292201D01*
X71504959Y-94234067D01*
X71060000Y-94214641D01*
X70615040Y-94234067D01*
X70173476Y-94292201D01*
X70173467Y-94292202D01*
X69738630Y-94388603D01*
X69313860Y-94522533D01*
X69313847Y-94522538D01*
X68902377Y-94692974D01*
X68507330Y-94898623D01*
X68131681Y-95137937D01*
X67778344Y-95409062D01*
X67778339Y-95409066D01*
X67449966Y-95709965D01*
X67449965Y-95709966D01*
X67149066Y-96038339D01*
X67149062Y-96038344D01*
X66877937Y-96391681D01*
X66638623Y-96767330D01*
X66432974Y-97162377D01*
X66262538Y-97573847D01*
X66262533Y-97573860D01*
X66128603Y-97998630D01*
X66032202Y-98433467D01*
X66032201Y-98433476D01*
X65974067Y-98875040D01*
X65954641Y-99320000D01*
X65315320Y-99320000D01*
X65296052Y-98915506D01*
X65238421Y-98514675D01*
X65142950Y-98121138D01*
X65131444Y-98087893D01*
X65010507Y-97738466D01*
X65010505Y-97738462D01*
X64986493Y-97685884D01*
X64842279Y-97370100D01*
X64827196Y-97343976D01*
X64639799Y-97019393D01*
X64639793Y-97019385D01*
X64404916Y-96689547D01*
X64404905Y-96689534D01*
X64383108Y-96664379D01*
X64139720Y-96383493D01*
X63846642Y-96104044D01*
X63528328Y-95853719D01*
X63187660Y-95634785D01*
X62827724Y-95449225D01*
X62827723Y-95449224D01*
X62827720Y-95449223D01*
X62827716Y-95449221D01*
X62451780Y-95298719D01*
X62451768Y-95298715D01*
X62063235Y-95184632D01*
X62063218Y-95184628D01*
X61665610Y-95107995D01*
X61665598Y-95107993D01*
X61531222Y-95095162D01*
X61262476Y-95069500D01*
X60857524Y-95069500D01*
X60615652Y-95092595D01*
X60454401Y-95107993D01*
X60454389Y-95107995D01*
X60056781Y-95184628D01*
X60056764Y-95184632D01*
X59668231Y-95298715D01*
X59668219Y-95298719D01*
X59292283Y-95449221D01*
X59292279Y-95449223D01*
X58932343Y-95634783D01*
X58591683Y-95853711D01*
X58591676Y-95853716D01*
X58591672Y-95853719D01*
X58531696Y-95900885D01*
X58273359Y-96104043D01*
X58273357Y-96104044D01*
X57980283Y-96383490D01*
X57980281Y-96383492D01*
X57715094Y-96689534D01*
X57715083Y-96689547D01*
X57480206Y-97019385D01*
X57480200Y-97019393D01*
X57277725Y-97370091D01*
X57277717Y-97370107D01*
X57109494Y-97738462D01*
X57109492Y-97738466D01*
X56977053Y-98121125D01*
X56977050Y-98121136D01*
X56881579Y-98514673D01*
X56823948Y-98915501D01*
X56804680Y-99320000D01*
X56365348Y-99320000D01*
X56345972Y-98962629D01*
X56342250Y-98939928D01*
X56288073Y-98609460D01*
X56288072Y-98609459D01*
X56288071Y-98609448D01*
X56239210Y-98433467D01*
X56192327Y-98264607D01*
X56192325Y-98264600D01*
X56178434Y-98229737D01*
X56112241Y-98063603D01*
X56059857Y-97932129D01*
X56059848Y-97932111D01*
X56042361Y-97899128D01*
X55957179Y-97738457D01*
X55892215Y-97615922D01*
X55892213Y-97615919D01*
X55892211Y-97615915D01*
X55691365Y-97319689D01*
X55691361Y-97319684D01*
X55691358Y-97319680D01*
X55459668Y-97046914D01*
X55430606Y-97019385D01*
X55199837Y-96800789D01*
X55199830Y-96800783D01*
X55199827Y-96800781D01*
X55067584Y-96700253D01*
X54914919Y-96584200D01*
X54608253Y-96399685D01*
X54608252Y-96399684D01*
X54608248Y-96399682D01*
X54608244Y-96399680D01*
X54283447Y-96249414D01*
X54283441Y-96249411D01*
X54283435Y-96249409D01*
X54113854Y-96192270D01*
X53944273Y-96135131D01*
X53594744Y-96058194D01*
X53238949Y-96019500D01*
X53238948Y-96019500D01*
X52881052Y-96019500D01*
X52881050Y-96019500D01*
X52525255Y-96058194D01*
X52175726Y-96135131D01*
X51919970Y-96221306D01*
X51836565Y-96249409D01*
X51836563Y-96249410D01*
X51836552Y-96249414D01*
X51511755Y-96399680D01*
X51511751Y-96399682D01*
X51350349Y-96496795D01*
X51205081Y-96584200D01*
X51116768Y-96651333D01*
X50920172Y-96800781D01*
X50920163Y-96800789D01*
X50660331Y-97046914D01*
X50428641Y-97319680D01*
X50428634Y-97319690D01*
X50227790Y-97615913D01*
X50227784Y-97615922D01*
X50060151Y-97932111D01*
X50060142Y-97932129D01*
X49927674Y-98264600D01*
X49927672Y-98264607D01*
X49831932Y-98609434D01*
X49831926Y-98609460D01*
X49774029Y-98962614D01*
X49774028Y-98962627D01*
X49774028Y-98962629D01*
X49754652Y-99320000D01*
X49415331Y-99320000D01*
X49415331Y-99319996D01*
X49410686Y-99240250D01*
X49396024Y-98988516D01*
X49394522Y-98980000D01*
X49338368Y-98661532D01*
X49338367Y-98661531D01*
X49338365Y-98661515D01*
X49243133Y-98343419D01*
X49111617Y-98038530D01*
X49016115Y-97873116D01*
X48945593Y-97750968D01*
X48747321Y-97484643D01*
X48747314Y-97484635D01*
X48747310Y-97484629D01*
X48519447Y-97243107D01*
X48346432Y-97097931D01*
X48265087Y-97029674D01*
X48265079Y-97029668D01*
X47987669Y-96847212D01*
X47690946Y-96698192D01*
X47690940Y-96698189D01*
X47378930Y-96584627D01*
X47378909Y-96584620D01*
X47055838Y-96508050D01*
X47055823Y-96508048D01*
X46726023Y-96469500D01*
X46393977Y-96469500D01*
X46105402Y-96503229D01*
X46064176Y-96508048D01*
X46064161Y-96508050D01*
X45741090Y-96584620D01*
X45741069Y-96584627D01*
X45429059Y-96698189D01*
X45429053Y-96698192D01*
X45132330Y-96847212D01*
X44854920Y-97029668D01*
X44854912Y-97029674D01*
X44683403Y-97173588D01*
X44600553Y-97243107D01*
X44372690Y-97484629D01*
X44372687Y-97484632D01*
X44372685Y-97484635D01*
X44372678Y-97484643D01*
X44174406Y-97750968D01*
X44008385Y-98038525D01*
X44008379Y-98038538D01*
X43876866Y-98343419D01*
X43781634Y-98661518D01*
X43781631Y-98661532D01*
X43723977Y-98988504D01*
X43723976Y-98988515D01*
X43708591Y-99252660D01*
X43685042Y-99318442D01*
X43680528Y-99321914D01*
X43484602Y-99321914D01*
X43484901Y-99321092D01*
X43489067Y-99317916D01*
X43463994Y-99273408D01*
X43461046Y-99253236D01*
X43446281Y-99018553D01*
X43446280Y-99018546D01*
X43446280Y-99018543D01*
X43389681Y-98721840D01*
X43296341Y-98434570D01*
X43286751Y-98414191D01*
X43216633Y-98265182D01*
X43167733Y-98161264D01*
X43069325Y-98006197D01*
X43005888Y-97906236D01*
X43005885Y-97906232D01*
X42813349Y-97673496D01*
X42707735Y-97574318D01*
X42593163Y-97466727D01*
X42593153Y-97466719D01*
X42348806Y-97289191D01*
X42348799Y-97289186D01*
X42348795Y-97289184D01*
X42084104Y-97143668D01*
X42084101Y-97143666D01*
X42084096Y-97143664D01*
X42084095Y-97143663D01*
X41803265Y-97032475D01*
X41803262Y-97032474D01*
X41510695Y-96957357D01*
X41211036Y-96919500D01*
X41211027Y-96919500D01*
X40908973Y-96919500D01*
X40908963Y-96919500D01*
X40609304Y-96957357D01*
X40316737Y-97032474D01*
X40316734Y-97032475D01*
X40035904Y-97143663D01*
X40035903Y-97143664D01*
X39771205Y-97289184D01*
X39771193Y-97289191D01*
X39526846Y-97466719D01*
X39526836Y-97466727D01*
X39306652Y-97673494D01*
X39114111Y-97906236D01*
X38952268Y-98161261D01*
X38952265Y-98161267D01*
X38823661Y-98434563D01*
X38823659Y-98434568D01*
X38730320Y-98721835D01*
X38673719Y-99018546D01*
X38673718Y-99018553D01*
X38654754Y-99319994D01*
X36560000Y-99319994D01*
X36560000Y-83944000D01*
X36579685Y-83876961D01*
X36632489Y-83831206D01*
X36684000Y-83820000D01*
X241436000Y-83820000D01*
X241503039Y-83839685D01*
G37*
G04 #@! TD.AperFunction*
G04 #@! TA.AperFunction,NonConductor*
G36*
X105145562Y-98042583D02*
G01*
X105198749Y-98087893D01*
X105214266Y-98121872D01*
X105240769Y-98215023D01*
X105240775Y-98215038D01*
X105339938Y-98414183D01*
X105339943Y-98414191D01*
X105474020Y-98591738D01*
X105638437Y-98741623D01*
X105638439Y-98741625D01*
X105827595Y-98858745D01*
X105827596Y-98858745D01*
X105827599Y-98858747D01*
X106021524Y-98933874D01*
X106076924Y-98976446D01*
X106100515Y-99042213D01*
X106084804Y-99110293D01*
X106034780Y-99159072D01*
X106021533Y-99165122D01*
X105873488Y-99222475D01*
X105827601Y-99240252D01*
X105827595Y-99240254D01*
X105638439Y-99357374D01*
X105638437Y-99357376D01*
X105474020Y-99507261D01*
X105339943Y-99684808D01*
X105339938Y-99684816D01*
X105240775Y-99883961D01*
X105240769Y-99883976D01*
X105214266Y-99977127D01*
X105176987Y-100036221D01*
X105113677Y-100065778D01*
X105044438Y-100056416D01*
X104991251Y-100011106D01*
X104975734Y-99977127D01*
X104949230Y-99883976D01*
X104949229Y-99883972D01*
X104941908Y-99869269D01*
X104850061Y-99684816D01*
X104850056Y-99684808D01*
X104715979Y-99507261D01*
X104551562Y-99357376D01*
X104551560Y-99357374D01*
X104362404Y-99240254D01*
X104362395Y-99240250D01*
X104268956Y-99204052D01*
X104168475Y-99165125D01*
X104113075Y-99122554D01*
X104089484Y-99056788D01*
X104105195Y-98988707D01*
X104155219Y-98939928D01*
X104168466Y-98933877D01*
X104362401Y-98858747D01*
X104551562Y-98741624D01*
X104715981Y-98591736D01*
X104850058Y-98414189D01*
X104949229Y-98215028D01*
X104975734Y-98121871D01*
X105013013Y-98062778D01*
X105076323Y-98033221D01*
X105145562Y-98042583D01*
G37*
G04 #@! TD.AperFunction*
G04 #@! TA.AperFunction,NonConductor*
G36*
X102605562Y-98042583D02*
G01*
X102658749Y-98087893D01*
X102674266Y-98121872D01*
X102700769Y-98215023D01*
X102700775Y-98215038D01*
X102799938Y-98414183D01*
X102799943Y-98414191D01*
X102934020Y-98591738D01*
X103098437Y-98741623D01*
X103098439Y-98741625D01*
X103287595Y-98858745D01*
X103287596Y-98858745D01*
X103287599Y-98858747D01*
X103481524Y-98933874D01*
X103536924Y-98976446D01*
X103560515Y-99042213D01*
X103544804Y-99110293D01*
X103494780Y-99159072D01*
X103481533Y-99165122D01*
X103333488Y-99222475D01*
X103287601Y-99240252D01*
X103287595Y-99240254D01*
X103098439Y-99357374D01*
X103098437Y-99357376D01*
X102934020Y-99507261D01*
X102799943Y-99684808D01*
X102799938Y-99684816D01*
X102700775Y-99883961D01*
X102700769Y-99883976D01*
X102674266Y-99977127D01*
X102636987Y-100036221D01*
X102573677Y-100065778D01*
X102504438Y-100056416D01*
X102451251Y-100011106D01*
X102435734Y-99977127D01*
X102409230Y-99883976D01*
X102409229Y-99883972D01*
X102401908Y-99869269D01*
X102310061Y-99684816D01*
X102310056Y-99684808D01*
X102175979Y-99507261D01*
X102011562Y-99357376D01*
X102011560Y-99357374D01*
X101822404Y-99240254D01*
X101822395Y-99240250D01*
X101728956Y-99204052D01*
X101628475Y-99165125D01*
X101573075Y-99122554D01*
X101549484Y-99056788D01*
X101565195Y-98988707D01*
X101615219Y-98939928D01*
X101628466Y-98933877D01*
X101822401Y-98858747D01*
X102011562Y-98741624D01*
X102175981Y-98591736D01*
X102310058Y-98414189D01*
X102409229Y-98215028D01*
X102435734Y-98121871D01*
X102473013Y-98062778D01*
X102536323Y-98033221D01*
X102605562Y-98042583D01*
G37*
G04 #@! TD.AperFunction*
G04 #@! TA.AperFunction,NonConductor*
G36*
X100065562Y-98042583D02*
G01*
X100118749Y-98087893D01*
X100134266Y-98121872D01*
X100160769Y-98215023D01*
X100160775Y-98215038D01*
X100259938Y-98414183D01*
X100259943Y-98414191D01*
X100394020Y-98591738D01*
X100558437Y-98741623D01*
X100558439Y-98741625D01*
X100747595Y-98858745D01*
X100747596Y-98858745D01*
X100747599Y-98858747D01*
X100941524Y-98933874D01*
X100996924Y-98976446D01*
X101020515Y-99042213D01*
X101004804Y-99110293D01*
X100954780Y-99159072D01*
X100941533Y-99165122D01*
X100793488Y-99222475D01*
X100747601Y-99240252D01*
X100747595Y-99240254D01*
X100558439Y-99357374D01*
X100558437Y-99357376D01*
X100394020Y-99507261D01*
X100259943Y-99684808D01*
X100259938Y-99684816D01*
X100160775Y-99883961D01*
X100160769Y-99883976D01*
X100134266Y-99977127D01*
X100096987Y-100036221D01*
X100033677Y-100065778D01*
X99964438Y-100056416D01*
X99911251Y-100011106D01*
X99895734Y-99977127D01*
X99869230Y-99883976D01*
X99869229Y-99883972D01*
X99861908Y-99869269D01*
X99770061Y-99684816D01*
X99770056Y-99684808D01*
X99635979Y-99507261D01*
X99471562Y-99357376D01*
X99471560Y-99357374D01*
X99282404Y-99240254D01*
X99282395Y-99240250D01*
X99188956Y-99204052D01*
X99088475Y-99165125D01*
X99033075Y-99122554D01*
X99009484Y-99056788D01*
X99025195Y-98988707D01*
X99075219Y-98939928D01*
X99088466Y-98933877D01*
X99282401Y-98858747D01*
X99471562Y-98741624D01*
X99635981Y-98591736D01*
X99770058Y-98414189D01*
X99869229Y-98215028D01*
X99895734Y-98121871D01*
X99933013Y-98062778D01*
X99996323Y-98033221D01*
X100065562Y-98042583D01*
G37*
G04 #@! TD.AperFunction*
G04 #@! TA.AperFunction,NonConductor*
G36*
X97525562Y-98042583D02*
G01*
X97578749Y-98087893D01*
X97594266Y-98121872D01*
X97620769Y-98215023D01*
X97620775Y-98215038D01*
X97719938Y-98414183D01*
X97719943Y-98414191D01*
X97854020Y-98591738D01*
X98018437Y-98741623D01*
X98018439Y-98741625D01*
X98207595Y-98858745D01*
X98207596Y-98858745D01*
X98207599Y-98858747D01*
X98401524Y-98933874D01*
X98456924Y-98976446D01*
X98480515Y-99042213D01*
X98464804Y-99110293D01*
X98414780Y-99159072D01*
X98401533Y-99165122D01*
X98253488Y-99222475D01*
X98207601Y-99240252D01*
X98207595Y-99240254D01*
X98018439Y-99357374D01*
X98018437Y-99357376D01*
X97854020Y-99507261D01*
X97719943Y-99684808D01*
X97719938Y-99684816D01*
X97620775Y-99883961D01*
X97620769Y-99883976D01*
X97594266Y-99977127D01*
X97556987Y-100036221D01*
X97493677Y-100065778D01*
X97424438Y-100056416D01*
X97371251Y-100011106D01*
X97355734Y-99977127D01*
X97329230Y-99883976D01*
X97329229Y-99883972D01*
X97321908Y-99869269D01*
X97230061Y-99684816D01*
X97230056Y-99684808D01*
X97095979Y-99507261D01*
X96931562Y-99357376D01*
X96931560Y-99357374D01*
X96742404Y-99240254D01*
X96742395Y-99240250D01*
X96648956Y-99204052D01*
X96548475Y-99165125D01*
X96493075Y-99122554D01*
X96469484Y-99056788D01*
X96485195Y-98988707D01*
X96535219Y-98939928D01*
X96548466Y-98933877D01*
X96742401Y-98858747D01*
X96931562Y-98741624D01*
X97095981Y-98591736D01*
X97230058Y-98414189D01*
X97329229Y-98215028D01*
X97355734Y-98121871D01*
X97393013Y-98062778D01*
X97456323Y-98033221D01*
X97525562Y-98042583D01*
G37*
G04 #@! TD.AperFunction*
G04 #@! TA.AperFunction,NonConductor*
G36*
X105145562Y-100582583D02*
G01*
X105198749Y-100627893D01*
X105214266Y-100661872D01*
X105240769Y-100755023D01*
X105240775Y-100755038D01*
X105339938Y-100954183D01*
X105339943Y-100954191D01*
X105474020Y-101131738D01*
X105638437Y-101281623D01*
X105638439Y-101281625D01*
X105827595Y-101398745D01*
X105827596Y-101398745D01*
X105827599Y-101398747D01*
X106021524Y-101473874D01*
X106076924Y-101516446D01*
X106100515Y-101582213D01*
X106084804Y-101650293D01*
X106034780Y-101699072D01*
X106021533Y-101705122D01*
X105873488Y-101762475D01*
X105827601Y-101780252D01*
X105827595Y-101780254D01*
X105638439Y-101897374D01*
X105638437Y-101897376D01*
X105474020Y-102047261D01*
X105339943Y-102224808D01*
X105339938Y-102224816D01*
X105240775Y-102423961D01*
X105240769Y-102423976D01*
X105214266Y-102517127D01*
X105176987Y-102576221D01*
X105113677Y-102605778D01*
X105044438Y-102596416D01*
X104991251Y-102551106D01*
X104975734Y-102517127D01*
X104949230Y-102423976D01*
X104949229Y-102423972D01*
X104941908Y-102409269D01*
X104850061Y-102224816D01*
X104850056Y-102224808D01*
X104715979Y-102047261D01*
X104551562Y-101897376D01*
X104551560Y-101897374D01*
X104362404Y-101780254D01*
X104362395Y-101780250D01*
X104268956Y-101744052D01*
X104168475Y-101705125D01*
X104113075Y-101662554D01*
X104089484Y-101596788D01*
X104105195Y-101528707D01*
X104155219Y-101479928D01*
X104168466Y-101473877D01*
X104362401Y-101398747D01*
X104551562Y-101281624D01*
X104715981Y-101131736D01*
X104850058Y-100954189D01*
X104949229Y-100755028D01*
X104975734Y-100661871D01*
X105013013Y-100602778D01*
X105076323Y-100573221D01*
X105145562Y-100582583D01*
G37*
G04 #@! TD.AperFunction*
G04 #@! TA.AperFunction,NonConductor*
G36*
X102605562Y-100582583D02*
G01*
X102658749Y-100627893D01*
X102674266Y-100661872D01*
X102700769Y-100755023D01*
X102700775Y-100755038D01*
X102799938Y-100954183D01*
X102799943Y-100954191D01*
X102934020Y-101131738D01*
X103098437Y-101281623D01*
X103098439Y-101281625D01*
X103287595Y-101398745D01*
X103287596Y-101398745D01*
X103287599Y-101398747D01*
X103481524Y-101473874D01*
X103536924Y-101516446D01*
X103560515Y-101582213D01*
X103544804Y-101650293D01*
X103494780Y-101699072D01*
X103481533Y-101705122D01*
X103333488Y-101762475D01*
X103287601Y-101780252D01*
X103287595Y-101780254D01*
X103098439Y-101897374D01*
X103098437Y-101897376D01*
X102934020Y-102047261D01*
X102799943Y-102224808D01*
X102799938Y-102224816D01*
X102700775Y-102423961D01*
X102700769Y-102423976D01*
X102674266Y-102517127D01*
X102636987Y-102576221D01*
X102573677Y-102605778D01*
X102504438Y-102596416D01*
X102451251Y-102551106D01*
X102435734Y-102517127D01*
X102409230Y-102423976D01*
X102409229Y-102423972D01*
X102401908Y-102409269D01*
X102310061Y-102224816D01*
X102310056Y-102224808D01*
X102175979Y-102047261D01*
X102011562Y-101897376D01*
X102011560Y-101897374D01*
X101822404Y-101780254D01*
X101822395Y-101780250D01*
X101728956Y-101744052D01*
X101628475Y-101705125D01*
X101573075Y-101662554D01*
X101549484Y-101596788D01*
X101565195Y-101528707D01*
X101615219Y-101479928D01*
X101628466Y-101473877D01*
X101822401Y-101398747D01*
X102011562Y-101281624D01*
X102175981Y-101131736D01*
X102310058Y-100954189D01*
X102409229Y-100755028D01*
X102435734Y-100661871D01*
X102473013Y-100602778D01*
X102536323Y-100573221D01*
X102605562Y-100582583D01*
G37*
G04 #@! TD.AperFunction*
G04 #@! TA.AperFunction,NonConductor*
G36*
X100065562Y-100582583D02*
G01*
X100118749Y-100627893D01*
X100134266Y-100661872D01*
X100160769Y-100755023D01*
X100160775Y-100755038D01*
X100259938Y-100954183D01*
X100259943Y-100954191D01*
X100394020Y-101131738D01*
X100558437Y-101281623D01*
X100558439Y-101281625D01*
X100747595Y-101398745D01*
X100747596Y-101398745D01*
X100747599Y-101398747D01*
X100941524Y-101473874D01*
X100996924Y-101516446D01*
X101020515Y-101582213D01*
X101004804Y-101650293D01*
X100954780Y-101699072D01*
X100941533Y-101705122D01*
X100793488Y-101762475D01*
X100747601Y-101780252D01*
X100747595Y-101780254D01*
X100558439Y-101897374D01*
X100558437Y-101897376D01*
X100394020Y-102047261D01*
X100259943Y-102224808D01*
X100259938Y-102224816D01*
X100160775Y-102423961D01*
X100160769Y-102423976D01*
X100134266Y-102517127D01*
X100096987Y-102576221D01*
X100033677Y-102605778D01*
X99964438Y-102596416D01*
X99911251Y-102551106D01*
X99895734Y-102517127D01*
X99869230Y-102423976D01*
X99869229Y-102423972D01*
X99861908Y-102409269D01*
X99770061Y-102224816D01*
X99770056Y-102224808D01*
X99635979Y-102047261D01*
X99471562Y-101897376D01*
X99471560Y-101897374D01*
X99282404Y-101780254D01*
X99282395Y-101780250D01*
X99188956Y-101744052D01*
X99088475Y-101705125D01*
X99033075Y-101662554D01*
X99009484Y-101596788D01*
X99025195Y-101528707D01*
X99075219Y-101479928D01*
X99088466Y-101473877D01*
X99282401Y-101398747D01*
X99471562Y-101281624D01*
X99635981Y-101131736D01*
X99770058Y-100954189D01*
X99869229Y-100755028D01*
X99895734Y-100661871D01*
X99933013Y-100602778D01*
X99996323Y-100573221D01*
X100065562Y-100582583D01*
G37*
G04 #@! TD.AperFunction*
G04 #@! TA.AperFunction,NonConductor*
G36*
X97525562Y-100582583D02*
G01*
X97578749Y-100627893D01*
X97594266Y-100661872D01*
X97620769Y-100755023D01*
X97620775Y-100755038D01*
X97719938Y-100954183D01*
X97719943Y-100954191D01*
X97854020Y-101131738D01*
X98018437Y-101281623D01*
X98018439Y-101281625D01*
X98207595Y-101398745D01*
X98207596Y-101398745D01*
X98207599Y-101398747D01*
X98401524Y-101473874D01*
X98456924Y-101516446D01*
X98480515Y-101582213D01*
X98464804Y-101650293D01*
X98414780Y-101699072D01*
X98401533Y-101705122D01*
X98253488Y-101762475D01*
X98207601Y-101780252D01*
X98207595Y-101780254D01*
X98018439Y-101897374D01*
X98018437Y-101897376D01*
X97854020Y-102047261D01*
X97719943Y-102224808D01*
X97719938Y-102224816D01*
X97620775Y-102423961D01*
X97620769Y-102423976D01*
X97594266Y-102517127D01*
X97556987Y-102576221D01*
X97493677Y-102605778D01*
X97424438Y-102596416D01*
X97371251Y-102551106D01*
X97355734Y-102517127D01*
X97329230Y-102423976D01*
X97329229Y-102423972D01*
X97321908Y-102409269D01*
X97230061Y-102224816D01*
X97230056Y-102224808D01*
X97095979Y-102047261D01*
X96931562Y-101897376D01*
X96931560Y-101897374D01*
X96742404Y-101780254D01*
X96742395Y-101780250D01*
X96648956Y-101744052D01*
X96548475Y-101705125D01*
X96493075Y-101662554D01*
X96469484Y-101596788D01*
X96485195Y-101528707D01*
X96535219Y-101479928D01*
X96548466Y-101473877D01*
X96742401Y-101398747D01*
X96931562Y-101281624D01*
X97095981Y-101131736D01*
X97230058Y-100954189D01*
X97329229Y-100755028D01*
X97355734Y-100661871D01*
X97393013Y-100602778D01*
X97456323Y-100573221D01*
X97525562Y-100582583D01*
G37*
G04 #@! TD.AperFunction*
G04 #@! TA.AperFunction,NonConductor*
G36*
X105145562Y-103122583D02*
G01*
X105198749Y-103167893D01*
X105214266Y-103201872D01*
X105240769Y-103295023D01*
X105240775Y-103295038D01*
X105339938Y-103494183D01*
X105339943Y-103494191D01*
X105474020Y-103671738D01*
X105638437Y-103821623D01*
X105638439Y-103821625D01*
X105827595Y-103938745D01*
X105827596Y-103938745D01*
X105827599Y-103938747D01*
X106021524Y-104013874D01*
X106076924Y-104056446D01*
X106100515Y-104122213D01*
X106084804Y-104190293D01*
X106034780Y-104239072D01*
X106021533Y-104245122D01*
X105873488Y-104302475D01*
X105827601Y-104320252D01*
X105827595Y-104320254D01*
X105638439Y-104437374D01*
X105638437Y-104437376D01*
X105474020Y-104587261D01*
X105339943Y-104764808D01*
X105339938Y-104764816D01*
X105240775Y-104963961D01*
X105240769Y-104963976D01*
X105214266Y-105057127D01*
X105176987Y-105116221D01*
X105113677Y-105145778D01*
X105044438Y-105136416D01*
X104991251Y-105091106D01*
X104975734Y-105057127D01*
X104949230Y-104963976D01*
X104949229Y-104963972D01*
X104948825Y-104963160D01*
X104850061Y-104764816D01*
X104850056Y-104764808D01*
X104715979Y-104587261D01*
X104551562Y-104437376D01*
X104551560Y-104437374D01*
X104362404Y-104320254D01*
X104362395Y-104320250D01*
X104268956Y-104284052D01*
X104168475Y-104245125D01*
X104113075Y-104202554D01*
X104089484Y-104136788D01*
X104105195Y-104068707D01*
X104155219Y-104019928D01*
X104168466Y-104013877D01*
X104362401Y-103938747D01*
X104551562Y-103821624D01*
X104715981Y-103671736D01*
X104850058Y-103494189D01*
X104949229Y-103295028D01*
X104975734Y-103201871D01*
X105013013Y-103142778D01*
X105076323Y-103113221D01*
X105145562Y-103122583D01*
G37*
G04 #@! TD.AperFunction*
G04 #@! TA.AperFunction,NonConductor*
G36*
X102605562Y-103122583D02*
G01*
X102658749Y-103167893D01*
X102674266Y-103201872D01*
X102700769Y-103295023D01*
X102700775Y-103295038D01*
X102799938Y-103494183D01*
X102799943Y-103494191D01*
X102934020Y-103671738D01*
X103098437Y-103821623D01*
X103098439Y-103821625D01*
X103287595Y-103938745D01*
X103287596Y-103938745D01*
X103287599Y-103938747D01*
X103481524Y-104013874D01*
X103536924Y-104056446D01*
X103560515Y-104122213D01*
X103544804Y-104190293D01*
X103494780Y-104239072D01*
X103481533Y-104245122D01*
X103333488Y-104302475D01*
X103287601Y-104320252D01*
X103287595Y-104320254D01*
X103098439Y-104437374D01*
X103098437Y-104437376D01*
X102934020Y-104587261D01*
X102799943Y-104764808D01*
X102799938Y-104764816D01*
X102700775Y-104963961D01*
X102700769Y-104963976D01*
X102674266Y-105057127D01*
X102636987Y-105116221D01*
X102573677Y-105145778D01*
X102504438Y-105136416D01*
X102451251Y-105091106D01*
X102435734Y-105057127D01*
X102409230Y-104963976D01*
X102409229Y-104963972D01*
X102408825Y-104963160D01*
X102310061Y-104764816D01*
X102310056Y-104764808D01*
X102175979Y-104587261D01*
X102011562Y-104437376D01*
X102011560Y-104437374D01*
X101822404Y-104320254D01*
X101822395Y-104320250D01*
X101728956Y-104284052D01*
X101628475Y-104245125D01*
X101573075Y-104202554D01*
X101549484Y-104136788D01*
X101565195Y-104068707D01*
X101615219Y-104019928D01*
X101628466Y-104013877D01*
X101822401Y-103938747D01*
X102011562Y-103821624D01*
X102175981Y-103671736D01*
X102310058Y-103494189D01*
X102409229Y-103295028D01*
X102435734Y-103201871D01*
X102473013Y-103142778D01*
X102536323Y-103113221D01*
X102605562Y-103122583D01*
G37*
G04 #@! TD.AperFunction*
G04 #@! TA.AperFunction,NonConductor*
G36*
X100065562Y-103122583D02*
G01*
X100118749Y-103167893D01*
X100134266Y-103201872D01*
X100160769Y-103295023D01*
X100160775Y-103295038D01*
X100259938Y-103494183D01*
X100259943Y-103494191D01*
X100394020Y-103671738D01*
X100558437Y-103821623D01*
X100558439Y-103821625D01*
X100747595Y-103938745D01*
X100747596Y-103938745D01*
X100747599Y-103938747D01*
X100941524Y-104013874D01*
X100996924Y-104056446D01*
X101020515Y-104122213D01*
X101004804Y-104190293D01*
X100954780Y-104239072D01*
X100941533Y-104245122D01*
X100793488Y-104302475D01*
X100747601Y-104320252D01*
X100747595Y-104320254D01*
X100558439Y-104437374D01*
X100558437Y-104437376D01*
X100394020Y-104587261D01*
X100259943Y-104764808D01*
X100259938Y-104764816D01*
X100160775Y-104963961D01*
X100160769Y-104963976D01*
X100134266Y-105057127D01*
X100096987Y-105116221D01*
X100033677Y-105145778D01*
X99964438Y-105136416D01*
X99911251Y-105091106D01*
X99895734Y-105057127D01*
X99869230Y-104963976D01*
X99869229Y-104963972D01*
X99868825Y-104963160D01*
X99770061Y-104764816D01*
X99770056Y-104764808D01*
X99635979Y-104587261D01*
X99471562Y-104437376D01*
X99471560Y-104437374D01*
X99282404Y-104320254D01*
X99282395Y-104320250D01*
X99188956Y-104284052D01*
X99088475Y-104245125D01*
X99033075Y-104202554D01*
X99009484Y-104136788D01*
X99025195Y-104068707D01*
X99075219Y-104019928D01*
X99088466Y-104013877D01*
X99282401Y-103938747D01*
X99471562Y-103821624D01*
X99635981Y-103671736D01*
X99770058Y-103494189D01*
X99869229Y-103295028D01*
X99895734Y-103201871D01*
X99933013Y-103142778D01*
X99996323Y-103113221D01*
X100065562Y-103122583D01*
G37*
G04 #@! TD.AperFunction*
G04 #@! TA.AperFunction,NonConductor*
G36*
X97525562Y-103122583D02*
G01*
X97578749Y-103167893D01*
X97594266Y-103201872D01*
X97620769Y-103295023D01*
X97620775Y-103295038D01*
X97719938Y-103494183D01*
X97719943Y-103494191D01*
X97854020Y-103671738D01*
X98018437Y-103821623D01*
X98018439Y-103821625D01*
X98207595Y-103938745D01*
X98207596Y-103938745D01*
X98207599Y-103938747D01*
X98401524Y-104013874D01*
X98456924Y-104056446D01*
X98480515Y-104122213D01*
X98464804Y-104190293D01*
X98414780Y-104239072D01*
X98401533Y-104245122D01*
X98253488Y-104302475D01*
X98207601Y-104320252D01*
X98207595Y-104320254D01*
X98018439Y-104437374D01*
X98018437Y-104437376D01*
X97854020Y-104587261D01*
X97719943Y-104764808D01*
X97719938Y-104764816D01*
X97620775Y-104963961D01*
X97620769Y-104963976D01*
X97594266Y-105057127D01*
X97556987Y-105116221D01*
X97493677Y-105145778D01*
X97424438Y-105136416D01*
X97371251Y-105091106D01*
X97355734Y-105057127D01*
X97329230Y-104963976D01*
X97329229Y-104963972D01*
X97328825Y-104963160D01*
X97230061Y-104764816D01*
X97230056Y-104764808D01*
X97095979Y-104587261D01*
X96931562Y-104437376D01*
X96931560Y-104437374D01*
X96742404Y-104320254D01*
X96742395Y-104320250D01*
X96648956Y-104284052D01*
X96548475Y-104245125D01*
X96493075Y-104202554D01*
X96469484Y-104136788D01*
X96485195Y-104068707D01*
X96535219Y-104019928D01*
X96548466Y-104013877D01*
X96742401Y-103938747D01*
X96931562Y-103821624D01*
X97095981Y-103671736D01*
X97230058Y-103494189D01*
X97329229Y-103295028D01*
X97355734Y-103201871D01*
X97393013Y-103142778D01*
X97456323Y-103113221D01*
X97525562Y-103122583D01*
G37*
G04 #@! TD.AperFunction*
G04 #@! TA.AperFunction,NonConductor*
G36*
X105145562Y-105662583D02*
G01*
X105198749Y-105707893D01*
X105214266Y-105741872D01*
X105240769Y-105835023D01*
X105240775Y-105835038D01*
X105339938Y-106034183D01*
X105339943Y-106034191D01*
X105474020Y-106211738D01*
X105638437Y-106361623D01*
X105638439Y-106361625D01*
X105827595Y-106478745D01*
X105827596Y-106478745D01*
X105827599Y-106478747D01*
X106021524Y-106553874D01*
X106076924Y-106596446D01*
X106100515Y-106662213D01*
X106084804Y-106730293D01*
X106034780Y-106779072D01*
X106021533Y-106785122D01*
X105873488Y-106842475D01*
X105827601Y-106860252D01*
X105827595Y-106860254D01*
X105638439Y-106977374D01*
X105638437Y-106977376D01*
X105474020Y-107127261D01*
X105339943Y-107304808D01*
X105339938Y-107304816D01*
X105240775Y-107503961D01*
X105240769Y-107503976D01*
X105214266Y-107597127D01*
X105176987Y-107656221D01*
X105113677Y-107685778D01*
X105044438Y-107676416D01*
X104991251Y-107631106D01*
X104975734Y-107597127D01*
X104949230Y-107503976D01*
X104949229Y-107503972D01*
X104949224Y-107503961D01*
X104850061Y-107304816D01*
X104850056Y-107304808D01*
X104715979Y-107127261D01*
X104551562Y-106977376D01*
X104551560Y-106977374D01*
X104362404Y-106860254D01*
X104362395Y-106860250D01*
X104268956Y-106824052D01*
X104168475Y-106785125D01*
X104113075Y-106742554D01*
X104089484Y-106676788D01*
X104105195Y-106608707D01*
X104155219Y-106559928D01*
X104168466Y-106553877D01*
X104362401Y-106478747D01*
X104551562Y-106361624D01*
X104715981Y-106211736D01*
X104850058Y-106034189D01*
X104949229Y-105835028D01*
X104975734Y-105741871D01*
X105013013Y-105682778D01*
X105076323Y-105653221D01*
X105145562Y-105662583D01*
G37*
G04 #@! TD.AperFunction*
G04 #@! TA.AperFunction,NonConductor*
G36*
X102605562Y-105662583D02*
G01*
X102658749Y-105707893D01*
X102674266Y-105741872D01*
X102700769Y-105835023D01*
X102700775Y-105835038D01*
X102799938Y-106034183D01*
X102799943Y-106034191D01*
X102934020Y-106211738D01*
X103098437Y-106361623D01*
X103098439Y-106361625D01*
X103287595Y-106478745D01*
X103287596Y-106478745D01*
X103287599Y-106478747D01*
X103481524Y-106553874D01*
X103536924Y-106596446D01*
X103560515Y-106662213D01*
X103544804Y-106730293D01*
X103494780Y-106779072D01*
X103481533Y-106785122D01*
X103333488Y-106842475D01*
X103287601Y-106860252D01*
X103287595Y-106860254D01*
X103098439Y-106977374D01*
X103098437Y-106977376D01*
X102934020Y-107127261D01*
X102799943Y-107304808D01*
X102799938Y-107304816D01*
X102700775Y-107503961D01*
X102700769Y-107503976D01*
X102674266Y-107597127D01*
X102636987Y-107656221D01*
X102573677Y-107685778D01*
X102504438Y-107676416D01*
X102451251Y-107631106D01*
X102435734Y-107597127D01*
X102409230Y-107503976D01*
X102409229Y-107503972D01*
X102409224Y-107503961D01*
X102310061Y-107304816D01*
X102310056Y-107304808D01*
X102175979Y-107127261D01*
X102011562Y-106977376D01*
X102011560Y-106977374D01*
X101822404Y-106860254D01*
X101822395Y-106860250D01*
X101728956Y-106824052D01*
X101628475Y-106785125D01*
X101573075Y-106742554D01*
X101549484Y-106676788D01*
X101565195Y-106608707D01*
X101615219Y-106559928D01*
X101628466Y-106553877D01*
X101822401Y-106478747D01*
X102011562Y-106361624D01*
X102175981Y-106211736D01*
X102310058Y-106034189D01*
X102409229Y-105835028D01*
X102435734Y-105741871D01*
X102473013Y-105682778D01*
X102536323Y-105653221D01*
X102605562Y-105662583D01*
G37*
G04 #@! TD.AperFunction*
G04 #@! TA.AperFunction,NonConductor*
G36*
X100065562Y-105662583D02*
G01*
X100118749Y-105707893D01*
X100134266Y-105741872D01*
X100160769Y-105835023D01*
X100160775Y-105835038D01*
X100259938Y-106034183D01*
X100259943Y-106034191D01*
X100394020Y-106211738D01*
X100558437Y-106361623D01*
X100558439Y-106361625D01*
X100747595Y-106478745D01*
X100747596Y-106478745D01*
X100747599Y-106478747D01*
X100941524Y-106553874D01*
X100996924Y-106596446D01*
X101020515Y-106662213D01*
X101004804Y-106730293D01*
X100954780Y-106779072D01*
X100941533Y-106785122D01*
X100793488Y-106842475D01*
X100747601Y-106860252D01*
X100747595Y-106860254D01*
X100558439Y-106977374D01*
X100558437Y-106977376D01*
X100394020Y-107127261D01*
X100259943Y-107304808D01*
X100259938Y-107304816D01*
X100160775Y-107503961D01*
X100160769Y-107503976D01*
X100134266Y-107597127D01*
X100096987Y-107656221D01*
X100033677Y-107685778D01*
X99964438Y-107676416D01*
X99911251Y-107631106D01*
X99895734Y-107597127D01*
X99869230Y-107503976D01*
X99869229Y-107503972D01*
X99869224Y-107503961D01*
X99770061Y-107304816D01*
X99770056Y-107304808D01*
X99635979Y-107127261D01*
X99471562Y-106977376D01*
X99471560Y-106977374D01*
X99282404Y-106860254D01*
X99282395Y-106860250D01*
X99188956Y-106824052D01*
X99088475Y-106785125D01*
X99033075Y-106742554D01*
X99009484Y-106676788D01*
X99025195Y-106608707D01*
X99075219Y-106559928D01*
X99088466Y-106553877D01*
X99282401Y-106478747D01*
X99471562Y-106361624D01*
X99635981Y-106211736D01*
X99770058Y-106034189D01*
X99869229Y-105835028D01*
X99895734Y-105741871D01*
X99933013Y-105682778D01*
X99996323Y-105653221D01*
X100065562Y-105662583D01*
G37*
G04 #@! TD.AperFunction*
G04 #@! TA.AperFunction,NonConductor*
G36*
X97525562Y-105662583D02*
G01*
X97578749Y-105707893D01*
X97594266Y-105741872D01*
X97620769Y-105835023D01*
X97620775Y-105835038D01*
X97719938Y-106034183D01*
X97719943Y-106034191D01*
X97854020Y-106211738D01*
X98018437Y-106361623D01*
X98018439Y-106361625D01*
X98207595Y-106478745D01*
X98207596Y-106478745D01*
X98207599Y-106478747D01*
X98401524Y-106553874D01*
X98456924Y-106596446D01*
X98480515Y-106662213D01*
X98464804Y-106730293D01*
X98414780Y-106779072D01*
X98401533Y-106785122D01*
X98253488Y-106842475D01*
X98207601Y-106860252D01*
X98207595Y-106860254D01*
X98018439Y-106977374D01*
X98018437Y-106977376D01*
X97854020Y-107127261D01*
X97719943Y-107304808D01*
X97719938Y-107304816D01*
X97620775Y-107503961D01*
X97620769Y-107503976D01*
X97594266Y-107597127D01*
X97556987Y-107656221D01*
X97493677Y-107685778D01*
X97424438Y-107676416D01*
X97371251Y-107631106D01*
X97355734Y-107597127D01*
X97329230Y-107503976D01*
X97329229Y-107503972D01*
X97329224Y-107503961D01*
X97230061Y-107304816D01*
X97230056Y-107304808D01*
X97095979Y-107127261D01*
X96931562Y-106977376D01*
X96931560Y-106977374D01*
X96742404Y-106860254D01*
X96742395Y-106860250D01*
X96648956Y-106824052D01*
X96548475Y-106785125D01*
X96493075Y-106742554D01*
X96469484Y-106676788D01*
X96485195Y-106608707D01*
X96535219Y-106559928D01*
X96548466Y-106553877D01*
X96742401Y-106478747D01*
X96931562Y-106361624D01*
X97095981Y-106211736D01*
X97230058Y-106034189D01*
X97329229Y-105835028D01*
X97355734Y-105741871D01*
X97393013Y-105682778D01*
X97456323Y-105653221D01*
X97525562Y-105662583D01*
G37*
G04 #@! TD.AperFunction*
G04 #@! TA.AperFunction,NonConductor*
G36*
X87365562Y-98042583D02*
G01*
X87418749Y-98087893D01*
X87434266Y-98121872D01*
X87460769Y-98215023D01*
X87460775Y-98215038D01*
X87559938Y-98414183D01*
X87559943Y-98414191D01*
X87694020Y-98591738D01*
X87858437Y-98741623D01*
X87858439Y-98741625D01*
X88047595Y-98858745D01*
X88047596Y-98858745D01*
X88047599Y-98858747D01*
X88241524Y-98933874D01*
X88296924Y-98976446D01*
X88320515Y-99042213D01*
X88304804Y-99110293D01*
X88254780Y-99159072D01*
X88241533Y-99165122D01*
X88093488Y-99222475D01*
X88047601Y-99240252D01*
X88047595Y-99240254D01*
X87858439Y-99357374D01*
X87858437Y-99357376D01*
X87694020Y-99507261D01*
X87559943Y-99684808D01*
X87559938Y-99684816D01*
X87460775Y-99883961D01*
X87460769Y-99883976D01*
X87434266Y-99977127D01*
X87396987Y-100036221D01*
X87333677Y-100065778D01*
X87264438Y-100056416D01*
X87211251Y-100011106D01*
X87195734Y-99977127D01*
X87169230Y-99883976D01*
X87169229Y-99883972D01*
X87161908Y-99869269D01*
X87070061Y-99684816D01*
X87070056Y-99684808D01*
X86935979Y-99507261D01*
X86771562Y-99357376D01*
X86771560Y-99357374D01*
X86582404Y-99240254D01*
X86582395Y-99240250D01*
X86488956Y-99204052D01*
X86388475Y-99165125D01*
X86333075Y-99122554D01*
X86309484Y-99056788D01*
X86325195Y-98988707D01*
X86375219Y-98939928D01*
X86388466Y-98933877D01*
X86582401Y-98858747D01*
X86771562Y-98741624D01*
X86935981Y-98591736D01*
X87070058Y-98414189D01*
X87169229Y-98215028D01*
X87195734Y-98121871D01*
X87233013Y-98062778D01*
X87296323Y-98033221D01*
X87365562Y-98042583D01*
G37*
G04 #@! TD.AperFunction*
G04 #@! TA.AperFunction,NonConductor*
G36*
X84825562Y-98042583D02*
G01*
X84878749Y-98087893D01*
X84894266Y-98121872D01*
X84920769Y-98215023D01*
X84920775Y-98215038D01*
X85019938Y-98414183D01*
X85019943Y-98414191D01*
X85154020Y-98591738D01*
X85318437Y-98741623D01*
X85318439Y-98741625D01*
X85507595Y-98858745D01*
X85507596Y-98858745D01*
X85507599Y-98858747D01*
X85701524Y-98933874D01*
X85756924Y-98976446D01*
X85780515Y-99042213D01*
X85764804Y-99110293D01*
X85714780Y-99159072D01*
X85701533Y-99165122D01*
X85553488Y-99222475D01*
X85507601Y-99240252D01*
X85507595Y-99240254D01*
X85318439Y-99357374D01*
X85318437Y-99357376D01*
X85154020Y-99507261D01*
X85019943Y-99684808D01*
X85019938Y-99684816D01*
X84920775Y-99883961D01*
X84920769Y-99883976D01*
X84894266Y-99977127D01*
X84856987Y-100036221D01*
X84793677Y-100065778D01*
X84724438Y-100056416D01*
X84671251Y-100011106D01*
X84655734Y-99977127D01*
X84629230Y-99883976D01*
X84629229Y-99883972D01*
X84621908Y-99869269D01*
X84530061Y-99684816D01*
X84530056Y-99684808D01*
X84395979Y-99507261D01*
X84231562Y-99357376D01*
X84231560Y-99357374D01*
X84042404Y-99240254D01*
X84042395Y-99240250D01*
X83948956Y-99204052D01*
X83848475Y-99165125D01*
X83793075Y-99122554D01*
X83769484Y-99056788D01*
X83785195Y-98988707D01*
X83835219Y-98939928D01*
X83848466Y-98933877D01*
X84042401Y-98858747D01*
X84231562Y-98741624D01*
X84395981Y-98591736D01*
X84530058Y-98414189D01*
X84629229Y-98215028D01*
X84655734Y-98121871D01*
X84693013Y-98062778D01*
X84756323Y-98033221D01*
X84825562Y-98042583D01*
G37*
G04 #@! TD.AperFunction*
G04 #@! TA.AperFunction,NonConductor*
G36*
X82285562Y-98042583D02*
G01*
X82338749Y-98087893D01*
X82354266Y-98121872D01*
X82380769Y-98215023D01*
X82380775Y-98215038D01*
X82479938Y-98414183D01*
X82479943Y-98414191D01*
X82614020Y-98591738D01*
X82778437Y-98741623D01*
X82778439Y-98741625D01*
X82967595Y-98858745D01*
X82967596Y-98858745D01*
X82967599Y-98858747D01*
X83161524Y-98933874D01*
X83216924Y-98976446D01*
X83240515Y-99042213D01*
X83224804Y-99110293D01*
X83174780Y-99159072D01*
X83161533Y-99165122D01*
X83013488Y-99222475D01*
X82967601Y-99240252D01*
X82967595Y-99240254D01*
X82778439Y-99357374D01*
X82778437Y-99357376D01*
X82614020Y-99507261D01*
X82479943Y-99684808D01*
X82479938Y-99684816D01*
X82380775Y-99883961D01*
X82380769Y-99883976D01*
X82354266Y-99977127D01*
X82316987Y-100036221D01*
X82253677Y-100065778D01*
X82184438Y-100056416D01*
X82131251Y-100011106D01*
X82115734Y-99977127D01*
X82089230Y-99883976D01*
X82089229Y-99883972D01*
X82081908Y-99869269D01*
X81990061Y-99684816D01*
X81990056Y-99684808D01*
X81855979Y-99507261D01*
X81691562Y-99357376D01*
X81691560Y-99357374D01*
X81502404Y-99240254D01*
X81502395Y-99240250D01*
X81408956Y-99204052D01*
X81308475Y-99165125D01*
X81253075Y-99122554D01*
X81229484Y-99056788D01*
X81245195Y-98988707D01*
X81295219Y-98939928D01*
X81308466Y-98933877D01*
X81502401Y-98858747D01*
X81691562Y-98741624D01*
X81855981Y-98591736D01*
X81990058Y-98414189D01*
X82089229Y-98215028D01*
X82115734Y-98121871D01*
X82153013Y-98062778D01*
X82216323Y-98033221D01*
X82285562Y-98042583D01*
G37*
G04 #@! TD.AperFunction*
G04 #@! TA.AperFunction,NonConductor*
G36*
X79745562Y-98042583D02*
G01*
X79798749Y-98087893D01*
X79814266Y-98121872D01*
X79840769Y-98215023D01*
X79840775Y-98215038D01*
X79939938Y-98414183D01*
X79939943Y-98414191D01*
X80074020Y-98591738D01*
X80238437Y-98741623D01*
X80238439Y-98741625D01*
X80427595Y-98858745D01*
X80427596Y-98858745D01*
X80427599Y-98858747D01*
X80621524Y-98933874D01*
X80676924Y-98976446D01*
X80700515Y-99042213D01*
X80684804Y-99110293D01*
X80634780Y-99159072D01*
X80621533Y-99165122D01*
X80473488Y-99222475D01*
X80427601Y-99240252D01*
X80427595Y-99240254D01*
X80238439Y-99357374D01*
X80238437Y-99357376D01*
X80074020Y-99507261D01*
X79939943Y-99684808D01*
X79939938Y-99684816D01*
X79840775Y-99883961D01*
X79840769Y-99883976D01*
X79814266Y-99977127D01*
X79776987Y-100036221D01*
X79713677Y-100065778D01*
X79644438Y-100056416D01*
X79591251Y-100011106D01*
X79575734Y-99977127D01*
X79549230Y-99883976D01*
X79549229Y-99883972D01*
X79541908Y-99869269D01*
X79450061Y-99684816D01*
X79450056Y-99684808D01*
X79315979Y-99507261D01*
X79151562Y-99357376D01*
X79151560Y-99357374D01*
X78962404Y-99240254D01*
X78962395Y-99240250D01*
X78868956Y-99204052D01*
X78768475Y-99165125D01*
X78713075Y-99122554D01*
X78689484Y-99056788D01*
X78705195Y-98988707D01*
X78755219Y-98939928D01*
X78768466Y-98933877D01*
X78962401Y-98858747D01*
X79151562Y-98741624D01*
X79315981Y-98591736D01*
X79450058Y-98414189D01*
X79549229Y-98215028D01*
X79575734Y-98121871D01*
X79613013Y-98062778D01*
X79676323Y-98033221D01*
X79745562Y-98042583D01*
G37*
G04 #@! TD.AperFunction*
G04 #@! TA.AperFunction,NonConductor*
G36*
X87365562Y-100582583D02*
G01*
X87418749Y-100627893D01*
X87434266Y-100661872D01*
X87460769Y-100755023D01*
X87460775Y-100755038D01*
X87559938Y-100954183D01*
X87559943Y-100954191D01*
X87694020Y-101131738D01*
X87858437Y-101281623D01*
X87858439Y-101281625D01*
X88047595Y-101398745D01*
X88047596Y-101398745D01*
X88047599Y-101398747D01*
X88241524Y-101473874D01*
X88296924Y-101516446D01*
X88320515Y-101582213D01*
X88304804Y-101650293D01*
X88254780Y-101699072D01*
X88241533Y-101705122D01*
X88093488Y-101762475D01*
X88047601Y-101780252D01*
X88047595Y-101780254D01*
X87858439Y-101897374D01*
X87858437Y-101897376D01*
X87694020Y-102047261D01*
X87559943Y-102224808D01*
X87559938Y-102224816D01*
X87460775Y-102423961D01*
X87460769Y-102423976D01*
X87434266Y-102517127D01*
X87396987Y-102576221D01*
X87333677Y-102605778D01*
X87264438Y-102596416D01*
X87211251Y-102551106D01*
X87195734Y-102517127D01*
X87169230Y-102423976D01*
X87169229Y-102423972D01*
X87161908Y-102409269D01*
X87070061Y-102224816D01*
X87070056Y-102224808D01*
X86935979Y-102047261D01*
X86771562Y-101897376D01*
X86771560Y-101897374D01*
X86582404Y-101780254D01*
X86582395Y-101780250D01*
X86488956Y-101744052D01*
X86388475Y-101705125D01*
X86333075Y-101662554D01*
X86309484Y-101596788D01*
X86325195Y-101528707D01*
X86375219Y-101479928D01*
X86388466Y-101473877D01*
X86582401Y-101398747D01*
X86771562Y-101281624D01*
X86935981Y-101131736D01*
X87070058Y-100954189D01*
X87169229Y-100755028D01*
X87195734Y-100661871D01*
X87233013Y-100602778D01*
X87296323Y-100573221D01*
X87365562Y-100582583D01*
G37*
G04 #@! TD.AperFunction*
G04 #@! TA.AperFunction,NonConductor*
G36*
X84825562Y-100582583D02*
G01*
X84878749Y-100627893D01*
X84894266Y-100661872D01*
X84920769Y-100755023D01*
X84920775Y-100755038D01*
X85019938Y-100954183D01*
X85019943Y-100954191D01*
X85154020Y-101131738D01*
X85318437Y-101281623D01*
X85318439Y-101281625D01*
X85507595Y-101398745D01*
X85507596Y-101398745D01*
X85507599Y-101398747D01*
X85701524Y-101473874D01*
X85756924Y-101516446D01*
X85780515Y-101582213D01*
X85764804Y-101650293D01*
X85714780Y-101699072D01*
X85701533Y-101705122D01*
X85553488Y-101762475D01*
X85507601Y-101780252D01*
X85507595Y-101780254D01*
X85318439Y-101897374D01*
X85318437Y-101897376D01*
X85154020Y-102047261D01*
X85019943Y-102224808D01*
X85019938Y-102224816D01*
X84920775Y-102423961D01*
X84920769Y-102423976D01*
X84894266Y-102517127D01*
X84856987Y-102576221D01*
X84793677Y-102605778D01*
X84724438Y-102596416D01*
X84671251Y-102551106D01*
X84655734Y-102517127D01*
X84629230Y-102423976D01*
X84629229Y-102423972D01*
X84621908Y-102409269D01*
X84530061Y-102224816D01*
X84530056Y-102224808D01*
X84395979Y-102047261D01*
X84231562Y-101897376D01*
X84231560Y-101897374D01*
X84042404Y-101780254D01*
X84042395Y-101780250D01*
X83948956Y-101744052D01*
X83848475Y-101705125D01*
X83793075Y-101662554D01*
X83769484Y-101596788D01*
X83785195Y-101528707D01*
X83835219Y-101479928D01*
X83848466Y-101473877D01*
X84042401Y-101398747D01*
X84231562Y-101281624D01*
X84395981Y-101131736D01*
X84530058Y-100954189D01*
X84629229Y-100755028D01*
X84655734Y-100661871D01*
X84693013Y-100602778D01*
X84756323Y-100573221D01*
X84825562Y-100582583D01*
G37*
G04 #@! TD.AperFunction*
G04 #@! TA.AperFunction,NonConductor*
G36*
X82285562Y-100582583D02*
G01*
X82338749Y-100627893D01*
X82354266Y-100661872D01*
X82380769Y-100755023D01*
X82380775Y-100755038D01*
X82479938Y-100954183D01*
X82479943Y-100954191D01*
X82614020Y-101131738D01*
X82778437Y-101281623D01*
X82778439Y-101281625D01*
X82967595Y-101398745D01*
X82967596Y-101398745D01*
X82967599Y-101398747D01*
X83161524Y-101473874D01*
X83216924Y-101516446D01*
X83240515Y-101582213D01*
X83224804Y-101650293D01*
X83174780Y-101699072D01*
X83161533Y-101705122D01*
X83013488Y-101762475D01*
X82967601Y-101780252D01*
X82967595Y-101780254D01*
X82778439Y-101897374D01*
X82778437Y-101897376D01*
X82614020Y-102047261D01*
X82479943Y-102224808D01*
X82479938Y-102224816D01*
X82380775Y-102423961D01*
X82380769Y-102423976D01*
X82354266Y-102517127D01*
X82316987Y-102576221D01*
X82253677Y-102605778D01*
X82184438Y-102596416D01*
X82131251Y-102551106D01*
X82115734Y-102517127D01*
X82089230Y-102423976D01*
X82089229Y-102423972D01*
X82081908Y-102409269D01*
X81990061Y-102224816D01*
X81990056Y-102224808D01*
X81855979Y-102047261D01*
X81691562Y-101897376D01*
X81691560Y-101897374D01*
X81502404Y-101780254D01*
X81502395Y-101780250D01*
X81408956Y-101744052D01*
X81308475Y-101705125D01*
X81253075Y-101662554D01*
X81229484Y-101596788D01*
X81245195Y-101528707D01*
X81295219Y-101479928D01*
X81308466Y-101473877D01*
X81502401Y-101398747D01*
X81691562Y-101281624D01*
X81855981Y-101131736D01*
X81990058Y-100954189D01*
X82089229Y-100755028D01*
X82115734Y-100661871D01*
X82153013Y-100602778D01*
X82216323Y-100573221D01*
X82285562Y-100582583D01*
G37*
G04 #@! TD.AperFunction*
G04 #@! TA.AperFunction,NonConductor*
G36*
X79745562Y-100582583D02*
G01*
X79798749Y-100627893D01*
X79814266Y-100661872D01*
X79840769Y-100755023D01*
X79840775Y-100755038D01*
X79939938Y-100954183D01*
X79939943Y-100954191D01*
X80074020Y-101131738D01*
X80238437Y-101281623D01*
X80238439Y-101281625D01*
X80427595Y-101398745D01*
X80427596Y-101398745D01*
X80427599Y-101398747D01*
X80621524Y-101473874D01*
X80676924Y-101516446D01*
X80700515Y-101582213D01*
X80684804Y-101650293D01*
X80634780Y-101699072D01*
X80621533Y-101705122D01*
X80473488Y-101762475D01*
X80427601Y-101780252D01*
X80427595Y-101780254D01*
X80238439Y-101897374D01*
X80238437Y-101897376D01*
X80074020Y-102047261D01*
X79939943Y-102224808D01*
X79939938Y-102224816D01*
X79840775Y-102423961D01*
X79840769Y-102423976D01*
X79814266Y-102517127D01*
X79776987Y-102576221D01*
X79713677Y-102605778D01*
X79644438Y-102596416D01*
X79591251Y-102551106D01*
X79575734Y-102517127D01*
X79549230Y-102423976D01*
X79549229Y-102423972D01*
X79541908Y-102409269D01*
X79450061Y-102224816D01*
X79450056Y-102224808D01*
X79315979Y-102047261D01*
X79151562Y-101897376D01*
X79151560Y-101897374D01*
X78962404Y-101780254D01*
X78962395Y-101780250D01*
X78868956Y-101744052D01*
X78768475Y-101705125D01*
X78713075Y-101662554D01*
X78689484Y-101596788D01*
X78705195Y-101528707D01*
X78755219Y-101479928D01*
X78768466Y-101473877D01*
X78962401Y-101398747D01*
X79151562Y-101281624D01*
X79315981Y-101131736D01*
X79450058Y-100954189D01*
X79549229Y-100755028D01*
X79575734Y-100661871D01*
X79613013Y-100602778D01*
X79676323Y-100573221D01*
X79745562Y-100582583D01*
G37*
G04 #@! TD.AperFunction*
G04 #@! TA.AperFunction,NonConductor*
G36*
X87365562Y-103122583D02*
G01*
X87418749Y-103167893D01*
X87434266Y-103201872D01*
X87460769Y-103295023D01*
X87460775Y-103295038D01*
X87559938Y-103494183D01*
X87559943Y-103494191D01*
X87694020Y-103671738D01*
X87858437Y-103821623D01*
X87858439Y-103821625D01*
X88047595Y-103938745D01*
X88047596Y-103938745D01*
X88047599Y-103938747D01*
X88241524Y-104013874D01*
X88296924Y-104056446D01*
X88320515Y-104122213D01*
X88304804Y-104190293D01*
X88254780Y-104239072D01*
X88241533Y-104245122D01*
X88093488Y-104302475D01*
X88047601Y-104320252D01*
X88047595Y-104320254D01*
X87858439Y-104437374D01*
X87858437Y-104437376D01*
X87694020Y-104587261D01*
X87559943Y-104764808D01*
X87559938Y-104764816D01*
X87460775Y-104963961D01*
X87460769Y-104963976D01*
X87434266Y-105057127D01*
X87396987Y-105116221D01*
X87333677Y-105145778D01*
X87264438Y-105136416D01*
X87211251Y-105091106D01*
X87195734Y-105057127D01*
X87169230Y-104963976D01*
X87169229Y-104963972D01*
X87168825Y-104963160D01*
X87070061Y-104764816D01*
X87070056Y-104764808D01*
X86935979Y-104587261D01*
X86771562Y-104437376D01*
X86771560Y-104437374D01*
X86582404Y-104320254D01*
X86582395Y-104320250D01*
X86488956Y-104284052D01*
X86388475Y-104245125D01*
X86333075Y-104202554D01*
X86309484Y-104136788D01*
X86325195Y-104068707D01*
X86375219Y-104019928D01*
X86388466Y-104013877D01*
X86582401Y-103938747D01*
X86771562Y-103821624D01*
X86935981Y-103671736D01*
X87070058Y-103494189D01*
X87169229Y-103295028D01*
X87195734Y-103201871D01*
X87233013Y-103142778D01*
X87296323Y-103113221D01*
X87365562Y-103122583D01*
G37*
G04 #@! TD.AperFunction*
G04 #@! TA.AperFunction,NonConductor*
G36*
X84825562Y-103122583D02*
G01*
X84878749Y-103167893D01*
X84894266Y-103201872D01*
X84920769Y-103295023D01*
X84920775Y-103295038D01*
X85019938Y-103494183D01*
X85019943Y-103494191D01*
X85154020Y-103671738D01*
X85318437Y-103821623D01*
X85318439Y-103821625D01*
X85507595Y-103938745D01*
X85507596Y-103938745D01*
X85507599Y-103938747D01*
X85701524Y-104013874D01*
X85756924Y-104056446D01*
X85780515Y-104122213D01*
X85764804Y-104190293D01*
X85714780Y-104239072D01*
X85701533Y-104245122D01*
X85553488Y-104302475D01*
X85507601Y-104320252D01*
X85507595Y-104320254D01*
X85318439Y-104437374D01*
X85318437Y-104437376D01*
X85154020Y-104587261D01*
X85019943Y-104764808D01*
X85019938Y-104764816D01*
X84920775Y-104963961D01*
X84920769Y-104963976D01*
X84894266Y-105057127D01*
X84856987Y-105116221D01*
X84793677Y-105145778D01*
X84724438Y-105136416D01*
X84671251Y-105091106D01*
X84655734Y-105057127D01*
X84629230Y-104963976D01*
X84629229Y-104963972D01*
X84628825Y-104963160D01*
X84530061Y-104764816D01*
X84530056Y-104764808D01*
X84395979Y-104587261D01*
X84231562Y-104437376D01*
X84231560Y-104437374D01*
X84042404Y-104320254D01*
X84042395Y-104320250D01*
X83948956Y-104284052D01*
X83848475Y-104245125D01*
X83793075Y-104202554D01*
X83769484Y-104136788D01*
X83785195Y-104068707D01*
X83835219Y-104019928D01*
X83848466Y-104013877D01*
X84042401Y-103938747D01*
X84231562Y-103821624D01*
X84395981Y-103671736D01*
X84530058Y-103494189D01*
X84629229Y-103295028D01*
X84655734Y-103201871D01*
X84693013Y-103142778D01*
X84756323Y-103113221D01*
X84825562Y-103122583D01*
G37*
G04 #@! TD.AperFunction*
G04 #@! TA.AperFunction,NonConductor*
G36*
X82285562Y-103122583D02*
G01*
X82338749Y-103167893D01*
X82354266Y-103201872D01*
X82380769Y-103295023D01*
X82380775Y-103295038D01*
X82479938Y-103494183D01*
X82479943Y-103494191D01*
X82614020Y-103671738D01*
X82778437Y-103821623D01*
X82778439Y-103821625D01*
X82967595Y-103938745D01*
X82967596Y-103938745D01*
X82967599Y-103938747D01*
X83161524Y-104013874D01*
X83216924Y-104056446D01*
X83240515Y-104122213D01*
X83224804Y-104190293D01*
X83174780Y-104239072D01*
X83161533Y-104245122D01*
X83013488Y-104302475D01*
X82967601Y-104320252D01*
X82967595Y-104320254D01*
X82778439Y-104437374D01*
X82778437Y-104437376D01*
X82614020Y-104587261D01*
X82479943Y-104764808D01*
X82479938Y-104764816D01*
X82380775Y-104963961D01*
X82380769Y-104963976D01*
X82354266Y-105057127D01*
X82316987Y-105116221D01*
X82253677Y-105145778D01*
X82184438Y-105136416D01*
X82131251Y-105091106D01*
X82115734Y-105057127D01*
X82089230Y-104963976D01*
X82089229Y-104963972D01*
X82088825Y-104963160D01*
X81990061Y-104764816D01*
X81990056Y-104764808D01*
X81855979Y-104587261D01*
X81691562Y-104437376D01*
X81691560Y-104437374D01*
X81502404Y-104320254D01*
X81502395Y-104320250D01*
X81408956Y-104284052D01*
X81308475Y-104245125D01*
X81253075Y-104202554D01*
X81229484Y-104136788D01*
X81245195Y-104068707D01*
X81295219Y-104019928D01*
X81308466Y-104013877D01*
X81502401Y-103938747D01*
X81691562Y-103821624D01*
X81855981Y-103671736D01*
X81990058Y-103494189D01*
X82089229Y-103295028D01*
X82115734Y-103201871D01*
X82153013Y-103142778D01*
X82216323Y-103113221D01*
X82285562Y-103122583D01*
G37*
G04 #@! TD.AperFunction*
G04 #@! TA.AperFunction,NonConductor*
G36*
X79745562Y-103122583D02*
G01*
X79798749Y-103167893D01*
X79814266Y-103201872D01*
X79840769Y-103295023D01*
X79840775Y-103295038D01*
X79939938Y-103494183D01*
X79939943Y-103494191D01*
X80074020Y-103671738D01*
X80238437Y-103821623D01*
X80238439Y-103821625D01*
X80427595Y-103938745D01*
X80427596Y-103938745D01*
X80427599Y-103938747D01*
X80621524Y-104013874D01*
X80676924Y-104056446D01*
X80700515Y-104122213D01*
X80684804Y-104190293D01*
X80634780Y-104239072D01*
X80621533Y-104245122D01*
X80473488Y-104302475D01*
X80427601Y-104320252D01*
X80427595Y-104320254D01*
X80238439Y-104437374D01*
X80238437Y-104437376D01*
X80074020Y-104587261D01*
X79939943Y-104764808D01*
X79939938Y-104764816D01*
X79840775Y-104963961D01*
X79840769Y-104963976D01*
X79814266Y-105057127D01*
X79776987Y-105116221D01*
X79713677Y-105145778D01*
X79644438Y-105136416D01*
X79591251Y-105091106D01*
X79575734Y-105057127D01*
X79549230Y-104963976D01*
X79549229Y-104963972D01*
X79548825Y-104963160D01*
X79450061Y-104764816D01*
X79450056Y-104764808D01*
X79315979Y-104587261D01*
X79151562Y-104437376D01*
X79151560Y-104437374D01*
X78962404Y-104320254D01*
X78962395Y-104320250D01*
X78868956Y-104284052D01*
X78768475Y-104245125D01*
X78713075Y-104202554D01*
X78689484Y-104136788D01*
X78705195Y-104068707D01*
X78755219Y-104019928D01*
X78768466Y-104013877D01*
X78962401Y-103938747D01*
X79151562Y-103821624D01*
X79315981Y-103671736D01*
X79450058Y-103494189D01*
X79549229Y-103295028D01*
X79575734Y-103201871D01*
X79613013Y-103142778D01*
X79676323Y-103113221D01*
X79745562Y-103122583D01*
G37*
G04 #@! TD.AperFunction*
G04 #@! TA.AperFunction,NonConductor*
G36*
X87365562Y-105662583D02*
G01*
X87418749Y-105707893D01*
X87434266Y-105741872D01*
X87460769Y-105835023D01*
X87460775Y-105835038D01*
X87559938Y-106034183D01*
X87559943Y-106034191D01*
X87694020Y-106211738D01*
X87858437Y-106361623D01*
X87858439Y-106361625D01*
X88047595Y-106478745D01*
X88047596Y-106478745D01*
X88047599Y-106478747D01*
X88241524Y-106553874D01*
X88296924Y-106596446D01*
X88320515Y-106662213D01*
X88304804Y-106730293D01*
X88254780Y-106779072D01*
X88241533Y-106785122D01*
X88093488Y-106842475D01*
X88047601Y-106860252D01*
X88047595Y-106860254D01*
X87858439Y-106977374D01*
X87858437Y-106977376D01*
X87694020Y-107127261D01*
X87559943Y-107304808D01*
X87559938Y-107304816D01*
X87460775Y-107503961D01*
X87460769Y-107503976D01*
X87434266Y-107597127D01*
X87396987Y-107656221D01*
X87333677Y-107685778D01*
X87264438Y-107676416D01*
X87211251Y-107631106D01*
X87195734Y-107597127D01*
X87169230Y-107503976D01*
X87169229Y-107503972D01*
X87169224Y-107503961D01*
X87070061Y-107304816D01*
X87070056Y-107304808D01*
X86935979Y-107127261D01*
X86771562Y-106977376D01*
X86771560Y-106977374D01*
X86582404Y-106860254D01*
X86582395Y-106860250D01*
X86488956Y-106824052D01*
X86388475Y-106785125D01*
X86333075Y-106742554D01*
X86309484Y-106676788D01*
X86325195Y-106608707D01*
X86375219Y-106559928D01*
X86388466Y-106553877D01*
X86582401Y-106478747D01*
X86771562Y-106361624D01*
X86935981Y-106211736D01*
X87070058Y-106034189D01*
X87169229Y-105835028D01*
X87195734Y-105741871D01*
X87233013Y-105682778D01*
X87296323Y-105653221D01*
X87365562Y-105662583D01*
G37*
G04 #@! TD.AperFunction*
G04 #@! TA.AperFunction,NonConductor*
G36*
X84825562Y-105662583D02*
G01*
X84878749Y-105707893D01*
X84894266Y-105741872D01*
X84920769Y-105835023D01*
X84920775Y-105835038D01*
X85019938Y-106034183D01*
X85019943Y-106034191D01*
X85154020Y-106211738D01*
X85318437Y-106361623D01*
X85318439Y-106361625D01*
X85507595Y-106478745D01*
X85507596Y-106478745D01*
X85507599Y-106478747D01*
X85701524Y-106553874D01*
X85756924Y-106596446D01*
X85780515Y-106662213D01*
X85764804Y-106730293D01*
X85714780Y-106779072D01*
X85701533Y-106785122D01*
X85553488Y-106842475D01*
X85507601Y-106860252D01*
X85507595Y-106860254D01*
X85318439Y-106977374D01*
X85318437Y-106977376D01*
X85154020Y-107127261D01*
X85019943Y-107304808D01*
X85019938Y-107304816D01*
X84920775Y-107503961D01*
X84920769Y-107503976D01*
X84894266Y-107597127D01*
X84856987Y-107656221D01*
X84793677Y-107685778D01*
X84724438Y-107676416D01*
X84671251Y-107631106D01*
X84655734Y-107597127D01*
X84629230Y-107503976D01*
X84629229Y-107503972D01*
X84629224Y-107503961D01*
X84530061Y-107304816D01*
X84530056Y-107304808D01*
X84395979Y-107127261D01*
X84231562Y-106977376D01*
X84231560Y-106977374D01*
X84042404Y-106860254D01*
X84042395Y-106860250D01*
X83948956Y-106824052D01*
X83848475Y-106785125D01*
X83793075Y-106742554D01*
X83769484Y-106676788D01*
X83785195Y-106608707D01*
X83835219Y-106559928D01*
X83848466Y-106553877D01*
X84042401Y-106478747D01*
X84231562Y-106361624D01*
X84395981Y-106211736D01*
X84530058Y-106034189D01*
X84629229Y-105835028D01*
X84655734Y-105741871D01*
X84693013Y-105682778D01*
X84756323Y-105653221D01*
X84825562Y-105662583D01*
G37*
G04 #@! TD.AperFunction*
G04 #@! TA.AperFunction,NonConductor*
G36*
X82285562Y-105662583D02*
G01*
X82338749Y-105707893D01*
X82354266Y-105741872D01*
X82380769Y-105835023D01*
X82380775Y-105835038D01*
X82479938Y-106034183D01*
X82479943Y-106034191D01*
X82614020Y-106211738D01*
X82778437Y-106361623D01*
X82778439Y-106361625D01*
X82967595Y-106478745D01*
X82967596Y-106478745D01*
X82967599Y-106478747D01*
X83161524Y-106553874D01*
X83216924Y-106596446D01*
X83240515Y-106662213D01*
X83224804Y-106730293D01*
X83174780Y-106779072D01*
X83161533Y-106785122D01*
X83013488Y-106842475D01*
X82967601Y-106860252D01*
X82967595Y-106860254D01*
X82778439Y-106977374D01*
X82778437Y-106977376D01*
X82614020Y-107127261D01*
X82479943Y-107304808D01*
X82479938Y-107304816D01*
X82380775Y-107503961D01*
X82380769Y-107503976D01*
X82354266Y-107597127D01*
X82316987Y-107656221D01*
X82253677Y-107685778D01*
X82184438Y-107676416D01*
X82131251Y-107631106D01*
X82115734Y-107597127D01*
X82089230Y-107503976D01*
X82089229Y-107503972D01*
X82089224Y-107503961D01*
X81990061Y-107304816D01*
X81990056Y-107304808D01*
X81855979Y-107127261D01*
X81691562Y-106977376D01*
X81691560Y-106977374D01*
X81502404Y-106860254D01*
X81502395Y-106860250D01*
X81408956Y-106824052D01*
X81308475Y-106785125D01*
X81253075Y-106742554D01*
X81229484Y-106676788D01*
X81245195Y-106608707D01*
X81295219Y-106559928D01*
X81308466Y-106553877D01*
X81502401Y-106478747D01*
X81691562Y-106361624D01*
X81855981Y-106211736D01*
X81990058Y-106034189D01*
X82089229Y-105835028D01*
X82115734Y-105741871D01*
X82153013Y-105682778D01*
X82216323Y-105653221D01*
X82285562Y-105662583D01*
G37*
G04 #@! TD.AperFunction*
G04 #@! TA.AperFunction,NonConductor*
G36*
X79745562Y-105662583D02*
G01*
X79798749Y-105707893D01*
X79814266Y-105741872D01*
X79840769Y-105835023D01*
X79840775Y-105835038D01*
X79939938Y-106034183D01*
X79939943Y-106034191D01*
X80074020Y-106211738D01*
X80238437Y-106361623D01*
X80238439Y-106361625D01*
X80427595Y-106478745D01*
X80427596Y-106478745D01*
X80427599Y-106478747D01*
X80621524Y-106553874D01*
X80676924Y-106596446D01*
X80700515Y-106662213D01*
X80684804Y-106730293D01*
X80634780Y-106779072D01*
X80621533Y-106785122D01*
X80473488Y-106842475D01*
X80427601Y-106860252D01*
X80427595Y-106860254D01*
X80238439Y-106977374D01*
X80238437Y-106977376D01*
X80074020Y-107127261D01*
X79939943Y-107304808D01*
X79939938Y-107304816D01*
X79840775Y-107503961D01*
X79840769Y-107503976D01*
X79814266Y-107597127D01*
X79776987Y-107656221D01*
X79713677Y-107685778D01*
X79644438Y-107676416D01*
X79591251Y-107631106D01*
X79575734Y-107597127D01*
X79549230Y-107503976D01*
X79549229Y-107503972D01*
X79549224Y-107503961D01*
X79450061Y-107304816D01*
X79450056Y-107304808D01*
X79315979Y-107127261D01*
X79151562Y-106977376D01*
X79151560Y-106977374D01*
X78962404Y-106860254D01*
X78962395Y-106860250D01*
X78868956Y-106824052D01*
X78768475Y-106785125D01*
X78713075Y-106742554D01*
X78689484Y-106676788D01*
X78705195Y-106608707D01*
X78755219Y-106559928D01*
X78768466Y-106553877D01*
X78962401Y-106478747D01*
X79151562Y-106361624D01*
X79315981Y-106211736D01*
X79450058Y-106034189D01*
X79549229Y-105835028D01*
X79575734Y-105741871D01*
X79613013Y-105682778D01*
X79676323Y-105653221D01*
X79745562Y-105662583D01*
G37*
G04 #@! TD.AperFunction*
M02*
