<?xml version="1.0" encoding="UTF-8"?>
<svg id="Layer_2" data-name="Layer 2" xmlns="http://www.w3.org/2000/svg" viewBox="0 0 188.78 188.78">
  <defs>
    <style>
      .cls-1 {
        fill: #f1573f;
      }

      .cls-1, .cls-2 {
        stroke-width: 0px;
      }

      .cls-2 {
        fill: #fff;
      }
    </style>
  </defs>
  <g id="Layer_1-2" data-name="Layer 1">
    <path class="cls-2" d="M187.78,60.63l-22.99,22.99c-4.73-2.13-10.19-2.13-14.93,0l-25.97-25.97c3-6.69,1.77-14.83-3.72-20.32s-13.63-6.72-20.32-3.72L67.24,1h-18.21l41.72,41.72c-2.13,4.73-2.13,10.19,0,14.93l-8.93,8.93L16.25,1H1v2.96l71.72,71.72-8.93,8.93c-4.73-2.13-10.19-2.13-14.93,0L1,36.74v18.21l38.76,38.76c-2.13,4.73-2.13,10.19,0,14.93L1,147.39v18.21l47.86-47.86c4.74,2.13,10.21,2.12,14.95-.02l.4.4-.02.02,25.17,25.17.02-.02.4.4c-3.02,6.69-1.79,14.84,3.7,20.33,7.09,7.09,18.62,7.09,25.7,0,5.48-5.48,6.72-13.63,3.72-20.32l26.96-26.96c6.69,3,14.83,1.77,20.32-3.72s6.72-13.63,3.72-20.32l13.89-13.89v-18.21ZM99.28,42.15c4.43-4.43,11.63-4.43,16.06,0s4.43,11.63,0,16.06-11.64,4.43-16.06,0c-4.43-4.43-4.43-11.63,0-16.06ZM48.29,109.2c-4.43-4.43-4.43-11.63,0-16.06,4.43-4.43,11.63-4.43,16.06,0,4.43,4.43,4.43,11.63,0,16.06-4.43,4.43-11.63,4.43-16.06,0ZM114.36,159.21c-4.43,4.43-11.63,4.43-16.06,0s-4.43-11.63,0-16.06,11.63-4.43,16.06,0c4.43,4.43,4.43,11.63,0,16.06ZM140.75,107.65l-26.96,26.96c-4.74-2.13-10.21-2.12-14.95.02l-.4-.4.02-.02-25.17-25.17-.02.02-.4-.4c2.14-4.74,2.15-10.21.02-14.95l26.96-26.96c4.73,2.13,10.19,2.13,14.93,0l25.97,25.97c-2.13,4.73-2.13,10.19,0,14.93ZM165.35,108.22c-4.43,4.43-11.64,4.43-16.06,0-4.43-4.43-4.43-11.63,0-16.06s11.64-4.43,16.06,0,4.43,11.63,0,16.06Z"/>
    <path class="cls-1" d="M107.31,63.59c-3.43,0-6.87-1.31-9.48-3.92-2.53-2.53-3.92-5.9-3.92-9.49s1.39-6.95,3.92-9.48h0s0,0,0,0c5.23-5.23,13.74-5.23,18.97,0,5.23,5.23,5.23,13.74,0,18.97-2.61,2.62-6.05,3.92-9.49,3.92ZM107.32,40.88c-2.38,0-4.77.91-6.58,2.72h0c-1.75,1.75-2.72,4.09-2.72,6.58s.97,4.83,2.72,6.58c3.63,3.63,9.53,3.63,13.16,0,3.63-3.63,3.63-9.53,0-13.16-1.81-1.81-4.2-2.72-6.58-2.72Z"/>
    <path class="cls-1" d="M56.32,114.58c-3.59,0-6.95-1.39-9.49-3.92-5.23-5.23-5.23-13.74,0-18.97,2.53-2.53,5.9-3.92,9.49-3.92s6.95,1.39,9.48,3.92c2.53,2.53,3.92,5.9,3.92,9.48s-1.39,6.95-3.92,9.48h0s0,0,0,0c-2.53,2.53-5.9,3.92-9.48,3.92ZM56.32,91.87c-2.49,0-4.82.97-6.58,2.72-3.63,3.63-3.63,9.53,0,13.16,1.75,1.75,4.09,2.72,6.58,2.72s4.82-.97,6.58-2.72h0c1.75-1.75,2.72-4.09,2.72-6.58s-.97-4.82-2.72-6.58c-1.75-1.75-4.09-2.72-6.58-2.72Z"/>
    <path class="cls-1" d="M106.33,164.58c-3.59,0-6.95-1.39-9.49-3.92-5.23-5.23-5.23-13.74,0-18.97,2.53-2.53,5.9-3.92,9.49-3.92s6.95,1.39,9.48,3.92c2.53,2.53,3.92,5.9,3.92,9.48s-1.39,6.95-3.92,9.48h0s0,0,0,0c-2.53,2.53-5.9,3.92-9.48,3.92ZM106.33,141.88c-2.49,0-4.82.97-6.58,2.72-3.63,3.63-3.63,9.53,0,13.16,1.75,1.75,4.09,2.72,6.58,2.72s4.82-.97,6.58-2.72h0c1.75-1.75,2.72-4.09,2.72-6.58s-.97-4.82-2.72-6.58c-1.75-1.75-4.09-2.72-6.58-2.72Z"/>
    <path class="cls-1" d="M157.32,113.59c-3.59,0-6.95-1.39-9.48-3.92-5.23-5.23-5.23-13.74,0-18.97,2.53-2.53,5.9-3.92,9.48-3.92s6.96,1.39,9.49,3.92c5.23,5.23,5.23,13.74,0,18.97-2.53,2.53-5.9,3.92-9.49,3.92ZM157.32,90.89c-2.49,0-4.82.97-6.58,2.72-3.63,3.63-3.63,9.53,0,13.16,1.75,1.75,4.09,2.72,6.58,2.72s4.83-.97,6.58-2.72c3.63-3.63,3.63-9.53,0-13.16-1.75-1.75-4.09-2.72-6.58-2.72Z"/>
    <path class="cls-2" d="M188.78,188.78H0V0h188.78v188.78ZM2,186.78h184.78V2H2v184.78Z"/>
  </g>
</svg>